{"glyphs":{"0":{"ha":457,"x_min":0,"x_max":0,"o":"m 132 331 b 132 336 132 331 132 333 b 132 331 132 335 132 333 m 47 -92 b 50 -81 47 -92 47 -86 l 57 -82 b 57 -92 57 -87 57 -92 b 56 -101 57 -92 57 -94 l 56 -118 b 47 -92 56 -110 46 -96 m 96 -126 b 96 -89 96 -110 96 -78 b 99 -275 99 -165 101 -262 b 85 -237 96 -289 86 -246 b 94 -168 82 -231 94 -179 b 96 -126 94 -158 96 -142 m 39 46 b 40 19 39 32 36 35 b 38 -4 46 4 38 8 b 32 -31 39 -17 33 -36 b 31 74 32 -22 28 67 b 42 72 31 74 32 81 b 39 46 38 58 39 46 m 125 267 b 132 331 132 314 132 331 b 136 253 133 317 136 272 b 129 218 136 229 136 218 b 122 239 122 218 125 229 b 125 267 122 239 119 250 m 442 963 l 442 946 b 442 929 444 943 442 929 b 439 915 439 915 439 932 b 442 871 439 915 439 899 b 444 846 444 860 444 846 b 453 807 444 832 456 835 b 453 753 451 778 456 761 b 451 744 451 744 458 765 b 438 708 451 744 442 725 b 428 717 431 733 428 717 b 431 683 425 700 428 692 b 439 658 432 675 442 672 b 439 631 439 658 438 644 b 428 575 431 583 428 575 b 428 539 426 567 431 558 b 431 521 426 529 429 525 l 432 522 l 432 407 b 436 367 439 379 436 367 b 439 322 436 367 436 356 l 442 292 l 436 282 b 429 313 432 306 429 313 b 428 336 428 321 436 303 b 414 385 428 336 415 369 b 417 340 413 363 419 371 b 414 299 414 310 421 335 b 403 229 407 263 407 246 b 393 193 399 213 394 213 b 388 92 393 193 394 172 l 381 22 l 374 92 b 369 153 369 125 369 153 b 358 154 365 153 368 154 b 350 85 358 154 354 117 l 347 139 b 346 153 347 144 346 153 b 317 156 329 153 332 156 b 260 153 317 156 299 153 b 229 147 251 153 229 147 b 196 147 207 143 211 149 b 182 147 190 147 186 147 l 164 140 l 150 138 b 128 135 133 135 128 135 b 113 135 124 136 115 135 b 113 111 113 126 111 118 b 113 74 115 99 114 90 b 108 13 113 74 110 58 l 106 -49 b 90 85 96 26 90 85 b 89 74 90 82 89 78 b 82 -40 89 74 90 51 l 75 -119 l 68 -40 b 61 74 60 51 61 74 b 53 115 60 96 57 96 b 40 193 47 133 47 153 b 39 242 33 235 40 207 b 40 292 36 276 43 267 b 28 238 40 274 28 238 b 25 210 19 199 28 218 b 18 175 25 210 24 203 l 14 186 l 17 221 b 18 271 18 258 18 271 b 24 317 18 271 17 285 l 24 447 l 25 446 b 26 465 26 450 28 454 b 26 506 25 488 29 497 b 15 569 26 506 25 515 b 15 601 18 585 15 601 b 25 629 14 617 22 619 b 26 667 26 639 29 649 b 18 658 26 667 25 686 b 4 699 14 676 4 699 b 1 708 -3 721 4 699 b 1 768 0 718 4 736 b 11 813 0 800 10 797 b 14 840 11 813 11 828 b 15 892 15 872 15 892 b 14 907 17 910 15 892 b 14 926 14 907 11 922 l 14 944 l 25 964 l 8 989 l 8 1001 b 8 1024 11 1014 8 1024 b 21 1058 7 1033 21 1049 b 46 1089 21 1067 40 1083 b 50 1106 47 1094 49 1100 b 69 1108 50 1106 60 1106 l 104 1107 b 113 1108 124 1115 104 1107 b 132 1108 117 1110 124 1110 l 158 1111 l 154 1108 b 167 1108 158 1108 163 1108 b 206 1100 194 1111 192 1100 b 231 1097 206 1100 219 1100 b 275 1094 258 1094 275 1094 b 289 1097 292 1094 275 1094 b 306 1097 289 1097 303 1100 l 322 1097 l 339 1086 l 361 1101 l 372 1101 b 392 1101 383 1100 392 1101 b 422 1090 400 1104 414 1090 b 451 1063 422 1090 431 1090 b 457 1036 451 1063 460 1054 b 451 1008 460 1018 451 1008 b 446 1003 449 1006 446 1003 l 446 1001 m 63 354 b 68 375 67 365 68 375 b 51 429 71 385 50 414 l 50 396 b 49 375 50 383 49 375 b 49 356 49 375 49 368 m 58 225 b 72 211 60 222 71 217 l 68 222 b 65 229 67 226 65 229 b 63 236 65 229 64 232 l 57 233 b 58 225 58 229 58 225 m 96 135 b 88 135 93 135 90 135 b 86 131 86 133 86 132 b 94 103 85 125 96 111 l 96 119 b 96 131 96 126 96 131 m 86 453 b 106 606 89 467 108 594 b 89 606 106 606 103 615 b 89 565 92 583 89 565 b 82 528 86 546 92 549 b 82 493 72 506 85 511 b 86 453 79 474 85 444 m 204 167 b 176 169 210 168 189 171 b 153 169 164 168 167 175 b 126 165 138 165 139 167 b 113 165 122 165 117 165 b 114 157 114 163 114 160 b 204 167 142 160 197 167 m 258 178 b 274 181 258 178 265 178 l 272 189 b 258 189 264 189 258 189 b 244 188 258 189 253 188 l 221 186 b 258 178 232 188 251 176 m 317 193 b 342 194 332 192 329 194 b 342 197 342 194 342 196 b 317 193 342 197 325 193 m 343 340 b 346 385 342 371 347 363 b 342 457 346 385 343 407 b 332 497 340 468 332 497 b 332 539 325 525 335 519 b 332 556 331 546 331 550 l 318 579 l 314 596 b 310 624 308 618 310 624 b 310 646 310 624 311 631 b 310 683 306 674 310 683 b 307 710 310 683 311 693 l 310 744 b 307 753 300 764 310 744 b 307 772 306 757 307 764 l 304 799 l 307 794 b 307 807 307 799 307 803 b 317 846 304 835 317 832 b 318 871 317 846 317 860 b 321 915 321 899 321 915 b 318 929 321 932 321 915 b 318 946 318 929 317 943 l 318 963 l 326 974 l 322 974 l 306 974 b 289 974 303 972 289 974 b 275 976 275 976 292 978 b 231 974 275 976 258 976 b 206 972 219 972 206 972 b 167 963 192 972 194 960 b 126 963 149 964 136 963 l 136 944 l 136 926 b 136 907 139 922 136 907 b 135 892 135 892 133 910 b 136 840 135 892 135 872 b 139 813 139 828 139 813 b 149 768 140 797 150 800 b 147 754 147 764 147 758 l 150 760 l 149 729 b 149 708 149 719 149 713 b 146 699 146 699 156 721 l 149 658 b 146 629 143 639 146 629 b 146 586 146 629 149 618 b 146 563 144 569 146 563 b 142 531 146 563 147 554 l 136 511 l 124 483 b 124 465 124 479 124 472 b 124 418 121 443 129 450 b 114 374 124 418 114 386 b 110 292 113 317 110 292 b 111 242 108 267 114 276 b 111 206 110 211 114 229 b 124 207 111 206 118 206 b 167 200 161 201 167 200 b 196 200 174 199 181 201 b 210 201 203 200 206 201 l 208 203 l 299 203 b 331 206 321 206 331 206 b 342 204 333 204 338 204 b 342 226 342 213 340 218 b 342 275 344 238 340 261 b 344 306 343 283 344 296 b 343 340 340 331 346 313 m 368 176 b 368 179 368 178 368 178 b 363 183 365 181 364 182 b 363 183 363 183 363 183 b 363 178 363 182 363 181 b 365 178 363 178 364 178 m 364 193 b 367 194 365 194 365 194 b 365 201 365 197 365 200 b 365 201 365 201 365 201 b 364 193 364 199 364 196 m 361 218 b 369 243 360 225 369 238 b 365 251 369 243 368 247 l 358 251 b 358 243 358 246 358 243 b 360 233 358 243 360 239 l 361 218 m 372 563 b 372 593 371 579 382 575 b 365 626 364 613 368 610 b 365 663 365 626 364 643 b 350 663 351 671 350 663 b 368 528 347 653 365 539 b 372 563 369 521 375 546 m 396 326 b 397 333 396 326 397 329 l 393 336 b 389 331 390 332 389 331 b 386 324 389 331 389 328 l 382 314 b 396 326 383 318 396 324 m 407 442 b 407 458 407 453 407 458 b 406 478 407 458 406 465 l 403 507 b 386 458 406 493 385 468 b 393 440 386 458 388 450 l 407 442 m 324 419 b 324 424 324 422 324 424 b 324 419 324 422 324 419 m 324 419 b 331 363 324 419 324 406 b 333 339 335 349 333 339 b 326 321 331 329 333 321 b 318 351 318 321 318 329 b 324 419 318 368 322 407 m 358 17 b 361 -22 358 1 361 -12 b 371 -83 361 -31 372 -76 b 357 -115 368 -90 358 -128 b 358 49 354 -104 357 -19 b 358 17 360 58 358 31 m 414 192 b 425 193 422 199 425 193 b 422 100 428 186 424 108 b 417 124 422 94 417 113 b 414 144 417 135 410 131 b 417 168 419 158 417 156 b 414 192 417 168 417 179 m 408 47 b 400 24 410 43 399 29 l 399 38 b 399 47 399 43 399 47 b 399 56 399 47 399 50 l 406 56 b 408 47 407 51 408 47 "},"1":{"ha":314,"x_min":0,"x_max":0,"o":"m 392 340 b 394 339 392 340 393 340 l 400 339 b 392 333 397 339 393 333 b 388 336 392 333 389 333 l 388 340 b 392 340 390 340 392 340 m 363 328 b 371 324 367 328 372 324 b 336 322 368 324 339 321 b 336 329 336 322 333 324 b 346 328 342 328 346 328 b 354 329 350 328 349 326 b 363 328 360 332 358 328 m 336 361 b 374 356 336 361 343 361 l 400 351 l 374 347 b 336 343 343 342 336 343 b 322 338 329 342 329 340 b 296 329 315 333 310 333 b 282 328 283 325 290 329 b 279 322 281 326 279 325 b 282 321 279 322 281 322 b 290 319 294 314 288 321 b 301 315 290 319 293 318 l 299 313 l 286 314 b 271 315 276 315 271 315 b 261 308 268 313 264 307 b 254 308 261 308 258 310 l 250 308 l 243 318 l 240 318 l 235 311 l 229 311 b 222 311 228 310 222 311 b 218 313 218 313 224 313 b 221 258 219 294 221 271 b 214 224 221 233 221 224 b 206 244 206 224 208 233 b 208 272 206 244 204 256 b 214 313 213 293 214 313 b 200 311 214 313 208 313 b 194 310 197 311 194 310 b 193 297 194 306 193 301 b 196 246 190 272 197 282 b 194 207 193 214 199 236 b 197 172 194 194 196 181 b 197 115 199 156 194 129 b 197 78 199 101 197 94 b 192 15 197 78 193 61 l 189 -46 b 174 89 181 29 174 89 b 172 78 174 86 172 82 b 165 -37 172 78 174 54 l 158 -117 l 151 -37 b 144 78 143 54 144 78 b 136 119 143 100 140 100 b 124 199 131 138 131 157 b 122 246 117 240 124 211 b 124 297 119 282 126 272 b 111 242 122 279 111 242 b 108 215 101 204 110 224 b 101 181 108 215 106 207 l 97 190 l 99 226 b 101 278 101 264 101 278 b 103 304 100 283 101 294 b 89 310 93 303 94 310 b 79 311 89 310 83 310 b 63 313 69 313 63 313 b 57 311 56 313 63 313 b 51 311 57 311 51 310 l 44 311 l 39 318 l 38 318 l 29 308 l 25 308 b 18 308 21 310 18 308 b 8 315 15 307 11 313 b -7 314 8 315 3 315 l -18 313 l -22 315 b -10 319 -12 318 -10 319 b -1 321 -8 321 -14 314 b 1 322 0 322 0 322 b -1 328 0 325 0 326 b -15 329 -11 329 -3 325 b -42 338 -29 333 -36 333 b -56 343 -49 340 -49 342 b -94 347 -56 343 -64 342 l -121 351 l -94 356 b -56 361 -64 361 -56 361 b -53 361 -54 361 -53 361 b -97 372 -53 361 -72 365 l -76 374 b -56 376 -61 376 -56 376 b -43 376 -50 376 -47 378 b -25 376 -39 375 -31 378 b -12 375 -22 375 -17 375 b -1 375 -4 378 -10 375 b 1 382 0 378 1 379 b 0 382 1 382 0 382 b -8 388 -4 383 -8 382 b 4 392 -8 392 -4 392 b 11 390 6 392 8 392 b 18 394 14 393 17 396 b 25 394 18 394 21 393 l 29 394 l 39 385 l 44 392 l 51 392 b 57 392 51 393 57 392 b 63 390 63 390 56 390 b 79 392 63 390 69 390 b 89 393 83 393 89 393 b 104 399 94 393 93 400 b 106 399 104 399 106 399 l 106 456 l 107 453 b 110 472 108 458 111 461 b 110 514 108 494 113 504 b 99 578 110 514 108 524 b 99 610 101 594 99 610 b 108 639 96 626 106 629 b 110 676 110 649 113 658 b 101 667 110 676 108 696 b 88 708 96 686 88 708 b 85 718 79 732 88 708 b 85 779 82 728 88 747 b 94 824 82 811 93 807 b 96 853 94 824 94 839 b 99 903 99 885 99 903 b 96 919 100 922 99 903 b 96 939 96 919 94 935 l 96 957 l 108 976 l 92 1001 l 92 1015 b 92 1038 94 1028 92 1038 b 103 1072 89 1047 103 1063 b 131 1104 103 1072 103 1082 b 158 1111 131 1104 140 1115 b 186 1104 176 1115 186 1104 b 214 1072 214 1082 214 1072 b 225 1038 214 1063 228 1047 b 225 1015 225 1038 224 1028 l 225 1001 l 210 976 l 221 957 l 221 939 b 221 919 224 935 221 919 b 218 903 218 903 218 922 b 221 853 218 903 218 885 b 224 824 224 839 224 824 b 232 779 225 807 235 811 b 232 765 232 774 232 769 l 235 769 l 232 740 b 232 718 233 731 233 724 b 231 708 231 708 239 731 l 232 668 b 231 638 228 649 231 638 b 231 594 231 638 233 628 b 231 571 228 579 231 571 b 225 539 231 571 232 563 l 221 519 l 207 492 b 207 472 208 486 208 481 b 207 425 204 450 217 457 b 199 392 203 410 200 399 b 200 392 199 392 200 392 b 218 390 211 390 218 390 b 222 392 224 390 218 390 b 229 392 222 392 228 393 l 235 392 l 242 385 l 250 394 l 254 394 b 261 394 258 393 261 394 b 268 390 264 396 265 393 b 276 392 271 392 274 392 b 288 388 285 392 288 392 b 281 382 288 382 285 383 b 278 382 279 382 279 382 b 282 375 279 379 281 378 b 293 375 290 375 283 378 b 304 376 297 375 301 375 b 324 376 310 378 319 375 b 336 376 328 378 331 376 b 357 374 336 376 342 376 l 376 372 b 332 361 351 365 332 361 b 336 361 333 361 335 361 m -37 358 b -33 361 -37 358 -36 360 l -33 365 b -37 365 -36 365 -37 365 b -40 365 -37 365 -39 365 l -46 364 b -37 358 -43 365 -39 358 m -10 350 b -6 342 -8 349 -7 344 b -7 347 -7 344 -7 346 b -7 347 -7 347 -7 347 l -10 350 m 140 399 b 140 399 140 399 140 399 l 147 399 b 135 435 143 410 135 424 l 133 403 b 133 399 133 401 133 399 l 139 399 b 139 399 139 399 139 399 l 140 399 l 140 399 m 142 231 b 157 217 143 226 154 222 l 151 228 b 149 235 150 232 149 235 b 146 242 149 235 147 238 l 142 239 b 142 231 142 233 142 231 m 181 135 b 181 144 181 135 181 138 l 174 144 b 169 135 171 139 169 135 b 178 107 169 129 179 115 l 179 124 b 181 135 179 131 181 135 m 171 460 b 189 614 172 474 192 603 b 172 614 189 614 188 625 b 172 574 175 592 172 574 b 165 536 171 554 175 557 b 165 501 156 514 168 519 b 171 460 164 482 169 451 m 286 342 b 290 350 288 344 289 349 l 286 347 b 286 347 286 347 286 347 b 286 342 286 346 286 344 m 317 358 b 326 364 318 358 324 365 l 321 365 b 317 365 318 365 317 365 b 314 365 317 365 315 365 l 314 361 b 317 358 315 360 317 358 m 453 367 b 440 358 457 365 443 360 b 417 364 438 356 421 364 b 403 365 414 364 408 365 b 390 365 397 365 386 365 b 453 367 417 367 449 368 m -65 328 b -57 329 -65 328 -61 328 b -56 322 -54 324 -56 322 b -92 324 -58 321 -87 324 b -82 328 -93 324 -86 328 b -74 329 -78 328 -79 332 b -65 328 -69 326 -69 328 m -111 340 b -108 340 -111 340 -110 340 l -108 336 b -111 333 -110 333 -111 333 b -121 339 -112 333 -118 339 l -115 339 b -111 340 -112 340 -111 340 m -110 365 b -122 365 -107 365 -118 365 b -137 364 -128 365 -133 364 b -160 358 -140 364 -157 356 b -172 367 -162 360 -178 365 b -110 365 -168 368 -136 367 m 181 -125 b 181 -86 181 -108 179 -75 b 182 -275 182 -165 185 -261 b 168 -237 181 -289 171 -246 b 178 -168 165 -229 178 -178 b 181 -125 178 -157 181 -140 m 131 -89 b 133 -79 131 -89 131 -85 l 140 -79 b 140 -89 140 -86 140 -89 b 139 -100 140 -89 140 -93 l 139 -117 b 131 -89 139 -108 129 -94 m 121 49 b 124 22 122 36 119 38 b 121 -1 129 7 121 11 b 115 -28 122 -14 115 -35 b 113 78 115 -19 111 71 b 124 76 113 78 115 85 b 121 49 121 61 121 49 "},"2":{"ha":501,"x_min":0,"x_max":0,"o":"m 54 -143 b 57 -181 54 -157 57 -171 b 67 -242 57 -190 68 -235 b 51 -275 64 -250 54 -287 b 54 -110 50 -264 51 -178 b 54 -143 54 -100 54 -129 m 104 -112 b 96 -136 104 -117 94 -129 l 94 -121 b 93 -112 94 -115 93 -112 b 93 -104 93 -112 93 -108 l 100 -103 b 104 -112 103 -108 104 -112 m 18 263 b 19 267 18 265 18 267 b 18 263 18 265 18 263 m 18 263 b 26 206 18 263 18 249 b 28 182 31 192 28 182 b 21 163 26 172 28 163 b 14 193 14 163 14 172 b 18 263 14 211 18 250 m 110 33 b 121 35 118 40 121 35 b 118 -58 122 28 119 -50 b 113 -35 118 -64 113 -46 b 110 -14 113 -24 106 -28 b 113 10 115 0 111 -3 b 110 33 113 10 113 21 m 364 317 b 365 317 364 317 365 317 b 372 267 365 317 368 296 b 375 239 376 250 375 239 b 368 218 372 229 375 218 b 360 253 360 218 360 229 b 364 317 360 268 363 297 m 478 271 b 481 221 478 271 478 258 l 483 186 l 478 175 b 471 210 474 203 471 210 b 469 238 469 218 478 199 b 456 292 469 238 457 274 b 458 242 454 267 461 276 b 456 193 456 207 463 235 b 444 115 449 153 449 133 b 435 74 440 96 436 96 b 429 -40 435 74 436 51 l 422 -119 l 415 -40 b 408 74 407 51 408 74 b 407 85 408 78 407 82 b 392 -49 407 85 400 26 l 389 13 b 383 74 388 58 383 74 b 383 111 383 90 382 99 b 385 135 385 117 385 126 b 379 135 385 135 382 135 b 360 135 367 136 360 135 b 333 138 360 135 353 135 l 317 140 l 294 147 b 278 147 289 147 285 147 b 239 147 260 149 265 143 b 201 153 239 147 211 153 b 135 154 157 153 135 154 l 136 135 l 132 125 b 125 156 128 147 125 156 b 113 154 118 156 117 154 b 110 140 111 151 111 147 b 99 71 103 104 103 88 b 89 35 93 54 90 54 b 82 -67 89 35 90 14 l 75 -136 l 68 -67 b 61 35 61 14 61 35 b 60 44 61 39 61 42 b 44 -74 60 44 54 -7 l 43 -19 b 38 35 40 21 38 35 b 38 68 36 49 35 56 b 38 118 40 79 35 104 b 40 149 39 125 39 138 b 39 183 35 174 42 154 b 42 228 36 214 43 206 b 36 301 42 228 39 250 b 28 340 36 313 28 340 b 28 382 21 368 29 363 b 26 399 26 389 26 394 l 14 424 l 10 440 b 4 468 3 461 4 468 b 4 489 4 468 7 475 b 4 528 1 518 4 528 b 3 554 4 528 7 538 l 4 589 b 3 597 -4 610 4 589 b 3 617 1 601 1 608 l 0 643 l 3 639 b 3 651 3 643 3 647 b 11 690 0 679 11 676 b 14 715 11 690 11 704 b 17 761 17 743 17 761 b 14 775 17 778 17 761 b 14 792 14 775 11 789 l 14 808 l 25 825 l 10 847 l 10 858 b 10 878 11 869 10 878 b 21 910 7 886 21 900 b 49 938 21 910 21 918 b 74 943 56 943 68 943 l 75 944 b 79 951 76 947 78 950 b 83 963 81 956 82 960 b 92 957 86 960 89 957 b 97 953 93 956 96 954 l 122 953 l 128 928 b 132 925 129 926 131 926 b 149 907 132 925 138 924 l 157 894 l 167 872 b 178 863 169 869 174 867 b 206 842 189 851 192 863 b 226 814 206 842 219 819 b 274 772 260 786 274 772 b 306 751 289 760 286 768 b 329 732 324 735 314 749 b 342 724 333 729 338 726 b 343 733 342 728 342 732 b 340 757 343 733 344 742 l 342 788 b 340 796 333 806 342 788 b 340 813 339 799 339 804 l 338 835 l 340 832 b 340 842 340 835 340 839 b 349 876 338 867 349 864 b 351 899 349 876 349 889 b 354 938 354 922 354 938 b 351 950 354 953 354 938 b 351 963 350 957 350 961 b 322 963 343 964 333 964 b 283 972 294 960 297 972 b 258 974 283 972 269 972 b 214 976 231 976 214 976 b 199 974 196 978 214 976 b 182 974 199 974 185 972 l 165 974 l 126 969 l 115 969 b 96 969 104 972 96 969 b 65 981 88 967 74 981 b 38 1008 65 981 57 981 b 32 1036 38 1008 28 1018 b 38 1063 28 1054 38 1063 b 65 1090 57 1090 65 1090 b 96 1101 74 1090 88 1104 b 115 1101 96 1101 104 1100 l 126 1101 l 149 1086 l 165 1097 l 182 1097 b 199 1097 185 1100 199 1097 b 214 1094 214 1094 196 1094 b 258 1097 214 1094 231 1094 b 283 1100 269 1100 283 1100 b 322 1108 297 1100 294 1111 b 333 1108 326 1108 331 1108 l 329 1111 l 357 1108 b 375 1108 365 1110 371 1110 b 383 1107 383 1107 364 1115 l 419 1108 b 438 1106 429 1106 438 1106 b 442 1092 439 1101 440 1096 b 468 1067 446 1088 468 1074 b 479 1040 468 1060 482 1047 b 479 1024 479 1040 478 1033 l 479 1014 l 464 994 l 475 979 l 475 964 b 475 950 478 963 475 950 b 472 938 472 938 472 953 b 475 899 472 938 472 922 b 478 876 478 889 478 876 b 486 842 478 864 489 867 b 486 796 483 818 489 803 b 483 788 483 788 492 806 b 471 757 483 788 475 771 b 461 764 464 778 461 764 b 464 735 458 749 461 742 b 472 713 465 726 475 725 b 472 688 472 713 471 700 b 467 622 469 651 467 622 l 478 613 b 465 619 474 615 465 619 b 463 593 464 608 464 599 l 501 556 l 450 588 b 376 633 390 622 376 633 b 346 646 363 643 361 640 b 292 672 332 650 321 660 b 261 693 263 686 283 678 b 232 718 239 707 249 708 b 258 682 242 708 258 682 b 272 668 274 656 269 674 b 289 646 272 668 276 663 l 279 647 l 260 665 b 231 690 239 685 231 690 b 207 715 231 690 222 694 l 136 769 b 135 761 135 767 135 774 b 138 715 135 761 135 743 b 139 690 139 704 139 690 b 149 651 139 676 151 679 b 149 597 146 624 151 607 b 146 589 146 589 154 610 b 132 553 146 589 138 569 b 124 561 126 578 124 561 b 126 528 121 544 124 536 b 135 503 128 519 138 517 b 135 475 135 503 132 489 b 124 418 126 426 124 418 b 124 382 122 410 126 401 b 124 379 124 381 124 381 b 126 376 124 379 125 378 b 125 367 126 372 125 367 b 126 364 125 367 125 365 l 128 367 l 128 326 b 128 319 128 324 128 321 l 128 250 b 132 210 135 222 132 210 b 132 204 132 208 132 207 b 153 203 132 204 142 204 l 264 203 l 261 201 b 278 200 265 201 269 200 b 313 200 297 201 304 199 b 365 207 313 200 321 201 b 386 206 375 206 386 206 b 385 242 382 229 388 211 b 388 292 383 276 390 267 b 386 315 386 299 386 307 b 397 347 394 338 397 347 b 413 382 400 358 407 367 b 432 385 424 385 432 385 b 469 364 439 385 453 376 l 479 350 l 475 311 b 478 271 476 301 481 282 m 400 650 b 400 656 400 651 400 653 b 388 663 396 657 392 660 b 393 656 389 660 390 658 b 400 650 394 654 397 651 m 382 715 b 385 692 382 713 383 704 b 385 692 385 692 385 692 b 400 682 392 689 394 686 b 399 685 399 683 399 683 b 399 715 399 685 397 699 b 382 715 385 724 382 715 m 278 704 b 283 701 281 703 283 701 b 300 706 286 700 296 707 l 292 707 b 285 708 288 708 285 708 b 279 710 285 708 283 708 m 199 778 b 156 789 194 785 164 781 l 175 774 b 186 763 182 765 186 763 b 199 753 186 763 192 758 l 207 764 b 199 778 204 772 199 778 m 138 842 b 163 828 147 832 167 824 b 142 853 161 831 153 840 l 142 847 m 56 61 b 64 85 56 68 65 81 b 61 94 64 85 64 89 l 54 93 b 54 85 54 88 54 85 b 56 75 54 85 54 81 l 56 61 m 68 407 b 68 438 67 424 78 418 b 61 471 58 457 64 454 b 61 506 61 471 58 488 b 44 506 47 515 44 506 b 64 371 43 497 61 383 b 68 407 65 364 71 390 m 101 285 b 101 303 101 296 101 303 b 100 321 101 308 101 318 b 99 321 100 321 99 321 b 93 329 94 321 93 324 b 82 303 88 318 81 307 b 89 283 82 303 83 293 l 101 285 m 111 204 b 114 204 113 204 114 204 b 110 228 114 204 110 221 b 111 204 108 214 111 213 m 113 193 b 118 193 114 193 117 193 b 118 194 118 193 118 193 b 113 194 117 194 114 194 b 113 193 113 194 113 194 m 132 193 b 132 193 132 193 132 193 b 132 193 132 193 132 193 b 132 193 132 193 132 193 m 203 178 b 247 186 211 176 235 188 l 221 188 b 203 189 208 188 203 189 b 186 189 203 189 196 189 l 185 181 b 203 178 194 178 203 178 m 383 157 b 383 165 383 160 383 163 b 363 165 378 165 369 165 b 331 169 346 167 349 165 b 301 169 313 175 317 168 b 268 167 286 171 261 168 b 383 157 276 167 353 158 m 403 103 b 411 131 401 111 411 125 b 410 135 410 132 410 133 b 400 135 407 135 404 135 l 400 131 b 401 119 400 131 401 126 l 403 103 m 438 225 b 439 233 438 225 439 229 l 435 236 b 431 229 432 232 431 229 b 428 222 431 229 431 226 l 424 211 b 438 225 426 217 438 222 m 140 208 b 132 232 142 215 132 228 b 136 242 132 232 133 236 l 143 240 b 143 232 143 236 143 232 b 142 224 143 232 142 229 "},"3":{"ha":476,"x_min":0,"x_max":0,"o":"m 436 72 b 447 74 444 81 447 74 b 444 -31 450 67 446 -22 b 439 -4 444 -36 439 -17 b 436 19 439 8 432 4 b 439 46 442 35 439 32 b 436 72 439 46 439 58 m 431 -92 b 422 -118 431 -96 421 -111 l 421 -101 b 419 -92 421 -94 419 -92 b 419 -82 419 -92 419 -87 l 426 -81 b 431 -92 429 -86 431 -92 m 381 -126 b 383 -168 381 -142 383 -158 b 393 -237 383 -179 394 -231 b 378 -275 390 -246 381 -289 b 381 -89 376 -262 378 -165 b 381 -126 381 -78 381 -110 m 347 218 b 340 253 340 218 340 229 b 344 331 340 272 344 317 b 353 265 344 331 346 314 b 356 239 357 250 356 239 b 347 218 353 229 356 218 m 460 657 b 450 667 453 686 450 667 b 453 629 447 647 450 639 b 461 600 454 619 464 617 b 461 569 461 600 460 585 b 450 506 453 515 450 506 b 450 465 449 496 453 488 b 453 444 449 454 451 450 l 454 447 l 454 317 b 458 271 461 285 458 271 b 461 221 458 271 458 258 l 464 186 l 458 175 b 451 210 454 201 451 210 b 449 236 450 218 458 199 b 436 292 449 236 438 274 b 439 240 433 267 440 275 b 436 193 436 206 443 235 b 425 115 429 153 429 133 b 415 74 421 96 417 96 b 408 -40 415 74 417 51 l 401 -119 l 396 -40 b 389 74 388 51 389 74 b 388 85 388 78 388 82 b 371 -49 388 85 381 26 l 369 13 b 364 74 367 58 364 74 b 364 111 363 90 363 99 b 364 135 365 117 365 126 b 349 135 360 135 353 136 b 322 138 349 135 342 133 l 306 140 l 283 147 b 267 147 278 147 274 147 b 228 147 249 149 254 143 b 190 153 228 147 200 151 b 121 154 142 153 121 154 b 99 154 107 156 106 154 b 94 114 99 154 99 140 l 92 71 b 78 153 85 115 78 153 b 75 154 76 154 75 154 b 68 76 75 154 75 135 l 61 22 l 54 76 b 47 156 46 140 47 156 b 39 185 46 171 43 171 b 26 239 33 197 33 211 b 25 272 21 268 26 247 b 26 307 22 296 29 289 b 14 269 26 294 14 269 b 11 250 3 243 14 256 b 4 226 11 250 10 244 l 0 233 l 3 258 b 4 293 6 285 4 293 b 10 325 4 293 3 303 l 10 415 l 11 414 b 14 428 13 417 14 419 b 14 456 11 443 15 449 b 1 500 14 456 11 463 b 1 522 4 511 1 522 b 11 542 0 533 8 535 b 14 553 13 544 14 549 b 25 550 18 551 21 551 l 39 558 l 79 574 l 111 574 l 121 549 b 132 551 125 550 128 550 b 132 542 131 547 131 544 b 132 511 132 542 135 533 b 132 494 129 500 132 494 b 128 472 132 494 133 490 l 122 460 l 110 440 b 110 428 110 438 110 433 b 110 394 107 413 118 417 b 100 364 110 394 100 372 b 96 307 99 325 96 307 b 97 272 94 289 100 296 b 97 244 96 250 101 265 b 99 221 97 236 97 226 b 99 204 100 217 100 210 b 104 204 101 204 103 204 b 142 201 104 204 115 206 l 253 201 l 250 201 b 267 200 254 200 258 200 b 301 200 286 201 293 199 b 354 206 301 200 310 201 b 365 206 360 206 365 206 b 365 240 363 228 368 210 b 368 292 363 275 369 267 b 363 374 368 292 365 317 b 354 418 363 386 354 418 b 354 465 347 450 357 443 b 354 483 353 472 353 479 l 340 511 l 336 529 b 332 563 331 554 332 563 b 332 586 332 563 333 569 b 332 629 328 618 332 629 b 329 658 332 629 333 639 l 331 699 b 329 708 322 721 331 699 b 329 729 328 713 328 719 l 326 760 l 329 754 b 329 768 329 758 329 763 b 338 813 326 799 336 796 b 340 840 338 813 338 828 b 343 890 343 872 343 890 b 340 907 343 910 343 890 b 340 913 340 908 340 911 b 317 888 340 913 322 896 b 285 835 296 850 285 835 b 269 799 275 818 283 822 b 256 774 257 778 269 790 b 246 749 251 765 247 756 b 226 711 243 736 229 721 b 214 685 224 700 219 696 b 189 646 214 685 206 676 l 165 606 b 197 703 183 661 197 703 b 192 696 196 701 194 699 b 147 622 192 696 186 681 l 114 571 l 135 628 b 168 708 160 693 168 708 b 174 740 174 724 171 725 b 190 799 176 756 182 768 b 204 832 199 829 194 807 b 224 865 214 857 217 847 b 193 833 217 854 193 833 b 182 817 171 814 188 821 b 164 796 182 817 178 813 l 164 806 l 178 828 b 197 861 193 853 197 861 b 217 890 197 861 200 872 l 258 972 b 247 974 258 972 251 972 b 203 976 219 976 203 976 b 188 974 185 976 203 976 b 171 974 188 974 174 971 l 154 974 l 131 971 b 128 960 131 968 131 965 b 118 938 128 960 118 944 b 114 896 117 910 114 896 b 117 871 113 883 118 889 b 115 851 114 856 119 865 b 117 835 115 846 115 839 b 117 806 119 826 115 813 b 117 788 119 800 117 796 b 113 757 117 788 117 779 l 110 725 b 94 793 101 764 94 793 b 93 788 94 792 93 789 b 86 731 93 788 94 775 l 79 690 l 72 731 b 65 788 65 775 65 788 b 57 808 64 799 61 799 b 46 847 51 817 51 826 b 43 871 39 868 46 854 b 46 896 40 889 47 883 b 32 869 44 888 32 869 b 31 856 21 850 32 860 b 24 838 31 856 28 851 l 18 843 l 21 861 b 24 886 25 879 24 886 b 28 910 24 886 21 893 l 28 975 l 29 974 b 32 983 31 976 33 978 b 32 1000 29 992 32 996 b 26 1008 32 1000 29 1004 b 21 1035 19 1015 21 1031 b 19 1036 21 1035 21 1035 b 21 1038 21 1036 21 1038 b 21 1049 21 1040 21 1044 b 19 1051 21 1050 21 1050 b 26 1064 18 1058 24 1060 b 29 1067 28 1064 28 1065 b 32 1074 31 1069 32 1071 b 35 1074 33 1074 35 1074 b 54 1090 42 1081 50 1090 b 85 1101 63 1090 76 1104 b 104 1101 85 1101 93 1099 l 115 1101 l 138 1085 l 154 1097 l 171 1097 b 188 1097 174 1099 188 1097 b 203 1094 203 1094 185 1093 b 247 1097 203 1094 219 1094 b 272 1099 258 1099 272 1099 b 311 1108 286 1099 283 1111 b 322 1107 315 1108 319 1108 l 318 1111 l 332 1110 b 333 1111 332 1110 333 1111 b 335 1110 333 1111 335 1110 l 346 1108 b 364 1108 354 1108 360 1110 b 372 1106 372 1106 353 1115 l 408 1108 b 426 1106 418 1106 426 1106 b 431 1089 428 1100 429 1094 b 457 1058 438 1083 457 1067 b 468 1024 457 1049 471 1033 b 468 1001 468 1024 465 1014 l 468 989 l 453 964 l 464 944 l 464 925 b 464 907 465 922 464 907 b 461 890 461 890 461 910 b 464 840 461 890 461 872 b 465 813 465 828 465 813 b 475 768 467 796 478 799 b 475 708 472 736 478 717 b 472 699 472 699 481 721 b 460 657 472 699 464 676 m 67 928 b 74 939 71 933 74 939 b 56 965 75 943 54 958 l 54 949 b 53 939 53 942 53 939 b 53 929 53 939 53 935 m 64 863 b 78 856 64 861 75 858 l 72 861 b 69 865 71 864 69 865 b 67 868 69 865 68 867 l 63 867 b 64 863 63 865 64 863 m 100 815 b 100 821 100 815 100 817 l 94 821 b 90 815 92 818 90 815 b 99 801 90 813 100 806 l 100 810 b 100 815 100 814 100 815 m 218 731 b 222 738 218 731 219 733 l 215 740 b 210 735 211 738 210 735 b 207 714 207 732 211 718 l 214 724 b 218 731 217 728 218 731 m 217 813 b 225 796 217 810 225 801 l 225 806 b 225 813 225 810 225 813 b 224 818 225 813 225 814 l 219 818 b 217 813 218 815 217 813 m 278 910 b 281 953 282 915 274 943 l 268 932 b 260 918 263 924 260 918 b 253 906 260 918 257 914 l 264 899 b 278 910 272 904 278 910 m 319 954 b 326 963 321 956 324 958 b 321 963 325 963 322 963 b 319 954 318 956 318 951 m 49 350 b 56 365 53 358 56 365 b 38 403 57 372 36 392 l 36 379 b 35 365 35 371 35 365 b 35 351 35 365 35 360 m 44 261 b 60 251 46 258 57 256 l 54 258 b 51 264 53 263 51 264 b 49 268 51 264 50 265 l 44 267 b 44 261 44 264 44 261 m 82 199 b 75 200 81 199 78 199 b 74 200 75 200 75 200 b 72 194 74 199 72 197 b 72 193 72 194 72 194 b 79 193 74 193 76 193 b 82 194 81 193 81 194 b 82 194 82 194 82 194 m 74 419 b 92 525 75 428 94 517 b 75 525 92 525 89 532 b 75 497 78 510 75 497 b 68 471 74 483 78 486 b 68 447 58 456 71 460 b 74 419 67 433 72 414 m 99 193 b 121 193 106 193 107 192 b 99 196 114 193 99 196 b 99 193 99 194 99 194 m 192 176 b 236 186 200 176 224 188 l 210 188 b 192 189 197 188 192 189 b 175 189 192 189 185 189 l 174 181 b 192 176 183 178 192 176 m 364 157 b 364 165 364 160 364 163 b 351 165 360 165 356 165 b 319 169 335 167 338 164 b 290 169 301 175 306 168 b 257 167 275 171 250 168 b 364 157 265 167 329 160 m 382 103 b 390 131 382 111 392 125 b 390 135 390 132 390 133 b 381 135 388 135 383 135 l 381 131 b 382 119 381 131 382 126 l 382 103 m 394 493 b 394 528 393 511 404 506 b 388 564 386 549 390 546 b 388 604 388 564 386 583 b 371 604 374 615 371 604 b 390 453 369 594 388 465 b 394 493 392 444 397 474 m 418 225 b 419 233 418 225 419 229 l 415 236 b 411 229 413 232 411 229 b 408 222 411 229 411 226 l 404 211 b 418 225 406 217 417 222 m 429 356 b 429 375 429 367 429 375 b 426 396 429 375 428 382 l 425 429 b 408 375 426 414 407 385 b 415 354 408 375 410 365 l 429 356 m 344 331 b 346 335 344 333 346 335 b 344 331 346 333 344 331 m 129 208 b 121 232 131 215 121 228 b 125 242 121 232 122 236 l 132 240 b 132 232 132 235 132 232 b 131 222 132 232 131 229 m 104 378 b 115 376 104 378 107 385 b 113 353 113 364 113 353 b 115 329 114 342 110 343 b 113 308 119 317 113 321 b 107 285 113 297 107 281 b 104 378 106 293 103 372 "},"4":{"ha":451,"x_min":0,"x_max":0,"o":"m 338 49 b 340 22 339 36 335 38 b 338 -1 346 7 338 11 b 332 -28 338 -14 332 -35 b 329 78 331 -19 326 71 b 340 76 329 78 332 85 b 338 49 338 61 338 49 m 346 -89 b 350 -79 346 -89 347 -85 l 357 -79 b 357 -89 357 -86 357 -89 b 356 -100 357 -89 356 -93 l 356 -117 b 346 -89 356 -108 346 -94 m 396 -125 b 396 -86 396 -108 396 -75 b 399 -275 399 -165 401 -261 b 385 -237 396 -289 388 -246 b 394 -168 382 -229 394 -178 b 396 -125 394 -157 396 -140 m 449 718 b 446 708 446 708 456 731 l 449 668 b 446 638 444 649 446 638 b 446 594 446 638 450 628 b 446 571 444 579 446 571 b 442 539 446 571 447 563 l 438 519 l 424 492 b 424 472 424 486 424 481 b 424 425 421 450 433 457 b 414 382 417 400 415 388 b 431 369 419 379 425 375 l 442 357 l 436 318 b 440 276 439 308 442 288 b 443 226 440 276 440 264 l 444 190 l 440 181 b 433 215 436 207 433 215 b 435 228 432 222 439 210 b 429 224 433 225 432 224 b 422 244 422 224 425 233 b 424 267 421 251 422 261 b 418 297 424 267 418 288 b 419 246 415 272 422 282 b 418 199 418 211 425 240 b 414 169 415 188 414 178 b 413 115 415 153 411 128 b 413 78 415 101 414 94 b 408 15 413 78 410 61 l 406 -46 b 394 47 400 0 394 47 b 390 -37 394 47 394 13 l 383 -117 l 379 -69 l 375 -117 l 368 -37 b 364 47 364 13 364 47 b 353 -46 364 47 358 0 l 350 15 b 344 78 349 61 344 78 b 344 115 344 94 343 101 b 344 169 347 128 343 153 b 340 199 343 178 342 188 b 338 246 333 240 340 211 b 338 269 338 258 338 265 b 335 269 338 269 336 269 b 328 242 333 263 331 253 b 325 215 315 204 326 224 b 318 181 325 215 322 207 l 313 190 l 315 226 b 318 269 317 253 318 269 b 293 272 318 269 310 269 l 278 275 l 254 282 b 238 282 250 282 244 282 b 197 282 219 283 225 278 b 171 286 186 285 176 286 b 169 251 171 268 171 256 b 156 288 168 239 158 276 b 114 289 147 288 129 289 l 111 279 l 106 276 b 106 289 106 283 106 289 b 90 290 100 289 94 290 b 86 290 89 290 88 290 b 72 269 81 281 76 274 b 61 257 67 264 64 265 b 42 217 61 257 58 249 l 28 192 l 33 225 b 43 272 40 263 43 272 b 44 278 44 275 44 276 b 19 235 44 278 33 258 l 25 258 b 29 286 28 279 29 286 b 29 289 29 286 29 288 b 26 288 29 289 28 288 b 24 311 26 296 25 303 l 32 313 b 38 314 35 314 38 314 b 39 318 38 315 38 317 b 35 318 38 318 36 318 b 24 311 32 318 28 313 b 19 329 24 317 22 324 b 43 329 35 331 25 329 b 44 335 43 331 44 333 b 44 335 44 335 44 335 b 22 336 13 342 28 335 b 17 338 21 336 19 338 b 15 343 17 339 17 340 l 31 342 b 47 340 38 342 47 340 b 47 340 47 340 47 340 b 51 360 49 357 49 343 b 61 385 56 378 58 371 b 71 431 61 385 63 399 b 71 461 72 438 71 461 b 79 489 72 483 78 475 b 82 501 81 494 81 499 l 78 525 l 76 540 b 79 564 76 560 79 564 b 83 581 79 564 82 568 b 92 611 88 604 92 611 b 96 635 92 611 96 618 l 107 667 b 107 675 103 689 107 667 b 111 693 107 679 108 685 l 115 721 l 117 715 b 119 728 118 719 119 722 b 140 765 125 757 135 750 b 150 793 140 765 144 781 b 167 844 161 825 167 844 b 169 863 174 865 167 844 b 175 885 169 863 171 882 l 181 907 l 182 907 b 186 940 183 921 186 935 b 189 983 186 950 189 967 b 189 1021 189 999 189 1032 b 190 963 189 1001 190 982 l 194 978 b 201 1007 201 993 201 1007 b 229 1054 203 1019 226 1040 b 282 1100 229 1054 233 1068 b 328 1110 282 1100 300 1115 b 356 1108 343 1113 356 1108 b 375 1110 356 1108 364 1113 b 403 1104 393 1114 403 1104 b 431 1072 431 1082 431 1072 b 442 1038 431 1063 444 1047 b 442 1015 442 1038 440 1028 l 442 1001 l 426 976 l 438 957 l 438 939 b 438 919 440 935 438 919 b 435 903 435 903 435 922 b 438 853 435 903 435 883 b 440 824 440 839 440 824 b 449 779 440 807 451 811 b 449 765 449 774 449 769 l 451 769 l 449 739 b 449 718 450 731 450 722 m 44 288 b 44 289 44 289 44 289 b 44 289 44 289 44 289 l 44 288 m 79 328 b 86 328 81 328 83 328 l 86 328 b 81 329 85 329 83 329 b 79 328 81 329 79 328 m 190 960 b 192 918 190 944 192 931 l 200 926 m 121 576 b 106 464 117 569 106 474 b 117 486 104 457 115 474 b 125 510 119 500 128 490 b 126 539 121 529 125 525 b 136 568 126 539 129 554 b 121 576 125 583 121 576 m 108 339 b 110 346 108 339 110 344 b 107 339 108 343 107 340 b 108 339 108 339 108 339 m 121 396 b 124 410 121 396 122 400 l 129 429 b 104 407 126 419 106 414 b 106 392 104 407 104 401 l 117 386 b 121 396 119 392 121 396 m 157 313 b 160 324 158 317 158 321 b 146 324 160 324 153 324 l 144 317 b 157 313 150 314 157 313 m 171 314 b 207 322 181 317 197 322 l 179 322 b 171 324 175 324 171 324 b 171 314 171 319 171 317 m 318 294 b 319 301 318 296 318 299 b 292 306 307 301 307 300 b 261 306 274 310 278 304 b 228 303 246 307 221 303 b 318 294 235 301 282 297 m 324 639 b 326 676 326 649 329 657 b 317 667 326 676 324 696 b 303 708 313 686 303 708 b 301 718 296 732 303 708 b 301 772 299 726 303 744 b 294 749 301 772 297 758 b 285 717 292 733 285 717 b 279 667 279 700 294 699 b 256 610 264 638 263 617 b 250 603 250 603 268 618 b 221 574 250 603 232 588 b 214 588 222 601 214 588 b 204 554 206 572 204 564 b 206 528 204 546 213 539 b 196 504 206 528 199 517 b 168 465 172 471 168 465 b 158 439 164 461 165 451 b 156 425 154 432 156 428 l 157 425 l 129 350 b 128 338 128 344 128 338 l 161 338 b 165 360 164 347 165 356 b 167 403 165 371 167 386 b 167 440 167 419 167 451 b 169 338 168 407 169 369 l 224 338 l 221 338 b 238 336 225 336 229 335 b 274 336 257 338 265 335 b 322 342 279 336 311 340 l 322 456 l 324 453 b 326 472 325 457 328 461 b 326 514 324 494 328 504 b 315 578 326 514 324 524 b 315 610 317 594 315 610 b 324 639 313 626 322 629 m 340 293 b 340 293 340 293 340 293 b 340 297 340 294 340 296 b 340 293 340 296 340 293 m 368 382 b 351 436 371 392 350 421 l 350 403 b 349 382 349 389 349 382 b 349 363 349 382 349 374 l 361 361 b 365 369 363 364 364 367 b 368 382 367 372 368 378 m 388 460 b 406 614 389 474 408 603 b 389 614 406 614 404 625 b 389 574 392 592 389 574 b 382 536 388 554 392 557 b 382 500 372 514 385 519 b 388 460 379 482 385 451 m 51 417 b 53 418 51 418 51 418 b 51 417 51 418 51 417 m 0 154 b 19 214 0 160 11 189 b 15 201 21 218 18 207 b 13 186 14 196 14 189 b 11 158 11 182 13 160 b 0 154 8 157 0 150 m 38 358 b 38 379 33 361 35 367 b 51 417 40 389 49 410 b 47 379 51 417 49 407 b 44 365 47 369 44 365 b 38 358 42 361 42 354 m 47 192 b 47 186 47 188 47 186 b 39 182 47 183 40 185 l 40 188 b 42 192 42 190 42 192 b 43 196 42 192 42 193 m 74 244 b 81 239 81 243 81 239 b 64 200 81 235 65 203 b 64 213 63 197 63 208 b 65 224 67 218 61 221 b 71 232 71 226 69 228 b 74 244 71 232 74 238 m 418 76 b 429 78 426 85 429 78 b 426 -28 431 71 426 -19 b 421 -1 426 -35 419 -14 b 418 22 421 11 413 7 b 421 49 424 38 419 36 b 418 76 421 49 421 61 "},"5":{"ha":501,"x_min":0,"x_max":0,"o":"m 475 206 b 483 263 483 249 483 263 b 488 193 485 250 488 211 b 481 163 488 172 488 163 b 474 182 474 163 475 172 b 475 206 474 182 471 192 m 447 -143 b 447 -110 447 -129 447 -100 b 450 -275 450 -178 451 -264 b 435 -242 447 -287 438 -250 b 444 -181 433 -235 444 -190 b 447 -143 444 -171 447 -157 m 397 -112 b 401 -103 397 -112 399 -108 l 408 -104 b 408 -112 408 -108 408 -112 b 407 -121 408 -112 407 -115 l 406 -136 b 397 -112 407 -129 397 -117 m 389 10 b 392 -14 390 -3 386 0 b 389 -35 396 -28 389 -24 b 383 -58 389 -46 383 -64 b 381 35 382 -50 379 28 b 392 33 381 35 383 40 b 389 10 389 21 389 10 m 499 597 b 497 589 497 589 506 610 l 499 554 b 497 528 494 538 497 528 b 497 489 497 528 500 518 b 497 468 494 475 497 468 b 492 440 497 468 499 461 l 488 424 l 475 399 b 474 382 475 394 475 389 b 474 340 472 363 481 368 b 465 301 474 340 465 313 b 460 228 463 250 460 228 b 463 183 458 206 465 214 b 461 149 461 154 467 174 b 464 118 463 138 463 125 b 464 68 467 104 461 79 b 464 35 467 56 465 49 b 458 -19 464 35 461 21 l 457 -74 b 442 44 447 -7 442 44 b 440 35 440 42 440 39 b 433 -67 440 35 440 14 l 426 -136 l 419 -67 b 413 35 411 14 413 35 b 403 71 411 54 408 54 b 392 140 399 88 399 104 b 389 154 390 147 390 151 b 376 156 385 154 383 156 b 369 125 376 156 374 147 l 365 135 l 367 154 b 300 153 367 154 344 153 b 263 147 290 153 263 147 b 224 147 236 143 242 149 b 207 147 217 147 213 147 l 185 140 l 168 138 b 142 135 149 135 142 135 b 122 135 142 135 135 136 b 117 135 119 135 117 135 b 118 111 117 126 117 117 b 118 74 119 99 118 90 b 113 13 118 74 114 58 l 110 -49 b 94 85 101 26 94 85 b 93 74 94 82 93 78 b 86 -40 93 74 94 51 l 79 -119 l 72 -40 b 67 74 65 51 67 74 b 57 115 65 96 61 96 b 46 193 53 133 53 153 b 43 242 39 235 46 207 b 46 292 40 276 47 267 b 32 238 44 274 32 238 b 31 210 24 199 32 218 b 24 175 31 210 28 203 l 18 186 l 21 221 b 24 271 24 258 24 271 b 26 311 21 282 25 301 l 22 350 l 32 364 b 69 385 49 376 63 385 b 89 382 69 385 78 385 b 104 347 94 367 101 358 b 115 315 104 347 107 338 b 114 292 115 307 115 299 b 117 242 111 267 118 276 b 117 206 114 211 119 229 b 136 207 117 206 126 206 b 189 200 181 201 189 200 b 224 200 197 199 204 201 b 240 201 232 200 236 201 l 238 203 l 349 203 b 369 204 360 204 369 204 b 369 210 369 207 369 208 b 374 250 369 210 367 222 l 374 319 b 374 326 374 321 374 324 l 374 367 l 375 364 b 376 367 376 365 376 367 b 375 376 376 367 375 372 b 378 379 376 378 378 379 b 378 382 378 381 378 381 b 378 418 376 401 379 410 b 367 475 378 418 376 426 b 367 503 369 489 367 503 b 376 528 364 517 374 519 b 378 561 378 536 381 544 b 369 553 378 561 376 578 b 356 589 364 569 356 589 b 353 597 347 610 356 589 b 353 651 350 607 356 624 b 363 690 350 679 363 676 b 364 715 363 690 363 704 b 367 761 367 743 367 761 b 365 769 367 774 367 767 l 294 715 b 271 690 279 694 271 690 b 242 665 271 690 263 685 l 222 647 l 213 646 b 229 668 225 663 229 668 b 243 682 232 674 228 656 b 269 718 243 682 260 708 b 240 693 253 708 263 707 b 210 672 218 678 239 686 b 156 646 181 660 169 650 b 125 633 140 640 139 643 b 51 588 125 633 113 622 l 0 556 l 39 593 b 36 619 38 599 38 608 b 24 613 36 619 28 615 l 35 622 b 29 688 35 622 32 651 b 29 713 31 700 29 713 b 38 735 26 725 36 726 b 40 764 40 742 43 749 b 31 757 40 764 38 778 b 18 788 26 771 18 788 b 15 796 10 806 18 788 b 15 842 13 803 18 818 b 24 876 13 867 24 864 b 26 899 24 876 24 889 b 29 938 29 922 29 938 b 26 950 29 953 29 938 b 26 964 26 950 24 963 l 26 979 l 38 994 l 22 1014 l 22 1024 b 22 1040 24 1033 22 1040 b 33 1067 19 1047 33 1060 b 60 1092 33 1074 56 1088 b 64 1106 61 1096 63 1101 b 82 1108 64 1106 72 1106 l 118 1107 b 126 1108 138 1115 118 1107 b 144 1108 131 1110 136 1110 l 172 1111 l 168 1108 b 179 1108 171 1108 175 1108 b 218 1100 207 1111 204 1100 b 243 1097 218 1100 232 1100 b 289 1094 271 1094 289 1094 b 303 1097 306 1094 289 1094 b 319 1097 303 1097 317 1100 l 336 1097 l 353 1086 l 375 1101 l 386 1101 b 406 1101 397 1100 406 1101 b 436 1090 414 1104 428 1090 b 464 1063 436 1090 444 1090 b 469 1036 464 1063 474 1054 b 464 1008 474 1018 464 1008 b 436 981 444 981 436 981 b 406 969 428 981 414 967 b 386 969 406 969 397 972 l 375 969 l 336 974 l 319 974 b 303 974 317 972 303 974 b 289 976 289 976 306 978 b 243 974 289 976 271 976 b 218 972 232 972 218 972 b 179 963 204 972 207 960 b 150 963 168 964 158 964 b 150 950 151 961 151 957 b 147 938 147 938 147 953 b 150 899 147 938 147 922 b 153 876 153 889 153 876 b 161 842 153 864 164 867 b 161 832 161 839 161 835 l 164 835 l 161 813 b 161 796 163 804 163 799 b 160 788 160 788 168 806 l 161 757 b 158 733 157 742 158 733 b 160 724 160 732 160 728 b 172 732 164 726 168 729 b 196 751 188 749 178 735 b 228 772 215 768 213 760 b 275 814 228 772 242 786 b 296 842 282 819 296 842 b 324 863 310 863 313 851 b 335 872 328 867 332 869 l 344 894 l 353 907 b 369 925 364 924 369 925 b 374 928 371 926 372 926 l 379 953 l 404 953 b 410 957 406 954 408 956 b 418 963 413 957 415 960 b 422 951 419 960 421 956 b 426 944 424 950 425 947 l 428 943 b 453 938 433 943 446 943 b 481 910 481 918 481 910 b 492 878 481 900 494 886 b 492 858 492 878 490 869 l 492 847 l 476 825 l 488 808 l 488 792 b 488 775 490 789 488 775 b 485 761 485 761 485 778 b 488 715 485 761 485 743 b 490 690 490 704 490 690 b 499 651 490 676 501 679 b 499 639 499 647 499 643 l 501 643 l 499 617 b 499 597 500 608 500 601 m 108 656 b 114 663 111 658 113 660 b 101 656 110 660 106 657 b 101 650 101 653 101 651 b 108 656 104 651 107 654 m 117 692 b 119 715 118 704 119 713 b 103 715 119 715 117 724 b 103 685 104 699 103 685 b 103 682 103 683 103 683 b 117 692 107 686 110 689 b 117 692 117 692 117 692 m 218 701 b 224 704 218 701 221 703 l 222 710 b 217 708 219 708 217 708 b 210 707 217 708 214 708 l 201 706 b 218 701 206 707 215 700 m 346 789 b 303 778 338 781 307 785 b 294 764 303 778 299 772 l 303 753 b 315 763 310 758 315 763 b 326 774 315 763 319 765 m 339 828 b 364 842 335 824 354 832 l 360 847 l 360 853 b 339 828 349 840 340 831 m 64 225 b 78 211 64 222 76 217 l 74 222 b 71 229 71 226 71 229 b 67 236 71 229 69 232 l 63 233 b 64 225 63 229 64 225 m 101 135 b 92 135 97 135 94 135 b 90 131 92 133 92 132 b 99 103 90 125 100 111 l 100 119 b 101 131 100 126 101 131 m 233 167 b 200 169 240 168 215 171 b 171 169 185 168 189 175 b 139 165 153 165 156 167 b 118 165 132 165 124 165 b 118 157 118 163 118 160 b 233 167 149 158 225 167 m 299 178 b 317 181 299 178 307 178 l 315 189 b 299 189 306 189 299 189 b 281 188 299 189 293 188 l 254 186 b 299 178 267 188 290 176 m 369 193 b 369 193 369 193 369 193 b 369 193 369 193 369 193 b 369 193 369 193 369 193 m 383 193 b 389 193 385 193 388 193 b 389 194 389 194 389 194 b 383 194 388 194 385 194 b 383 193 383 193 383 193 m 390 204 b 392 228 390 213 393 214 b 388 204 392 221 388 204 b 390 204 388 204 389 204 m 419 303 b 408 329 421 307 414 318 b 403 321 408 324 407 321 b 401 321 403 321 401 321 b 400 303 400 318 400 308 b 400 285 400 303 400 296 l 413 283 b 419 303 418 293 419 303 m 447 85 b 447 93 447 85 447 88 l 440 94 b 438 85 438 89 438 85 b 446 61 436 81 446 68 l 446 75 b 447 85 447 81 447 85 m 438 371 b 457 506 440 383 458 497 b 440 506 457 506 454 515 b 440 471 443 488 440 471 b 433 438 438 454 443 457 b 433 407 424 418 435 424 b 438 371 431 390 436 364 m 483 263 b 482 267 483 263 483 265 b 483 263 483 267 483 265 m 133 218 b 126 239 126 218 129 229 b 129 267 126 239 125 250 b 136 317 133 296 136 317 b 138 317 136 317 138 317 b 142 253 139 297 142 268 b 133 218 142 229 142 218 m 369 232 b 361 208 369 228 360 215 l 360 224 b 358 232 360 229 358 232 b 358 240 358 232 358 236 l 365 242 b 369 232 368 236 369 232 "},"6":{"ha":506,"x_min":0,"x_max":0,"o":"m 39 46 b 40 19 39 32 36 35 b 38 -4 46 4 38 8 b 32 -31 39 -17 33 -36 b 31 74 32 -22 28 67 b 42 72 31 74 32 81 b 39 46 38 58 39 46 m 96 -126 b 96 -89 96 -110 96 -78 b 99 -275 99 -165 101 -262 b 85 -237 96 -289 86 -246 b 94 -168 82 -231 94 -179 b 96 -126 94 -158 96 -142 m 47 -92 b 50 -81 47 -92 47 -86 l 57 -82 b 57 -92 57 -87 57 -92 b 56 -101 57 -92 57 -94 l 56 -118 b 47 -92 56 -110 46 -96 m 132 331 b 132 336 132 331 132 333 b 132 331 132 335 132 333 m 125 267 b 132 331 132 314 132 331 b 136 253 133 317 136 272 b 129 218 136 229 136 218 b 122 239 122 218 125 229 b 125 267 122 239 119 250 m 324 276 b 324 279 324 278 324 279 b 324 276 324 278 324 276 m 408 3 b 400 -15 410 0 399 -10 l 399 -4 b 399 3 399 0 399 3 b 399 8 399 3 399 6 l 406 10 b 408 3 407 6 408 3 m 358 -19 b 361 -47 358 -31 361 -40 b 371 -92 361 -54 372 -87 b 357 -117 368 -97 358 -125 b 358 4 354 -108 357 -46 b 358 -19 360 11 358 -10 m 414 108 b 425 110 422 114 425 110 b 422 42 428 106 424 47 b 417 60 422 38 417 51 b 414 75 417 68 410 64 b 417 92 419 85 417 83 b 414 108 417 92 417 100 m 289 704 b 288 704 289 704 288 704 b 289 704 288 704 289 704 m 439 767 b 449 760 440 767 446 760 l 443 760 b 439 758 440 758 439 758 b 436 758 439 758 438 758 l 435 764 b 439 767 438 765 439 767 m 492 739 b 504 728 494 738 510 731 b 446 729 500 726 472 728 b 446 725 446 728 447 726 b 446 711 446 725 444 719 l 446 703 l 442 675 l 442 663 b 442 650 444 660 442 650 b 439 640 439 640 439 651 b 442 607 439 640 439 628 b 444 589 444 599 444 589 b 453 560 444 578 456 581 b 453 521 451 539 456 528 b 451 515 451 515 460 529 b 438 489 451 515 442 500 b 428 494 431 507 428 494 b 431 469 425 482 428 476 b 439 451 432 464 442 461 b 439 431 439 451 438 442 b 428 390 431 396 428 390 b 428 364 426 383 431 378 b 431 350 426 357 429 354 l 432 351 l 432 267 b 436 238 439 246 436 238 b 439 206 436 238 435 229 l 442 182 l 436 175 b 429 199 432 193 429 199 b 428 215 428 203 439 192 b 414 251 428 215 415 240 b 417 218 413 235 419 240 b 414 188 414 196 421 214 b 403 136 407 161 407 149 b 393 110 399 124 394 124 b 388 36 393 110 394 94 l 381 -15 l 374 36 b 367 110 365 94 367 110 b 365 117 367 113 365 115 b 350 31 365 117 358 79 l 347 71 b 342 110 342 100 342 110 b 342 135 342 121 340 125 b 342 153 343 139 343 146 b 317 156 329 154 332 156 b 260 153 317 156 299 153 b 229 147 251 153 229 147 b 196 147 207 143 211 149 b 182 147 190 147 186 147 l 164 140 l 150 138 b 128 135 133 135 128 135 b 113 135 124 136 115 135 b 113 111 113 126 111 118 b 113 74 115 99 114 90 b 108 13 113 74 110 58 l 106 -49 b 90 85 96 26 90 85 b 89 74 90 82 89 78 b 82 -40 89 74 90 51 l 75 -119 l 68 -40 b 61 74 60 51 61 74 b 53 115 60 96 57 96 b 40 193 47 133 47 153 b 39 242 33 235 40 207 b 40 292 36 276 43 267 b 28 238 40 274 28 238 b 25 210 19 199 28 218 b 18 175 25 210 24 203 l 14 186 l 17 221 b 18 271 18 258 18 271 b 24 317 18 271 17 285 l 24 447 l 25 446 b 26 465 26 450 28 454 b 26 506 25 488 29 497 b 15 569 26 506 25 515 b 15 601 18 585 15 601 b 25 629 14 617 22 619 b 26 667 26 639 29 649 b 18 658 26 667 25 686 b 4 699 14 676 4 699 b 1 708 -3 721 4 699 b 1 768 0 718 4 736 b 11 813 0 800 10 797 b 14 840 11 813 11 828 b 15 892 15 872 15 892 b 14 907 17 910 15 892 b 14 926 14 907 11 922 l 14 944 l 25 964 l 8 989 l 8 1001 b 8 1024 11 1014 8 1024 b 21 1058 7 1033 21 1049 b 46 1089 21 1067 40 1083 b 50 1106 47 1094 49 1100 b 69 1108 50 1106 60 1106 l 104 1107 b 113 1108 124 1115 104 1107 b 132 1108 117 1110 124 1110 l 158 1111 l 154 1108 b 167 1108 158 1108 163 1108 b 206 1100 194 1111 192 1100 b 231 1097 206 1100 219 1100 b 275 1094 258 1094 275 1094 b 289 1097 292 1094 275 1094 b 306 1097 289 1097 303 1100 l 322 1097 l 339 1086 l 361 1101 l 372 1101 b 392 1101 383 1100 392 1101 b 422 1090 400 1104 414 1090 b 451 1063 422 1090 431 1090 b 457 1036 451 1063 460 1054 b 451 1008 460 1018 451 1008 b 422 981 431 981 422 981 b 392 969 414 981 400 967 b 372 969 392 969 383 972 l 361 969 l 322 974 l 306 974 b 289 974 303 972 289 974 b 275 976 275 976 292 978 b 231 974 275 976 258 976 b 206 972 219 972 206 972 b 167 963 192 972 194 960 b 126 963 149 964 136 963 l 136 944 l 136 926 b 136 907 139 922 136 907 b 135 892 135 892 133 910 b 136 840 135 892 135 872 b 139 813 139 828 139 813 b 143 799 139 806 140 803 b 156 800 149 799 153 800 b 158 797 158 797 150 804 b 172 788 158 797 167 790 b 169 781 163 782 169 781 b 183 782 176 779 179 781 b 193 789 186 785 188 790 b 204 789 193 789 199 788 b 226 781 224 782 226 781 b 242 781 231 779 233 782 b 249 783 246 781 247 782 l 247 783 l 294 783 b 310 788 306 789 310 788 b 328 789 310 788 315 786 l 340 790 l 344 788 b 332 782 335 783 332 782 b 322 781 329 781 336 789 b 303 771 322 781 310 772 b 321 772 313 769 308 774 b 338 771 333 771 324 776 b 350 767 343 769 346 768 b 353 768 350 767 351 768 b 381 772 361 775 381 772 b 381 779 379 775 379 778 b 418 776 383 781 414 778 b 408 772 419 776 413 772 b 404 771 406 772 406 771 b 407 768 406 769 407 769 b 435 749 435 754 435 749 l 449 746 l 436 743 b 446 731 439 739 444 735 b 451 731 447 731 450 731 b 467 732 457 731 463 732 b 492 739 471 732 489 740 m 63 354 b 68 375 67 365 68 375 b 51 429 71 385 50 414 l 50 396 b 49 375 50 383 49 375 b 49 356 49 375 49 368 m 58 225 b 72 211 60 222 71 217 l 68 222 b 65 229 67 226 65 229 b 63 236 65 229 64 232 l 57 233 b 58 225 58 229 58 225 m 96 135 b 88 135 93 135 90 135 b 86 131 86 133 86 132 b 94 103 85 125 96 111 l 96 119 b 96 131 96 126 96 131 m 86 453 b 106 606 89 467 108 594 b 89 606 106 606 103 615 b 89 565 92 583 89 565 b 82 528 86 546 92 549 b 82 493 72 506 85 511 b 86 453 79 474 85 444 m 322 756 b 325 753 324 754 325 753 b 326 751 325 753 326 751 b 329 753 328 751 328 753 b 326 757 328 756 326 757 b 324 758 326 757 325 758 m 254 763 b 274 750 260 764 269 749 b 281 756 274 750 276 751 l 281 765 b 274 765 276 765 274 765 b 265 764 274 765 271 765 m 192 735 b 192 724 188 725 192 724 b 246 738 196 721 240 735 b 232 740 249 738 238 742 b 219 740 225 739 226 747 b 206 735 211 733 213 738 b 192 735 206 735 199 733 m 204 167 b 176 169 210 168 189 171 b 153 169 164 168 167 175 b 126 165 138 165 139 167 b 113 165 122 165 117 165 b 114 157 114 163 114 160 b 204 167 142 160 197 167 m 258 178 b 274 181 258 178 265 178 l 272 189 b 258 189 264 189 258 189 b 244 188 258 189 253 188 l 221 186 b 258 178 232 188 251 176 m 317 193 b 344 194 332 192 329 194 b 343 197 344 196 343 196 b 317 193 343 197 325 193 m 343 218 b 346 251 342 240 347 235 b 342 304 346 251 343 267 b 332 333 340 313 332 333 b 332 364 322 353 335 349 b 332 375 331 368 331 372 l 318 393 l 314 406 b 310 426 308 421 310 426 b 310 442 310 426 311 432 b 310 469 307 463 310 469 b 307 489 310 469 311 476 l 310 515 b 307 521 300 529 310 515 b 307 535 306 524 307 529 l 304 554 l 307 551 b 307 560 307 554 307 557 b 317 589 304 581 317 578 b 318 607 317 589 317 599 b 321 640 321 628 321 640 b 318 650 321 651 321 640 b 318 663 318 650 317 660 l 318 675 l 329 686 l 317 700 b 289 704 308 701 294 703 b 313 710 289 704 294 704 b 314 710 313 710 314 710 l 314 711 b 315 718 315 714 315 718 b 303 721 310 719 310 721 b 274 717 303 721 294 718 b 258 710 269 717 258 710 b 242 710 247 704 249 713 b 235 710 239 710 236 710 l 225 700 l 218 697 b 207 693 210 693 207 693 b 199 693 207 693 204 696 b 183 693 188 692 183 693 b 172 692 183 693 179 696 l 158 693 b 156 692 150 688 158 693 b 147 692 153 692 151 692 l 146 692 l 149 658 b 146 629 143 639 146 629 b 146 586 146 629 149 618 b 146 563 144 569 146 563 b 142 531 146 563 147 554 l 136 511 l 124 483 b 124 465 124 479 124 472 b 124 418 121 443 129 450 b 114 374 124 418 114 386 b 110 292 113 317 110 292 b 111 242 108 267 114 276 b 111 206 110 211 114 229 b 124 207 111 206 118 206 b 167 200 161 201 167 200 b 196 200 174 199 181 201 b 210 201 203 200 206 201 l 208 203 l 299 203 b 321 206 311 204 321 206 b 318 226 318 208 318 214 b 324 276 318 239 322 267 b 331 235 324 276 324 265 b 333 217 335 224 333 217 b 331 206 331 213 332 207 b 331 206 331 206 331 206 b 343 204 333 204 338 204 b 343 218 343 206 344 207 m 361 129 b 369 146 360 133 369 143 b 365 153 369 146 368 150 l 358 153 b 358 146 358 149 358 146 b 360 139 358 146 358 144 l 361 129 m 372 382 b 372 404 371 393 382 390 b 365 428 364 418 368 415 b 365 454 365 428 364 440 b 350 454 351 461 350 454 b 368 356 347 447 365 364 b 372 382 369 350 375 369 m 397 772 b 393 772 396 774 394 774 b 397 772 394 772 396 772 m 396 208 b 397 214 396 208 397 210 l 393 215 b 389 211 390 213 389 211 b 386 206 389 211 389 208 l 382 199 b 396 208 383 203 396 206 m 407 293 b 407 306 407 300 407 306 b 406 319 407 306 407 310 l 403 340 b 386 306 406 331 385 311 b 393 292 386 306 388 299 l 407 293 "},"7":{"ha":456,"x_min":0,"x_max":0,"o":"m 11 -81 b 11 -92 13 -86 11 -92 b -7 -118 10 -96 -6 -110 l -1 -101 b 1 -92 0 -96 1 -92 b 4 -82 1 -92 3 -87 m 75 72 b 88 74 88 81 88 74 b 47 -31 88 67 51 -22 b 51 -4 44 -36 46 -17 b 57 19 56 8 46 4 b 68 46 68 35 64 32 b 75 72 68 46 74 58 m 54 239 b 40 218 49 229 47 218 b 44 253 32 218 36 229 b 78 331 53 272 71 317 b 61 267 78 331 71 314 b 54 239 61 250 54 239 m 78 331 b 79 336 78 333 79 335 b 78 331 79 333 78 331 m -37 -89 b -51 -126 -33 -78 -44 -110 b -64 -168 -57 -142 -60 -158 b -79 -237 -68 -179 -74 -231 b -107 -275 -85 -246 -110 -289 b -37 -89 -104 -262 -68 -165 m 456 1057 b 450 1043 454 1051 453 1047 b 449 1024 451 1036 453 1029 b 442 1001 449 1024 443 1014 l 438 989 l 431 983 b 426 967 429 978 428 972 b 413 964 421 965 415 965 l 411 964 l 417 944 l 410 926 b 403 907 411 922 403 907 b 394 892 394 892 401 911 b 379 840 394 892 388 872 b 371 813 376 828 371 813 b 364 768 367 796 378 800 b 343 708 351 736 349 718 b 338 699 338 699 353 722 b 308 658 338 699 319 676 b 303 667 313 686 303 667 b 292 629 294 649 293 639 b 290 601 290 619 299 617 b 279 569 290 601 283 585 b 246 506 251 515 246 506 b 231 465 240 496 240 488 b 226 446 225 454 226 450 l 228 447 l 181 317 b 169 271 176 285 169 271 b 154 221 169 271 164 258 l 143 186 l 135 175 b 140 210 140 203 140 210 b 147 238 142 218 143 200 b 154 292 147 238 150 274 b 139 242 143 267 153 276 b 119 193 124 207 140 235 b 79 115 97 153 90 133 b 56 74 68 96 65 96 b 8 -40 56 74 49 50 l -26 -119 l -6 -40 b 28 74 19 53 28 74 b 31 85 29 78 31 82 b -32 -49 31 85 4 26 l -12 13 b 4 74 1 57 4 74 b 18 111 10 90 11 99 b 38 168 25 125 31 151 b 53 201 42 176 49 190 b 65 242 58 231 56 208 b 86 292 75 276 78 267 b 111 374 86 292 92 317 b 118 418 115 386 118 418 b 135 465 122 449 129 443 b 140 483 136 472 139 479 l 138 511 l 140 531 b 147 563 143 554 147 563 b 156 586 147 563 151 571 b 171 629 164 618 171 629 b 179 658 171 629 176 639 l 196 699 b 197 708 194 721 196 699 b 204 729 197 713 200 719 l 213 760 l 214 754 b 218 768 215 758 217 764 b 243 813 228 800 236 797 b 256 840 243 813 249 828 b 276 892 269 872 276 892 b 279 907 283 910 276 892 b 286 926 279 907 283 922 l 293 944 l 310 963 b 272 972 283 961 286 972 b 247 975 272 972 258 972 b 244 975 246 975 244 975 b 246 821 246 906 247 832 b 231 858 243 807 233 850 b 240 928 229 867 240 917 b 243 971 240 939 243 954 b 243 975 243 972 243 974 b 201 976 235 975 215 976 b 188 975 185 976 201 976 b 171 975 188 975 174 972 l 154 975 l 138 986 l 115 969 l 104 969 b 85 969 93 972 85 969 b 54 982 76 968 63 982 b 26 1008 54 982 46 982 b 21 1036 26 1008 17 1018 b 26 1064 17 1054 26 1064 b 54 1090 46 1090 54 1090 b 85 1103 63 1090 76 1104 b 104 1103 85 1103 93 1100 l 115 1103 l 154 1097 l 171 1097 b 188 1097 174 1100 188 1097 b 201 1096 201 1096 185 1094 b 247 1097 201 1096 219 1096 b 272 1100 258 1100 272 1100 b 311 1110 286 1100 283 1111 b 364 1110 339 1107 356 1111 b 372 1107 372 1107 353 1117 b 397 1097 382 1103 390 1099 b 410 1096 397 1097 404 1097 b 435 1090 429 1100 435 1090 b 436 1088 435 1089 436 1088 b 449 1094 440 1089 443 1093 b 456 1057 449 1082 451 1068 m 51 131 b 51 140 51 131 53 135 l 44 140 b 42 131 43 133 42 131 b 38 119 42 131 40 126 l 33 103 b 51 131 35 111 50 125 m 113 225 b 117 233 113 225 115 229 l 113 236 b 107 229 110 232 107 229 b 103 222 107 229 106 226 l 93 211 b 113 225 97 217 111 222 m 192 428 b 157 375 186 411 158 385 b 156 354 157 375 154 365 l 169 356 b 176 375 174 368 176 375 b 183 396 176 375 179 383 m 204 565 b 218 606 204 565 208 583 b 201 606 208 615 201 606 b 167 453 196 594 168 467 b 185 493 165 444 181 474 b 197 528 190 511 200 506 b 204 565 196 549 200 546 "},"8":{"ha":472,"x_min":0,"x_max":0,"o":"m 96 -126 b 96 -89 96 -110 96 -78 b 99 -275 99 -165 101 -262 b 85 -237 96 -289 86 -246 b 94 -168 82 -231 94 -179 b 96 -126 94 -158 96 -142 m 132 331 b 132 336 132 331 132 333 b 132 331 132 335 132 333 m 125 267 b 132 331 132 314 132 331 b 136 253 133 317 136 272 b 129 218 136 229 136 218 b 122 239 122 218 125 229 b 125 267 122 239 119 250 m 39 46 b 40 19 39 32 36 35 b 38 -4 46 4 38 8 b 32 -31 39 -17 33 -36 b 31 74 32 -22 28 67 b 42 72 31 74 32 81 b 39 46 38 58 39 46 m 47 -92 b 50 -81 47 -92 47 -86 l 57 -82 b 57 -92 57 -87 57 -92 b 56 -101 57 -92 57 -94 l 56 -118 b 47 -92 56 -110 46 -96 m 408 42 b 400 18 410 38 399 25 l 399 33 b 399 42 399 39 399 42 b 399 50 399 42 399 44 l 406 51 b 408 42 407 46 408 42 m 358 13 b 361 -25 358 -1 361 -15 b 371 -83 361 -33 372 -78 b 357 -117 368 -90 358 -128 b 358 44 354 -104 357 -22 b 358 13 360 53 358 25 m 324 403 b 331 349 324 403 324 389 b 333 325 335 335 333 325 b 326 307 331 315 333 307 b 318 336 318 307 318 315 b 324 403 318 354 322 390 m 414 182 b 425 183 422 189 425 183 b 422 93 428 178 424 101 b 417 117 422 89 417 106 b 414 136 417 128 410 124 b 417 158 419 150 417 147 b 414 182 417 158 417 169 m 324 403 b 324 407 324 406 324 407 b 324 403 324 406 324 403 m 492 739 b 504 728 494 738 510 731 b 454 729 500 726 476 728 b 453 726 453 728 453 728 b 451 718 451 718 458 739 b 438 683 451 718 442 700 b 428 692 431 708 428 692 b 431 660 425 675 428 667 b 439 635 432 651 442 649 b 439 608 439 635 438 621 b 428 554 431 561 428 554 b 428 518 426 546 431 538 b 431 501 426 510 429 506 l 432 503 l 432 392 b 436 353 439 364 436 353 b 439 310 436 353 436 342 l 442 279 l 436 271 b 429 300 432 293 429 300 b 428 322 428 307 436 290 b 414 369 428 322 415 354 b 417 326 413 349 419 356 b 414 286 414 297 421 321 b 403 218 407 250 407 235 b 393 183 399 201 394 201 b 388 86 393 183 394 164 l 381 18 l 374 86 b 369 153 369 124 369 153 b 360 154 365 153 367 154 b 350 78 360 154 354 115 l 347 131 b 344 153 346 142 344 153 b 317 156 329 153 332 156 b 260 153 317 156 299 153 b 229 147 251 153 229 147 b 196 147 207 143 211 149 b 182 147 190 147 186 147 l 164 140 l 150 138 b 128 135 133 135 128 135 b 113 135 124 136 115 135 b 113 111 113 126 111 118 b 113 74 115 99 114 90 b 108 13 113 74 110 58 l 106 -49 b 90 85 96 26 90 85 b 89 74 90 82 89 78 b 82 -40 89 74 90 51 l 75 -119 l 68 -40 b 61 74 60 51 61 74 b 53 115 60 96 57 96 b 40 193 47 133 47 153 b 39 242 33 235 40 207 b 40 292 36 276 43 267 b 28 238 40 274 28 238 b 25 210 19 199 28 218 b 18 175 25 210 24 203 l 14 186 l 17 221 b 18 271 18 258 18 271 b 24 317 18 271 17 285 l 24 447 l 25 446 b 26 465 26 450 28 454 b 26 506 25 488 29 497 b 15 569 26 506 25 515 b 15 601 18 585 15 601 b 25 629 14 617 22 619 b 26 667 26 639 29 649 b 18 658 26 667 25 686 b 4 699 14 676 4 699 b 1 708 -3 721 4 699 b 1 768 0 718 4 736 b 11 813 0 800 10 797 b 14 840 11 813 11 828 b 15 892 15 872 15 892 b 14 907 17 910 15 892 b 14 926 14 907 11 922 l 14 944 l 25 964 l 8 989 l 8 1001 b 8 1024 11 1014 8 1024 b 21 1058 7 1033 21 1049 b 46 1089 21 1067 40 1083 b 50 1106 47 1094 49 1100 b 69 1108 50 1106 60 1106 l 104 1107 b 113 1108 124 1115 104 1107 b 132 1108 117 1110 124 1110 l 158 1111 l 154 1108 b 167 1108 158 1108 163 1108 b 206 1100 194 1111 192 1100 b 231 1097 206 1100 219 1100 b 275 1094 258 1094 275 1094 b 289 1097 292 1094 275 1094 b 306 1097 289 1097 303 1100 l 322 1097 l 339 1086 l 361 1101 l 372 1101 b 392 1101 383 1100 392 1101 b 422 1090 400 1104 414 1090 b 451 1063 422 1090 431 1090 b 457 1036 451 1063 460 1054 b 451 1008 460 1018 451 1008 b 446 1001 449 1006 446 1001 b 446 997 446 1000 447 999 b 446 978 446 997 444 989 l 446 968 l 442 929 l 442 914 b 442 897 444 911 442 897 b 439 883 439 883 439 900 b 442 840 439 883 439 868 b 444 817 444 829 444 817 b 453 778 444 803 456 806 b 454 731 451 754 454 739 b 467 732 458 731 463 732 b 492 739 471 732 489 740 m 63 354 b 68 375 67 365 68 375 b 51 429 71 385 50 414 l 50 396 b 49 375 50 383 49 375 b 49 356 49 375 49 368 m 58 225 b 72 211 60 222 71 217 l 68 222 b 65 229 67 226 65 229 b 63 236 65 229 64 232 l 57 233 b 58 225 58 229 58 225 m 96 135 b 88 135 93 135 90 135 b 86 131 86 133 86 132 b 94 103 85 125 96 111 l 96 119 b 96 131 96 126 96 131 m 86 453 b 106 606 89 467 108 594 b 89 606 106 606 103 615 b 89 565 92 583 89 565 b 82 528 86 546 92 549 b 82 493 72 506 85 511 b 86 453 79 474 85 444 m 167 963 b 126 963 149 964 136 963 l 136 944 l 136 926 b 136 907 139 922 136 907 b 135 892 135 892 133 910 b 136 840 135 892 135 872 b 139 813 139 828 139 813 b 143 799 139 806 140 803 b 156 800 149 799 153 800 b 158 797 158 797 150 804 b 172 788 158 797 167 790 b 169 781 163 782 169 781 b 183 782 176 779 179 781 b 193 789 186 785 188 790 b 204 789 193 789 199 788 b 226 781 224 782 226 781 b 242 781 231 779 233 782 b 249 783 246 781 247 782 l 247 783 l 294 783 b 307 788 301 788 307 788 b 317 817 307 804 317 804 b 318 840 317 817 317 829 b 321 883 321 868 321 883 b 318 897 321 900 321 883 b 318 914 318 897 317 911 l 318 929 l 329 946 l 314 968 l 314 974 l 306 974 b 289 974 303 972 289 974 b 275 976 275 976 292 978 b 231 974 275 976 258 976 b 206 972 219 972 206 972 b 167 963 192 972 194 960 m 304 771 l 304 771 b 307 771 306 771 307 771 b 307 772 307 771 307 772 b 303 771 307 772 304 771 b 304 771 304 771 304 771 m 281 765 b 274 765 276 765 274 765 b 265 764 274 765 271 765 l 254 763 b 274 750 260 764 269 749 b 281 756 274 750 276 751 m 246 738 b 232 740 249 738 238 742 b 219 740 225 739 226 747 b 206 735 211 733 213 738 b 192 735 206 735 199 733 b 192 724 188 725 192 724 b 246 738 196 721 240 735 m 204 167 b 176 169 210 168 189 171 b 153 169 164 168 167 175 b 126 165 138 165 139 167 b 113 165 122 165 117 165 b 114 157 114 163 114 160 b 204 167 142 160 197 167 m 258 178 b 274 181 258 178 265 178 l 272 189 b 258 189 264 189 258 189 b 244 188 258 189 253 188 l 221 186 b 258 178 232 188 251 176 m 317 193 b 342 194 332 192 329 194 b 342 197 342 194 342 196 b 317 193 342 197 325 193 m 343 326 b 346 369 342 356 347 349 b 342 440 346 369 343 392 b 332 478 340 451 332 478 b 332 518 322 506 335 500 b 332 535 331 525 331 531 l 318 558 l 314 574 b 310 601 308 594 310 601 b 310 622 310 601 311 608 b 310 658 306 650 310 658 b 307 683 310 658 311 668 l 308 701 b 289 704 301 701 293 703 b 308 708 293 704 303 707 l 310 718 b 308 721 308 719 308 719 b 303 721 307 721 306 721 b 274 717 303 721 294 718 b 258 710 269 717 258 710 b 242 710 247 704 249 713 b 235 710 239 710 236 710 l 225 700 l 218 697 b 207 693 210 693 207 693 b 199 693 207 693 204 696 b 183 693 188 692 183 693 b 172 692 183 693 179 696 l 158 693 b 156 692 150 688 158 693 b 147 692 153 692 151 692 l 146 692 l 149 658 b 146 629 143 639 146 629 b 146 586 146 629 149 618 b 146 563 144 569 146 563 b 142 531 146 563 147 554 l 136 511 l 124 483 b 124 465 124 479 124 472 b 124 418 121 443 129 450 b 114 374 124 418 114 386 b 110 292 113 317 110 292 b 111 242 108 267 114 276 b 111 206 110 211 114 229 b 124 207 111 206 118 206 b 167 200 161 201 167 200 b 196 200 174 199 181 201 b 210 201 203 200 206 201 l 208 203 l 299 203 b 331 206 321 206 331 206 b 342 204 333 204 338 204 b 342 215 342 208 342 211 b 342 264 344 226 340 250 b 344 293 343 271 344 283 b 343 326 340 318 346 299 m 367 176 b 367 181 367 178 367 179 b 364 182 365 181 364 182 b 363 178 364 181 363 179 b 365 178 363 178 364 178 m 361 208 b 369 232 360 215 369 228 b 365 240 369 232 368 236 l 358 240 b 358 232 358 235 358 232 b 360 222 358 232 360 228 l 361 208 m 372 542 b 372 572 371 558 382 554 b 365 604 364 590 368 588 b 365 639 365 604 364 619 b 350 639 351 647 350 639 b 368 508 347 629 365 519 b 372 542 369 501 375 526 m 396 313 b 397 319 396 313 397 315 l 393 322 b 389 317 390 318 389 317 b 386 310 389 317 389 314 l 382 301 b 396 313 383 306 396 310 m 407 425 b 407 442 407 435 407 442 b 406 460 407 442 406 447 l 403 488 b 386 442 406 474 385 450 b 393 424 386 442 388 433 l 407 425 m 289 704 b 288 704 289 704 288 704 b 289 704 288 704 289 704 "},"9":{"ha":515,"x_min":0,"x_max":0,"o":"m 443 -126 b 443 -89 443 -111 442 -79 b 444 -275 444 -167 447 -262 b 431 -237 443 -289 433 -246 b 440 -169 428 -231 440 -179 b 443 -126 440 -158 443 -143 m 393 -92 b 396 -82 393 -92 394 -87 l 403 -83 b 403 -92 403 -89 403 -92 b 403 -103 403 -92 403 -96 l 401 -119 b 393 -92 403 -111 392 -97 m 385 43 b 388 18 385 31 382 33 b 385 -6 392 3 385 7 b 379 -32 385 -18 379 -37 b 376 72 378 -24 374 65 b 388 71 376 72 379 79 b 385 43 385 57 385 43 m 471 264 b 478 328 478 311 478 328 b 482 250 479 314 482 269 b 475 215 482 226 482 215 b 468 236 468 215 471 226 b 471 264 468 236 467 247 m 478 328 b 478 332 478 328 478 331 b 478 328 478 332 478 329 m 129 218 b 122 239 122 218 125 229 b 125 267 122 239 119 250 b 131 317 129 296 131 317 b 133 317 132 317 132 317 b 136 253 135 297 136 268 b 129 218 136 229 136 218 m 515 578 b 503 574 511 576 507 575 b 492 565 499 572 496 568 b 492 558 492 563 492 560 b 488 526 492 558 493 550 l 482 507 l 469 481 b 469 461 469 475 469 469 b 469 414 467 439 476 446 b 460 371 469 414 461 383 b 456 289 458 314 456 289 b 458 239 454 264 460 272 b 457 200 456 207 461 228 b 460 165 457 188 458 174 b 460 110 461 149 457 122 b 460 72 461 96 460 88 b 454 11 460 72 456 57 l 451 -50 b 436 83 443 25 436 83 b 435 72 436 81 435 76 b 428 -42 435 72 436 50 l 421 -119 l 414 -42 b 407 72 407 50 407 72 b 399 113 407 94 403 94 b 393 153 396 125 394 136 b 365 156 381 154 381 156 b 296 153 365 156 343 153 b 258 147 285 153 258 147 b 218 147 232 143 238 149 b 203 147 213 147 207 147 l 179 140 l 164 138 b 138 135 143 135 138 135 b 117 135 138 135 131 136 b 113 135 115 135 113 135 b 113 111 113 126 111 117 b 113 74 115 99 114 90 b 108 13 113 74 110 58 l 106 -49 b 90 85 96 26 90 85 b 89 74 90 82 89 78 b 82 -40 89 74 90 51 l 75 -119 l 68 -40 b 61 74 60 51 61 74 b 53 115 60 96 57 96 b 40 193 47 133 47 153 b 39 242 33 235 40 207 b 40 292 36 276 43 267 b 28 238 40 274 28 238 b 25 210 19 199 28 218 b 18 175 25 210 24 203 l 14 186 l 17 221 b 18 271 18 258 18 271 b 22 311 17 282 21 301 l 17 350 l 28 364 b 65 385 44 376 57 385 b 83 382 65 385 74 385 b 100 347 89 367 97 358 b 111 315 100 347 103 338 b 110 292 111 307 110 299 b 111 242 107 267 114 276 b 111 206 110 211 115 229 b 131 207 111 206 122 206 b 185 200 176 201 185 200 b 218 200 192 199 200 201 b 236 201 228 200 232 201 l 233 203 l 343 203 b 361 204 351 204 361 204 l 363 218 b 364 228 363 222 364 228 b 356 208 361 222 356 214 l 356 224 b 354 232 354 229 354 232 b 354 240 354 232 354 236 l 361 242 b 364 233 363 238 364 233 b 365 268 365 246 367 261 b 369 314 365 268 363 282 l 369 319 b 369 326 369 321 368 324 l 369 443 l 371 442 b 374 461 372 446 375 450 b 374 501 371 483 375 493 b 363 565 374 501 371 511 b 363 567 363 565 363 567 l 267 564 b 232 558 242 556 232 558 b 193 554 232 558 222 558 l 167 551 l 158 556 b 185 564 179 561 185 564 b 206 567 190 567 178 554 b 246 581 206 567 233 579 b 208 578 226 582 235 576 b 172 578 182 579 203 572 b 111 588 140 583 126 583 b 81 596 97 592 97 594 b 43 597 74 596 58 597 b 35 592 40 596 38 593 b 33 599 35 593 35 594 b -7 600 33 599 13 597 l -67 604 l -7 613 b 31 617 11 615 31 617 b 29 632 31 622 31 626 b -14 636 29 632 6 635 l 29 640 b 24 688 29 640 26 664 b 24 713 26 700 24 713 b 33 735 22 725 31 726 b 36 764 36 742 38 749 b 26 757 36 764 33 778 b 13 788 22 771 13 788 b 11 796 6 806 13 788 b 11 842 8 803 13 818 b 19 876 8 867 19 864 b 22 899 19 876 19 889 b 24 938 24 922 24 938 b 22 950 25 953 24 938 b 22 964 22 950 19 963 l 22 979 l 33 994 l 17 1014 l 17 1024 b 17 1040 19 1033 17 1040 b 29 1067 15 1047 29 1060 b 56 1092 29 1074 50 1088 b 60 1106 57 1096 58 1101 b 78 1108 60 1106 68 1106 l 114 1107 b 122 1108 133 1115 114 1107 b 140 1108 126 1110 132 1110 l 167 1111 l 163 1108 b 175 1108 167 1108 171 1108 b 214 1100 203 1111 200 1100 b 239 1097 214 1100 228 1100 b 283 1094 267 1094 283 1094 b 297 1097 300 1094 283 1094 b 314 1097 297 1097 311 1100 l 331 1097 l 347 1086 l 369 1101 l 381 1101 b 390 1101 385 1101 390 1101 l 393 1101 b 401 1101 396 1101 399 1101 b 432 1090 410 1104 424 1090 b 435 1089 432 1090 433 1090 b 449 1083 440 1089 444 1086 b 476 1051 476 1061 476 1051 b 488 1017 476 1042 490 1026 b 488 994 488 1017 485 1007 l 488 982 l 472 957 l 483 939 l 483 919 b 483 901 485 917 483 901 b 481 885 481 885 481 904 b 483 835 481 885 481 867 b 485 807 485 822 485 807 b 494 763 486 792 497 794 b 494 749 494 758 494 753 l 497 754 l 494 724 b 494 703 494 714 496 708 b 493 696 492 694 501 714 b 499 694 496 696 497 694 b 510 694 501 694 506 694 b 507 683 508 692 508 688 b 515 578 500 649 503 611 m 79 624 b 88 625 82 624 85 624 b 82 625 86 625 83 625 b 78 622 81 625 79 624 b 79 624 78 622 79 622 m 97 649 b 107 649 100 649 103 649 b 111 647 108 647 110 647 b 114 715 114 674 115 713 b 97 715 114 715 113 724 b 97 685 100 699 97 685 b 97 649 97 679 97 663 m 122 622 b 131 625 122 622 125 622 l 129 632 b 108 629 122 632 115 631 b 110 631 108 629 110 631 l 101 629 b 122 622 107 631 118 621 m 372 667 b 369 667 371 669 371 669 b 372 667 371 667 371 667 m 203 601 b 199 604 200 603 199 604 b 193 607 199 604 196 606 l 183 611 b 196 597 188 610 193 599 b 201 596 196 597 199 596 m 350 596 b 308 611 339 593 315 613 b 293 604 308 611 301 610 l 294 590 b 310 590 304 590 310 590 b 325 593 310 590 315 590 m 360 901 b 360 919 360 901 357 917 l 360 939 l 371 957 l 363 971 l 331 974 l 314 974 b 297 974 311 972 297 974 b 283 976 283 976 300 978 b 239 974 283 976 267 976 b 214 972 228 972 214 972 b 175 963 200 972 203 960 b 146 963 164 964 154 964 b 146 950 146 961 147 957 b 143 938 143 938 142 953 b 146 899 143 938 143 922 b 147 876 147 889 147 876 b 157 842 147 864 158 867 b 156 832 157 839 156 835 l 158 835 l 157 813 b 157 796 157 804 158 799 b 154 788 154 788 164 806 l 157 757 b 154 733 151 742 154 733 b 154 701 154 733 157 725 b 154 682 151 689 154 682 b 154 649 154 681 154 663 b 175 649 161 649 169 649 b 206 650 197 654 181 647 b 243 650 232 654 225 647 b 306 656 243 650 263 653 b 339 667 315 657 339 667 b 360 669 350 671 356 671 b 350 693 357 676 354 685 b 349 703 342 715 350 693 b 349 763 346 713 350 732 b 357 807 346 794 356 792 b 360 835 357 807 357 822 b 363 885 363 867 363 885 b 360 901 363 904 363 885 m 372 628 b 372 632 372 629 372 631 b 367 631 369 632 368 632 b 372 628 364 631 367 629 m 58 225 b 74 211 60 222 71 217 l 68 222 b 65 229 67 226 65 229 b 63 236 65 229 64 232 l 58 233 b 58 225 58 229 58 225 m 96 135 b 88 135 93 135 90 135 b 86 131 86 133 86 132 b 94 103 85 125 96 111 l 96 119 b 96 131 96 126 96 131 m 229 167 b 196 169 236 168 211 171 b 167 169 179 168 185 175 b 135 165 149 165 150 167 b 113 165 128 165 119 165 b 114 157 114 163 114 160 b 229 167 144 158 219 167 m 294 178 b 313 181 294 178 303 178 l 310 189 b 294 189 301 189 294 189 b 276 188 294 189 288 188 l 249 186 b 294 178 263 188 286 176 m 368 193 b 386 193 378 192 381 193 b 386 196 386 194 386 194 b 368 193 378 194 372 193 b 368 193 368 193 368 193 m 385 239 b 388 289 382 272 389 264 b 374 235 386 271 374 235 b 372 207 365 196 374 215 b 371 206 372 207 371 206 b 382 206 375 206 379 206 b 385 204 382 204 383 204 b 385 239 382 225 386 208 m 397 403 b 403 363 397 403 399 385 b 406 351 404 357 406 351 l 408 351 b 415 372 414 363 415 372 b 399 425 417 382 396 410 l 397 403 m 406 222 b 419 208 406 219 417 214 l 414 219 b 411 226 413 224 411 226 b 408 233 411 226 411 229 l 404 231 b 406 222 404 226 406 222 m 443 128 b 443 138 443 128 443 132 l 436 139 b 432 128 433 133 432 128 b 440 101 432 124 442 108 l 442 118 b 443 128 442 124 443 128 m 433 449 b 449 565 435 458 444 522 b 436 567 446 565 440 567 b 436 561 436 565 436 563 b 428 524 433 542 438 544 b 428 489 419 503 431 507 b 433 449 426 471 432 440 "}," ":{"ha":342,"x_min":0,"x_max":0,"o":""},"!":{"ha":1101,"x_min":0,"x_max":0,"o":"m 281 990 b 278 1010 274 1001 281 999 b 278 1031 275 1019 276 1036 b 299 950 281 1024 299 956 b 289 949 299 950 299 944 b 288 971 289 961 288 971 b 281 990 285 981 288 979 m 249 1074 b 247 1082 249 1074 247 1076 l 244 1096 b 256 1076 246 1089 256 1079 b 256 1067 256 1076 256 1072 l 250 1067 b 249 1074 249 1071 249 1074 m 488 -186 b 489 -196 489 -192 489 -196 b 478 -215 489 -199 478 -208 l 479 -201 b 481 -193 481 -196 481 -193 b 482 -186 481 -193 482 -190 m 951 282 b 972 276 954 283 967 275 l 960 275 b 951 274 954 275 951 274 b 943 274 951 274 949 274 l 943 279 b 951 282 947 282 951 282 m 818 290 b 901 292 824 293 894 292 b 881 286 907 292 892 286 b 863 283 871 286 875 281 b 842 285 850 288 851 285 b 819 282 842 285 831 285 b 818 290 813 289 818 290 m 821 243 b 811 242 817 243 814 242 b 918 233 811 242 858 239 l 869 229 b 821 224 833 226 821 224 b 790 222 808 222 801 221 b 746 221 781 224 758 219 b 718 221 739 221 728 221 b 688 219 696 217 713 222 b 646 219 660 217 667 222 b 619 217 639 218 629 218 l 619 215 l 618 206 b 617 200 617 203 617 200 b 667 208 617 200 629 200 b 689 211 681 213 689 211 b 706 206 697 210 706 211 b 678 199 706 200 697 200 b 617 200 663 199 628 200 b 614 188 615 196 614 192 b 599 163 614 179 600 169 b 588 151 599 160 593 156 l 581 119 b 575 83 579 93 575 83 b 568 43 575 83 574 72 l 564 15 l 558 8 b 560 36 560 29 560 36 b 563 58 560 43 563 26 b 561 103 563 58 560 89 b 554 63 556 83 563 90 b 544 26 547 36 557 57 b 521 -33 532 -4 528 -19 b 521 -35 521 -33 521 -35 l 521 -46 b 519 -37 519 -43 519 -37 b 518 -39 519 -37 518 -39 b 521 -54 519 -43 519 -49 b 524 -68 522 -57 522 -62 b 532 -69 526 -67 531 -64 b 526 -92 532 -71 529 -81 b 528 -103 526 -92 528 -99 l 538 -151 b 522 -110 531 -133 522 -110 b 515 -136 519 -119 517 -128 b 517 -149 515 -136 517 -144 l 526 -211 l 513 -172 b 513 -275 514 -222 515 -267 b 499 -237 511 -289 501 -246 b 503 -203 497 -233 500 -218 b 499 -196 501 -200 499 -197 b 500 -186 499 -196 499 -192 l 506 -186 b 506 -187 506 -186 506 -187 b 508 -168 507 -179 508 -171 b 508 -158 508 -165 508 -161 l 507 -151 b 494 -107 500 -129 494 -107 b 481 -151 494 -107 489 -129 l 463 -211 l 471 -149 b 472 -136 471 -144 472 -136 b 465 -110 471 -128 468 -119 b 450 -151 465 -110 457 -133 l 460 -103 b 461 -92 460 -99 461 -92 b 461 -90 461 -92 461 -92 b 457 -69 458 -79 456 -71 b 464 -68 457 -64 463 -67 b 467 -54 465 -62 467 -57 b 469 -39 468 -49 469 -43 b 467 -33 468 -37 468 -36 b 453 3 461 -24 458 -12 b 453 -1 453 1 453 0 b 446 -28 453 -14 447 -35 b 444 25 446 -24 444 1 b 443 26 443 26 443 26 b 433 63 431 57 442 36 b 426 103 425 90 432 83 b 426 58 428 89 426 58 b 429 36 425 26 429 43 b 429 8 429 36 428 29 l 424 15 l 419 43 b 413 83 415 72 413 83 b 408 119 413 83 408 93 l 399 158 b 396 163 397 160 396 161 b 385 178 394 167 389 172 b 378 179 382 178 379 178 b 354 176 378 179 369 181 l 322 176 b 314 174 304 168 322 176 b 297 174 311 174 306 174 l 274 171 l 276 174 b 267 172 274 172 269 172 b 231 178 240 169 243 178 b 207 179 231 178 218 178 b 167 179 182 179 167 179 b 154 176 151 179 167 179 b 139 176 154 176 142 174 l 124 175 l 108 183 l 89 169 l 79 169 b 61 169 68 171 61 169 b 33 176 54 167 40 178 b 7 197 33 176 25 176 b 1 219 7 197 -1 204 b 6 242 -3 233 6 242 b 29 265 22 264 29 265 b 57 275 38 265 49 276 b 75 276 57 275 64 274 l 85 276 l 106 264 l 119 274 l 135 275 b 150 275 138 276 150 275 b 163 274 163 274 149 272 b 203 278 163 274 178 275 b 226 281 214 279 226 281 b 261 289 239 282 236 290 b 310 292 286 289 301 293 b 317 290 317 290 299 294 b 350 281 317 290 335 283 b 343 272 328 274 343 272 b 364 274 353 272 358 272 b 364 279 364 275 364 278 b 363 293 363 293 367 278 b 351 332 363 293 360 307 b 344 353 347 340 344 353 b 331 386 342 365 333 361 b 328 397 329 390 329 393 l 326 393 l 324 417 b 322 418 322 417 322 417 b 322 419 317 426 322 419 b 322 421 322 419 322 421 b 321 421 322 421 322 421 b 318 433 319 424 319 428 b 318 435 318 432 318 431 b 311 468 317 443 315 454 b 308 490 307 481 307 486 b 307 496 308 493 307 494 b 300 529 307 496 303 503 b 294 547 297 542 294 547 b 293 574 294 547 293 553 l 293 583 b 292 593 293 583 290 592 l 288 608 l 293 624 l 274 621 l 276 624 b 267 622 274 624 269 624 b 231 629 240 619 243 628 b 207 629 231 629 218 628 b 167 629 182 631 167 629 b 154 628 151 629 167 629 b 139 626 154 628 142 625 l 124 626 l 108 635 l 89 621 l 79 621 b 61 619 68 622 61 619 b 33 628 54 618 40 628 b 7 649 33 628 25 628 b 1 671 7 649 -1 656 b 6 693 -3 685 6 693 b 29 715 22 715 29 715 b 57 726 38 715 49 728 b 75 726 57 726 64 725 l 85 726 l 106 715 l 119 725 l 135 725 b 150 726 138 728 150 726 b 163 725 163 725 149 724 b 203 728 163 725 178 725 b 226 731 214 731 226 731 b 261 740 239 733 236 740 b 261 740 261 740 261 740 b 247 792 257 754 250 779 b 247 819 243 810 242 818 b 256 804 253 821 253 813 b 258 783 256 804 260 796 b 263 740 261 757 263 740 b 279 740 269 740 275 740 b 275 765 278 750 276 758 b 264 804 272 786 269 776 b 258 835 261 831 260 813 b 250 863 256 844 253 856 b 240 906 246 874 244 896 b 233 935 236 915 236 922 b 226 983 233 935 233 947 l 218 1032 b 253 931 238 975 253 931 b 253 939 253 933 253 936 b 238 1029 253 939 247 957 l 229 1092 l 249 1032 b 274 944 271 963 274 944 b 289 914 279 928 282 928 b 311 854 296 900 299 885 b 322 818 324 824 314 844 b 329 778 329 790 322 797 b 329 822 326 792 329 822 b 326 844 329 854 326 838 b 325 872 326 844 326 851 l 331 865 l 336 838 b 343 797 340 807 343 797 b 347 761 343 797 347 788 l 356 724 b 374 726 363 724 368 725 b 396 735 381 729 383 736 b 415 735 403 733 410 735 b 415 779 415 746 417 760 b 425 824 413 811 424 807 b 426 853 425 824 425 839 b 429 903 429 885 429 903 b 426 919 431 922 429 903 b 426 939 426 919 425 935 l 426 957 l 439 976 l 422 1001 l 422 1015 b 422 1038 425 1028 422 1038 b 433 1072 419 1047 433 1063 b 461 1104 433 1072 433 1082 b 489 1111 461 1104 471 1115 b 517 1104 507 1115 517 1104 b 544 1072 544 1082 544 1072 b 557 1038 544 1063 558 1047 b 557 1015 557 1038 554 1028 l 557 1001 l 540 976 l 551 957 l 551 939 b 551 919 554 935 551 919 b 550 903 550 903 549 922 b 551 853 550 903 550 885 b 554 824 554 839 554 824 b 563 779 556 807 565 811 b 563 765 563 774 563 769 l 565 769 l 564 740 b 564 736 564 739 564 738 l 624 739 b 643 743 633 740 643 743 l 647 761 b 651 797 647 788 651 797 b 660 838 651 797 654 807 l 664 865 l 669 872 b 668 844 668 851 668 844 b 665 822 668 838 665 854 b 665 778 665 822 668 792 b 674 818 672 797 665 790 b 683 854 681 844 671 824 b 707 914 696 885 700 900 b 721 944 714 928 715 928 b 746 1032 721 944 724 963 l 765 1092 l 757 1029 b 742 939 747 957 742 939 b 742 931 742 936 742 933 b 778 1032 742 931 757 975 l 768 983 b 761 935 761 947 761 935 b 754 906 760 922 758 915 b 744 863 750 896 749 874 b 736 835 742 856 739 844 b 731 804 735 813 735 831 b 719 765 726 776 722 786 b 717 749 719 761 718 756 l 728 750 l 733 749 b 736 783 733 749 735 764 b 739 804 735 796 739 804 b 749 819 743 813 743 821 b 747 792 754 818 751 810 b 735 747 744 781 740 761 l 736 747 b 735 747 736 747 735 747 b 731 731 733 740 732 735 b 732 746 731 735 732 740 b 715 742 728 744 721 743 b 714 729 715 738 714 733 b 722 728 717 729 719 729 b 729 728 725 728 726 728 b 731 731 729 728 729 729 b 729 728 731 729 729 728 b 786 722 758 725 772 725 b 819 717 801 719 801 717 b 911 714 819 717 838 718 l 974 711 l 911 703 b 821 694 838 694 821 694 b 811 693 817 693 814 693 b 918 685 811 693 858 689 l 869 681 b 821 675 833 678 821 675 b 790 674 808 674 801 672 b 746 672 781 675 758 671 b 718 672 739 672 728 672 b 718 672 718 672 718 672 b 717 669 718 671 718 669 b 714 651 717 669 714 663 l 711 642 l 700 631 b 699 628 700 631 700 629 b 697 617 699 624 699 619 l 700 608 l 699 603 l 701 589 l 701 574 b 700 547 703 553 700 547 b 696 529 700 547 697 542 b 688 496 692 503 688 496 b 685 472 688 496 685 488 l 675 440 b 675 433 679 422 675 440 b 672 417 675 429 674 424 l 668 393 l 667 397 b 665 386 667 393 665 390 b 650 353 661 361 654 365 b 643 332 650 353 647 340 b 632 293 636 307 632 293 b 632 289 632 292 632 290 b 660 293 640 292 653 293 b 700 296 660 293 669 293 l 728 300 l 736 296 b 708 289 715 292 708 289 b 688 286 703 288 718 294 b 644 274 688 286 658 275 b 685 278 664 274 657 278 b 722 278 713 278 689 282 b 786 271 756 274 771 274 b 819 265 801 268 801 265 b 911 264 819 265 838 267 l 974 261 l 911 253 b 821 243 838 243 821 243 m 775 694 b 767 692 775 694 771 693 l 768 686 b 775 686 772 686 775 686 b 783 688 775 686 778 686 l 797 689 b 775 694 790 688 779 694 m 731 896 b 731 888 731 896 731 892 l 736 886 b 738 894 738 892 738 894 b 739 903 738 894 739 897 l 742 915 b 731 896 740 910 731 900 m 692 826 b 689 819 692 826 690 824 l 693 818 b 696 822 694 819 696 822 b 700 826 696 822 697 824 l 706 835 b 692 826 703 831 693 829 m 264 888 b 265 896 265 892 265 896 b 253 915 264 900 254 910 l 256 903 b 257 894 257 897 257 894 b 258 886 257 894 257 892 l 264 888 m 306 819 b 303 826 304 824 303 826 b 289 835 301 829 292 831 l 294 826 b 299 822 297 824 299 822 b 301 818 299 822 300 819 m 438 447 b 436 446 438 447 436 447 b 438 444 436 446 438 446 m 440 472 b 440 514 439 494 443 504 b 429 578 440 514 439 524 b 429 610 432 594 429 610 b 435 632 428 621 432 626 b 431 632 433 632 432 632 b 411 631 431 632 425 633 b 385 629 396 629 385 629 l 388 615 b 392 601 390 614 392 601 b 392 588 392 588 389 603 b 403 549 392 588 396 574 b 410 528 407 539 410 528 b 425 494 414 515 421 519 b 426 483 425 490 426 488 l 428 488 l 432 464 b 432 463 432 464 432 464 b 433 461 438 454 433 461 b 433 460 433 461 433 460 b 433 460 433 460 433 460 b 436 447 435 457 436 453 b 438 449 436 447 438 449 l 438 456 l 439 453 b 440 472 440 458 442 461 m 396 663 b 442 668 399 663 419 665 b 440 676 442 671 442 674 b 440 678 440 678 440 678 b 435 678 439 678 438 678 b 432 667 435 678 433 674 b 429 678 431 671 429 678 b 426 676 428 678 428 678 b 394 675 426 676 413 675 b 396 663 388 664 396 663 m 453 54 b 465 46 454 51 464 49 l 460 54 b 457 58 457 57 457 58 b 453 63 456 60 453 63 b 453 54 453 60 453 57 m 476 361 b 483 382 481 372 483 382 b 465 436 485 392 464 421 l 464 403 b 463 382 464 389 463 382 b 463 363 463 382 463 374 m 482 228 b 481 233 481 231 481 233 b 479 233 479 233 479 233 l 481 229 b 481 225 481 228 481 225 b 483 225 482 225 482 225 m 476 -114 b 483 -72 479 -100 482 -83 b 481 -65 482 -69 482 -67 b 471 -94 478 -75 474 -85 b 471 -100 471 -94 471 -97 l 469 -101 b 475 -110 471 -103 472 -106 b 476 -114 475 -111 476 -112 m 497 -17 b 497 -15 497 -15 497 -15 b 497 -12 497 -14 497 -14 b 497 -17 497 -14 497 -15 m 518 -99 b 507 -65 514 -87 511 -76 b 504 -72 506 -67 506 -69 b 511 -111 506 -83 508 -97 b 511 -86 511 -96 511 -78 b 511 -114 511 -96 511 -104 b 514 -110 513 -112 513 -111 b 518 -99 518 -103 518 -101 m 500 135 b 508 114 500 131 506 121 b 508 115 508 114 508 114 b 511 131 508 119 510 125 b 511 135 511 132 511 133 b 511 144 511 135 511 138 l 504 144 b 500 135 501 139 500 135 m 501 460 b 521 614 504 474 522 603 b 504 614 521 614 518 625 b 504 574 506 592 504 574 b 496 536 501 554 506 557 b 496 501 488 514 499 519 b 501 460 494 482 500 451 m 564 714 b 561 708 563 713 563 711 l 561 704 b 578 700 568 701 575 699 b 594 706 578 700 586 701 l 593 717 b 578 717 583 717 578 717 b 564 714 574 715 567 715 m 536 54 b 539 61 536 54 538 57 l 535 63 b 532 58 533 60 532 58 b 528 54 532 58 531 57 l 526 50 b 526 49 526 50 526 49 b 536 54 529 51 535 53 m 615 643 l 613 651 b 613 651 613 651 613 651 b 613 651 613 651 613 651 l 607 665 l 608 667 b 581 664 608 667 593 665 b 561 660 575 664 561 660 b 561 638 560 653 560 644 b 561 594 561 638 564 628 b 561 571 560 579 561 571 b 556 539 561 571 563 563 l 551 519 l 539 492 b 538 472 539 486 539 481 b 538 425 536 450 544 457 b 529 381 538 425 529 393 b 524 297 526 322 524 297 b 524 283 524 290 524 286 l 528 283 l 526 292 l 526 307 b 528 333 525 328 528 333 b 532 351 528 333 531 339 b 540 385 536 378 540 385 b 543 408 540 385 543 393 l 553 440 b 553 447 549 458 553 440 b 556 464 553 451 554 457 l 560 488 l 561 483 b 563 494 561 488 563 490 b 578 528 567 519 574 515 b 585 549 578 528 581 539 b 596 588 592 574 596 588 b 596 601 600 603 596 588 b 600 615 596 601 597 614 l 603 631 m 710 251 b 697 263 706 253 700 261 b 692 263 697 263 694 263 l 689 258 b 694 257 693 257 694 257 b 700 254 694 257 697 256 m 797 238 b 775 243 790 236 779 244 b 767 240 775 243 771 243 l 768 235 b 775 235 772 235 775 235 b 783 236 775 235 778 236 m 1069 257 b 1100 247 1076 256 1111 250 b 950 243 1089 244 1013 243 b 981 244 942 243 968 243 b 1014 247 993 244 1006 247 b 1069 257 1024 247 1063 258 m 951 725 b 943 725 951 725 949 725 l 943 731 b 951 733 947 732 951 733 b 972 728 954 735 967 726 l 960 726 b 951 725 954 725 951 725 m 950 693 b 981 694 942 693 968 694 b 1014 699 993 696 1006 697 b 1069 708 1024 699 1063 710 b 1100 699 1076 707 1111 700 b 950 693 1089 696 1013 694 m 819 732 b 818 742 813 739 818 742 b 901 743 824 743 894 743 b 881 738 907 743 892 738 b 863 735 871 738 875 731 b 842 735 850 738 851 736 b 819 732 842 735 831 735 m 706 949 b 696 950 697 944 696 950 b 717 1031 696 956 715 1024 b 717 1010 718 1036 719 1019 b 714 990 714 999 721 1001 b 708 971 708 979 711 981 b 706 949 708 971 706 961 m 740 1067 b 739 1076 739 1072 739 1076 b 750 1096 739 1079 750 1089 l 749 1082 b 747 1074 747 1076 747 1074 b 744 1067 747 1074 746 1071 "},"\"":{"ha":739,"x_min":0,"x_max":0,"o":"m 307 -125 b 307 -86 307 -108 307 -75 b 310 -275 310 -165 311 -261 b 294 -237 307 -289 297 -246 b 304 -168 293 -229 304 -178 b 307 -125 304 -157 307 -140 m 257 -89 b 260 -79 257 -89 258 -85 l 267 -79 b 267 -89 267 -86 267 -89 b 267 -100 267 -89 267 -93 l 265 -117 b 257 -89 267 -108 256 -94 m 249 49 b 251 22 249 36 246 38 b 249 -1 256 7 249 11 b 243 -28 249 -14 243 -35 b 240 78 242 -19 238 71 b 251 76 240 78 242 85 b 249 49 249 61 249 49 m 333 244 b 336 272 333 244 331 256 b 343 338 343 321 343 338 b 347 258 344 322 347 278 b 340 224 347 233 347 224 b 333 244 333 224 336 233 m 343 338 b 343 342 343 338 343 340 b 343 338 343 340 343 339 m 550 169 b 611 163 550 169 563 169 l 654 156 l 611 149 b 550 142 563 140 550 142 b 528 132 539 140 539 136 b 486 121 518 128 508 128 b 460 118 464 114 479 121 b 433 121 442 115 447 122 b 463 107 443 119 463 107 b 476 106 483 96 472 107 b 496 97 476 106 482 103 l 490 93 l 471 96 b 444 97 451 100 444 97 b 419 103 444 97 438 96 l 350 103 l 350 104 b 340 107 347 106 346 107 b 325 107 333 106 328 106 b 324 78 325 97 325 90 b 319 15 324 78 321 61 l 317 -46 b 301 89 307 29 301 89 b 300 78 300 86 300 82 b 293 -37 300 78 300 54 l 286 -117 l 279 -37 b 272 78 271 54 272 78 b 269 96 271 86 269 92 b 267 94 268 96 268 94 b 251 104 258 93 257 101 b 231 107 246 107 242 108 b 236 97 231 107 221 104 b 214 83 226 93 214 83 b 210 81 203 74 214 83 b 176 81 204 79 194 83 b 153 90 160 79 161 90 b 138 93 153 90 144 90 b 111 94 121 94 111 94 b 103 93 100 96 111 94 b 92 93 103 93 93 90 l 82 93 l 72 104 l 58 88 l 51 88 b 39 88 44 90 39 88 b 21 100 35 86 26 100 b 4 128 21 100 15 100 b 0 156 4 128 -1 136 b 4 182 -1 174 4 182 b 21 210 15 210 21 210 b 39 222 26 210 35 224 b 51 222 39 222 44 219 l 58 222 l 72 206 l 82 217 l 92 217 b 103 217 93 219 103 217 b 111 215 111 215 100 214 b 138 217 111 215 121 215 b 153 219 144 219 153 219 b 176 229 161 219 160 231 b 185 228 179 228 182 228 l 182 231 l 197 229 b 210 229 203 229 207 231 b 214 226 214 226 203 236 l 226 228 b 228 278 228 235 231 265 b 233 322 228 278 226 290 l 233 456 l 235 453 b 238 472 236 458 239 461 b 238 514 235 494 239 504 b 225 578 238 514 235 524 b 225 610 228 594 225 610 b 235 639 224 626 232 629 b 238 676 238 649 239 658 b 228 667 238 676 235 696 b 214 708 224 686 214 708 b 211 718 207 732 214 708 b 211 779 210 728 214 747 b 221 824 210 811 219 807 b 224 853 221 824 221 839 b 225 903 225 885 225 903 b 224 919 226 922 225 903 b 224 939 224 919 221 935 l 224 957 l 235 976 l 218 1001 l 218 1015 b 218 1038 221 1028 218 1038 b 231 1072 217 1047 231 1063 b 258 1104 231 1072 231 1082 b 286 1111 258 1104 267 1115 b 314 1104 304 1115 314 1104 b 340 1072 340 1082 340 1072 b 353 1038 340 1063 354 1047 b 353 1015 353 1038 350 1028 l 353 1001 l 336 976 l 347 957 l 347 939 b 347 919 350 935 347 919 b 346 903 346 903 344 922 b 347 853 346 903 346 885 b 350 824 350 839 350 824 b 360 779 351 807 361 811 b 358 765 360 774 358 769 l 361 769 l 360 740 b 360 718 360 731 361 724 b 357 708 357 708 367 731 l 360 668 b 357 638 354 649 357 638 b 357 594 357 638 360 628 b 357 571 356 579 357 571 b 353 539 357 571 358 563 l 347 519 l 335 492 b 335 472 335 486 335 481 b 335 425 332 450 340 457 b 325 381 335 425 325 393 b 321 297 322 322 321 297 b 322 246 319 272 325 282 b 322 211 321 215 325 233 l 329 204 b 340 203 332 204 336 204 b 365 203 351 201 349 213 b 389 194 365 203 382 194 b 433 189 419 192 433 189 b 460 192 447 188 442 194 b 482 190 478 190 465 196 b 500 193 488 192 496 192 b 531 193 508 196 522 190 b 550 193 538 196 542 193 b 583 189 550 193 558 193 l 617 186 b 544 171 575 176 544 171 b 550 169 546 169 547 169 m 249 246 b 251 297 246 282 253 272 b 238 242 250 279 238 242 b 235 229 236 236 235 232 l 236 229 b 249 226 243 225 249 226 b 249 246 249 228 250 231 m 272 361 b 279 382 278 372 279 382 b 263 436 281 392 260 421 l 260 403 b 258 382 260 389 258 382 b 258 363 258 382 258 374 m 275 226 b 279 225 276 226 279 225 l 279 228 b 276 235 276 232 276 235 b 272 242 276 235 275 238 l 268 239 b 269 231 268 233 269 231 b 272 226 269 229 271 228 b 275 226 272 226 274 226 m 297 460 b 317 614 300 474 319 603 b 300 614 317 614 314 625 b 300 574 303 592 300 574 b 293 536 297 554 303 557 b 293 501 283 514 294 519 b 297 460 290 482 296 451 m 325 163 b 346 167 335 160 351 165 b 324 174 344 168 335 171 b 324 172 324 172 324 172 b 325 163 324 169 324 165 b 325 163 325 163 325 163 m 400 142 b 389 149 393 147 389 149 b 360 132 383 150 368 129 l 376 129 b 389 128 385 128 389 128 b 399 128 389 128 392 128 m 469 139 b 476 153 471 139 474 151 l 471 149 b 467 146 468 146 467 146 b 464 142 467 146 465 144 l 464 138 b 469 139 467 138 469 139 m 519 167 b 535 175 522 165 531 175 l 525 175 b 519 176 522 176 519 176 b 515 176 519 176 518 176 l 514 169 b 519 167 518 167 519 167 m 461 203 b 447 206 461 203 456 200 b 413 213 421 213 413 213 b 454 217 419 214 443 217 b 472 210 467 217 472 217 b 461 203 472 203 467 206 m 410 213 b 413 213 410 213 411 213 b 410 213 413 213 411 213 m 639 136 b 644 136 639 136 642 136 l 654 135 b 639 126 650 136 642 125 b 633 129 639 126 636 128 l 633 136 b 639 136 638 136 639 136 m 592 118 b 607 111 599 118 610 113 b 550 110 601 111 554 107 b 551 121 550 110 546 111 b 565 118 558 118 565 118 b 579 121 572 118 571 115 b 592 118 588 125 585 118 m 738 179 b 718 164 746 176 722 167 b 681 174 714 163 686 174 b 658 176 675 174 667 176 b 638 176 649 176 632 176 b 738 179 679 179 731 181 "},"#":{"ha":739,"x_min":0,"x_max":0,"o":"m 307 -125 b 307 -86 307 -108 307 -75 b 310 -275 310 -165 311 -261 b 294 -237 307 -289 297 -246 b 304 -168 293 -229 304 -178 b 307 -125 304 -157 307 -140 m 257 -89 b 260 -79 257 -89 258 -85 l 267 -79 b 267 -89 267 -86 267 -89 b 267 -100 267 -89 267 -93 l 265 -117 b 257 -89 267 -108 256 -94 m 249 49 b 251 22 249 36 246 38 b 249 -1 256 7 249 11 b 243 -28 249 -14 243 -35 b 240 78 242 -19 238 71 b 251 76 240 78 242 85 b 249 49 249 61 249 49 m 333 244 b 336 272 333 244 331 256 b 343 338 343 321 343 338 b 347 258 344 322 347 278 b 340 224 347 233 347 224 b 333 244 333 224 336 233 m 343 338 b 343 342 343 338 343 340 b 343 338 343 340 343 339 m 550 169 b 611 163 550 169 563 169 l 654 156 l 611 149 b 550 142 563 140 550 142 b 528 132 539 140 539 136 b 486 121 518 128 508 128 b 460 118 464 114 479 121 b 433 121 442 115 447 122 b 463 107 443 119 463 107 b 476 106 483 96 472 107 b 496 97 476 106 482 103 l 490 93 l 471 96 b 444 97 451 100 444 97 b 419 103 444 97 438 96 l 350 103 l 350 104 b 340 107 347 106 346 107 b 325 107 333 106 328 106 b 324 78 325 97 325 90 b 319 15 324 78 321 61 l 317 -46 b 301 89 307 29 301 89 b 300 78 300 86 300 82 b 293 -37 300 78 300 54 l 286 -117 l 279 -37 b 272 78 271 54 272 78 b 269 96 271 86 269 92 b 267 94 268 96 268 94 b 251 104 258 93 257 101 b 231 107 246 107 242 108 b 236 97 231 107 221 104 b 214 83 226 93 214 83 b 210 81 203 74 214 83 b 176 81 204 79 194 83 b 153 90 160 79 161 90 b 138 93 153 90 144 90 b 111 94 121 94 111 94 b 103 93 100 96 111 94 b 92 93 103 93 93 90 l 82 93 l 72 104 l 58 88 l 51 88 b 39 88 44 90 39 88 b 21 100 35 86 26 100 b 4 128 21 100 15 100 b 0 156 4 128 -1 136 b 4 182 -1 174 4 182 b 21 210 15 210 21 210 b 39 222 26 210 35 224 b 51 222 39 222 44 219 l 58 222 l 72 206 l 82 217 l 92 217 b 103 217 93 219 103 217 b 111 215 111 215 100 214 b 138 217 111 215 121 215 b 153 219 144 219 153 219 b 176 229 161 219 160 231 b 185 228 179 228 182 228 l 182 231 l 197 229 b 210 229 203 229 207 231 b 214 226 214 226 203 236 l 226 228 b 228 278 228 235 231 265 b 233 322 228 278 226 290 l 233 456 l 235 453 b 238 472 236 458 239 461 b 238 514 235 494 239 504 b 225 578 238 514 235 524 b 225 610 228 594 225 610 b 235 639 224 626 232 629 b 238 676 238 649 239 658 b 228 667 238 676 235 696 b 214 708 224 686 214 708 b 211 718 207 732 214 708 b 211 779 210 728 214 747 b 221 824 210 811 219 807 b 224 853 221 824 221 839 b 225 903 225 885 225 903 b 224 919 226 922 225 903 b 224 939 224 919 221 935 l 224 957 l 235 976 l 218 1001 l 218 1015 b 218 1038 221 1028 218 1038 b 231 1072 217 1047 231 1063 b 258 1104 231 1072 231 1082 b 286 1111 258 1104 267 1115 b 314 1104 304 1115 314 1104 b 340 1072 340 1082 340 1072 b 353 1038 340 1063 354 1047 b 353 1015 353 1038 350 1028 l 353 1001 l 336 976 l 347 957 l 347 939 b 347 919 350 935 347 919 b 346 903 346 903 344 922 b 347 853 346 903 346 885 b 350 824 350 839 350 824 b 360 779 351 807 361 811 b 358 765 360 774 358 769 l 361 769 l 360 740 b 360 718 360 731 361 724 b 357 708 357 708 367 731 l 360 668 b 357 638 354 649 357 638 b 357 594 357 638 360 628 b 357 571 356 579 357 571 b 353 539 357 571 358 563 l 347 519 l 335 492 b 335 472 335 486 335 481 b 335 425 332 450 340 457 b 325 381 335 425 325 393 b 321 297 322 322 321 297 b 322 246 319 272 325 282 b 322 211 321 215 325 233 l 329 204 b 340 203 332 204 336 204 b 365 203 351 201 349 213 b 389 194 365 203 382 194 b 433 189 419 192 433 189 b 460 192 447 188 442 194 b 482 190 478 190 465 196 b 500 193 488 192 496 192 b 531 193 508 196 522 190 b 550 193 538 196 542 193 b 583 189 550 193 558 193 l 617 186 b 544 171 575 176 544 171 b 550 169 546 169 547 169 m 249 246 b 251 297 246 282 253 272 b 238 242 250 279 238 242 b 235 229 236 236 235 232 l 236 229 b 249 226 243 225 249 226 b 249 246 249 228 250 231 m 272 361 b 279 382 278 372 279 382 b 263 436 281 392 260 421 l 260 403 b 258 382 260 389 258 382 b 258 363 258 382 258 374 m 275 226 b 279 225 276 226 279 225 l 279 228 b 276 235 276 232 276 235 b 272 242 276 235 275 238 l 268 239 b 269 231 268 233 269 231 b 272 226 269 229 271 228 b 275 226 272 226 274 226 m 297 460 b 317 614 300 474 319 603 b 300 614 317 614 314 625 b 300 574 303 592 300 574 b 293 536 297 554 303 557 b 293 501 283 514 294 519 b 297 460 290 482 296 451 m 325 163 b 346 167 335 160 351 165 b 324 174 344 168 335 171 b 324 172 324 172 324 172 b 325 163 324 169 324 165 b 325 163 325 163 325 163 m 400 142 b 389 149 393 147 389 149 b 360 132 383 150 368 129 l 376 129 b 389 128 385 128 389 128 b 399 128 389 128 392 128 m 469 139 b 476 153 471 139 474 151 l 471 149 b 467 146 468 146 467 146 b 464 142 467 146 465 144 l 464 138 b 469 139 467 138 469 139 m 519 167 b 535 175 522 165 531 175 l 525 175 b 519 176 522 176 519 176 b 515 176 519 176 518 176 l 514 169 b 519 167 518 167 519 167 m 461 203 b 447 206 461 203 456 200 b 413 213 421 213 413 213 b 454 217 419 214 443 217 b 472 210 467 217 472 217 b 461 203 472 203 467 206 m 410 213 b 413 213 410 213 411 213 b 410 213 413 213 411 213 m 639 136 b 644 136 639 136 642 136 l 654 135 b 639 126 650 136 642 125 b 633 129 639 126 636 128 l 633 136 b 639 136 638 136 639 136 m 592 118 b 607 111 599 118 610 113 b 550 110 601 111 554 107 b 551 121 550 110 546 111 b 565 118 558 118 565 118 b 579 121 572 118 571 115 b 592 118 588 125 585 118 m 738 179 b 718 164 746 176 722 167 b 681 174 714 163 686 174 b 658 176 675 174 667 176 b 638 176 649 176 632 176 b 738 179 679 179 731 181 "},"$":{"ha":739,"x_min":0,"x_max":0,"o":"m 307 -125 b 307 -86 307 -108 307 -75 b 310 -275 310 -165 311 -261 b 294 -237 307 -289 297 -246 b 304 -168 293 -229 304 -178 b 307 -125 304 -157 307 -140 m 257 -89 b 260 -79 257 -89 258 -85 l 267 -79 b 267 -89 267 -86 267 -89 b 267 -100 267 -89 267 -93 l 265 -117 b 257 -89 267 -108 256 -94 m 249 49 b 251 22 249 36 246 38 b 249 -1 256 7 249 11 b 243 -28 249 -14 243 -35 b 240 78 242 -19 238 71 b 251 76 240 78 242 85 b 249 49 249 61 249 49 m 333 244 b 336 272 333 244 331 256 b 343 338 343 321 343 338 b 347 258 344 322 347 278 b 340 224 347 233 347 224 b 333 244 333 224 336 233 m 343 338 b 343 342 343 338 343 340 b 343 338 343 340 343 339 m 550 169 b 611 163 550 169 563 169 l 654 156 l 611 149 b 550 142 563 140 550 142 b 528 132 539 140 539 136 b 486 121 518 128 508 128 b 460 118 464 114 479 121 b 433 121 442 115 447 122 b 463 107 443 119 463 107 b 476 106 483 96 472 107 b 496 97 476 106 482 103 l 490 93 l 471 96 b 444 97 451 100 444 97 b 419 103 444 97 438 96 l 350 103 l 350 104 b 340 107 347 106 346 107 b 325 107 333 106 328 106 b 324 78 325 97 325 90 b 319 15 324 78 321 61 l 317 -46 b 301 89 307 29 301 89 b 300 78 300 86 300 82 b 293 -37 300 78 300 54 l 286 -117 l 279 -37 b 272 78 271 54 272 78 b 269 96 271 86 269 92 b 267 94 268 96 268 94 b 251 104 258 93 257 101 b 231 107 246 107 242 108 b 236 97 231 107 221 104 b 214 83 226 93 214 83 b 210 81 203 74 214 83 b 176 81 204 79 194 83 b 153 90 160 79 161 90 b 138 93 153 90 144 90 b 111 94 121 94 111 94 b 103 93 100 96 111 94 b 92 93 103 93 93 90 l 82 93 l 72 104 l 58 88 l 51 88 b 39 88 44 90 39 88 b 21 100 35 86 26 100 b 4 128 21 100 15 100 b 0 156 4 128 -1 136 b 4 182 -1 174 4 182 b 21 210 15 210 21 210 b 39 222 26 210 35 224 b 51 222 39 222 44 219 l 58 222 l 72 206 l 82 217 l 92 217 b 103 217 93 219 103 217 b 111 215 111 215 100 214 b 138 217 111 215 121 215 b 153 219 144 219 153 219 b 176 229 161 219 160 231 b 185 228 179 228 182 228 l 182 231 l 197 229 b 210 229 203 229 207 231 b 214 226 214 226 203 236 l 226 228 b 228 278 228 235 231 265 b 233 322 228 278 226 290 l 233 456 l 235 453 b 238 472 236 458 239 461 b 238 514 235 494 239 504 b 225 578 238 514 235 524 b 225 610 228 594 225 610 b 235 639 224 626 232 629 b 238 676 238 649 239 658 b 228 667 238 676 235 696 b 214 708 224 686 214 708 b 211 718 207 732 214 708 b 211 779 210 728 214 747 b 221 824 210 811 219 807 b 224 853 221 824 221 839 b 225 903 225 885 225 903 b 224 919 226 922 225 903 b 224 939 224 919 221 935 l 224 957 l 235 976 l 218 1001 l 218 1015 b 218 1038 221 1028 218 1038 b 231 1072 217 1047 231 1063 b 258 1104 231 1072 231 1082 b 286 1111 258 1104 267 1115 b 314 1104 304 1115 314 1104 b 340 1072 340 1082 340 1072 b 353 1038 340 1063 354 1047 b 353 1015 353 1038 350 1028 l 353 1001 l 336 976 l 347 957 l 347 939 b 347 919 350 935 347 919 b 346 903 346 903 344 922 b 347 853 346 903 346 885 b 350 824 350 839 350 824 b 360 779 351 807 361 811 b 358 765 360 774 358 769 l 361 769 l 360 740 b 360 718 360 731 361 724 b 357 708 357 708 367 731 l 360 668 b 357 638 354 649 357 638 b 357 594 357 638 360 628 b 357 571 356 579 357 571 b 353 539 357 571 358 563 l 347 519 l 335 492 b 335 472 335 486 335 481 b 335 425 332 450 340 457 b 325 381 335 425 325 393 b 321 297 322 322 321 297 b 322 246 319 272 325 282 b 322 211 321 215 325 233 l 329 204 b 340 203 332 204 336 204 b 365 203 351 201 349 213 b 389 194 365 203 382 194 b 433 189 419 192 433 189 b 460 192 447 188 442 194 b 482 190 478 190 465 196 b 500 193 488 192 496 192 b 531 193 508 196 522 190 b 550 193 538 196 542 193 b 583 189 550 193 558 193 l 617 186 b 544 171 575 176 544 171 b 550 169 546 169 547 169 m 249 246 b 251 297 246 282 253 272 b 238 242 250 279 238 242 b 235 229 236 236 235 232 l 236 229 b 249 226 243 225 249 226 b 249 246 249 228 250 231 m 272 361 b 279 382 278 372 279 382 b 263 436 281 392 260 421 l 260 403 b 258 382 260 389 258 382 b 258 363 258 382 258 374 m 275 226 b 279 225 276 226 279 225 l 279 228 b 276 235 276 232 276 235 b 272 242 276 235 275 238 l 268 239 b 269 231 268 233 269 231 b 272 226 269 229 271 228 b 275 226 272 226 274 226 m 297 460 b 317 614 300 474 319 603 b 300 614 317 614 314 625 b 300 574 303 592 300 574 b 293 536 297 554 303 557 b 293 501 283 514 294 519 b 297 460 290 482 296 451 m 325 163 b 346 167 335 160 351 165 b 324 174 344 168 335 171 b 324 172 324 172 324 172 b 325 163 324 169 324 165 b 325 163 325 163 325 163 m 400 142 b 389 149 393 147 389 149 b 360 132 383 150 368 129 l 376 129 b 389 128 385 128 389 128 b 399 128 389 128 392 128 m 469 139 b 476 153 471 139 474 151 l 471 149 b 467 146 468 146 467 146 b 464 142 467 146 465 144 l 464 138 b 469 139 467 138 469 139 m 519 167 b 535 175 522 165 531 175 l 525 175 b 519 176 522 176 519 176 b 515 176 519 176 518 176 l 514 169 b 519 167 518 167 519 167 m 461 203 b 447 206 461 203 456 200 b 413 213 421 213 413 213 b 454 217 419 214 443 217 b 472 210 467 217 472 217 b 461 203 472 203 467 206 m 410 213 b 413 213 410 213 411 213 b 410 213 413 213 411 213 m 639 136 b 644 136 639 136 642 136 l 654 135 b 639 126 650 136 642 125 b 633 129 639 126 636 128 l 633 136 b 639 136 638 136 639 136 m 592 118 b 607 111 599 118 610 113 b 550 110 601 111 554 107 b 551 121 550 110 546 111 b 565 118 558 118 565 118 b 579 121 572 118 571 115 b 592 118 588 125 585 118 m 738 179 b 718 164 746 176 722 167 b 681 174 714 163 686 174 b 658 176 675 174 667 176 b 638 176 649 176 632 176 b 738 179 679 179 731 181 "},"%":{"ha":739,"x_min":0,"x_max":0,"o":"m 307 -125 b 307 -86 307 -108 307 -75 b 310 -275 310 -165 311 -261 b 294 -237 307 -289 297 -246 b 304 -168 293 -229 304 -178 b 307 -125 304 -157 307 -140 m 257 -89 b 260 -79 257 -89 258 -85 l 267 -79 b 267 -89 267 -86 267 -89 b 267 -100 267 -89 267 -93 l 265 -117 b 257 -89 267 -108 256 -94 m 249 49 b 251 22 249 36 246 38 b 249 -1 256 7 249 11 b 243 -28 249 -14 243 -35 b 240 78 242 -19 238 71 b 251 76 240 78 242 85 b 249 49 249 61 249 49 m 333 244 b 336 272 333 244 331 256 b 343 338 343 321 343 338 b 347 258 344 322 347 278 b 340 224 347 233 347 224 b 333 244 333 224 336 233 m 343 338 b 343 342 343 338 343 340 b 343 338 343 340 343 339 m 550 169 b 611 163 550 169 563 169 l 654 156 l 611 149 b 550 142 563 140 550 142 b 528 132 539 140 539 136 b 486 121 518 128 508 128 b 460 118 464 114 479 121 b 433 121 442 115 447 122 b 463 107 443 119 463 107 b 476 106 483 96 472 107 b 496 97 476 106 482 103 l 490 93 l 471 96 b 444 97 451 100 444 97 b 419 103 444 97 438 96 l 350 103 l 350 104 b 340 107 347 106 346 107 b 325 107 333 106 328 106 b 324 78 325 97 325 90 b 319 15 324 78 321 61 l 317 -46 b 301 89 307 29 301 89 b 300 78 300 86 300 82 b 293 -37 300 78 300 54 l 286 -117 l 279 -37 b 272 78 271 54 272 78 b 269 96 271 86 269 92 b 267 94 268 96 268 94 b 251 104 258 93 257 101 b 231 107 246 107 242 108 b 236 97 231 107 221 104 b 214 83 226 93 214 83 b 210 81 203 74 214 83 b 176 81 204 79 194 83 b 153 90 160 79 161 90 b 138 93 153 90 144 90 b 111 94 121 94 111 94 b 103 93 100 96 111 94 b 92 93 103 93 93 90 l 82 93 l 72 104 l 58 88 l 51 88 b 39 88 44 90 39 88 b 21 100 35 86 26 100 b 4 128 21 100 15 100 b 0 156 4 128 -1 136 b 4 182 -1 174 4 182 b 21 210 15 210 21 210 b 39 222 26 210 35 224 b 51 222 39 222 44 219 l 58 222 l 72 206 l 82 217 l 92 217 b 103 217 93 219 103 217 b 111 215 111 215 100 214 b 138 217 111 215 121 215 b 153 219 144 219 153 219 b 176 229 161 219 160 231 b 185 228 179 228 182 228 l 182 231 l 197 229 b 210 229 203 229 207 231 b 214 226 214 226 203 236 l 226 228 b 228 278 228 235 231 265 b 233 322 228 278 226 290 l 233 456 l 235 453 b 238 472 236 458 239 461 b 238 514 235 494 239 504 b 225 578 238 514 235 524 b 225 610 228 594 225 610 b 235 639 224 626 232 629 b 238 676 238 649 239 658 b 228 667 238 676 235 696 b 214 708 224 686 214 708 b 211 718 207 732 214 708 b 211 779 210 728 214 747 b 221 824 210 811 219 807 b 224 853 221 824 221 839 b 225 903 225 885 225 903 b 224 919 226 922 225 903 b 224 939 224 919 221 935 l 224 957 l 235 976 l 218 1001 l 218 1015 b 218 1038 221 1028 218 1038 b 231 1072 217 1047 231 1063 b 258 1104 231 1072 231 1082 b 286 1111 258 1104 267 1115 b 314 1104 304 1115 314 1104 b 340 1072 340 1082 340 1072 b 353 1038 340 1063 354 1047 b 353 1015 353 1038 350 1028 l 353 1001 l 336 976 l 347 957 l 347 939 b 347 919 350 935 347 919 b 346 903 346 903 344 922 b 347 853 346 903 346 885 b 350 824 350 839 350 824 b 360 779 351 807 361 811 b 358 765 360 774 358 769 l 361 769 l 360 740 b 360 718 360 731 361 724 b 357 708 357 708 367 731 l 360 668 b 357 638 354 649 357 638 b 357 594 357 638 360 628 b 357 571 356 579 357 571 b 353 539 357 571 358 563 l 347 519 l 335 492 b 335 472 335 486 335 481 b 335 425 332 450 340 457 b 325 381 335 425 325 393 b 321 297 322 322 321 297 b 322 246 319 272 325 282 b 322 211 321 215 325 233 l 329 204 b 340 203 332 204 336 204 b 365 203 351 201 349 213 b 389 194 365 203 382 194 b 433 189 419 192 433 189 b 460 192 447 188 442 194 b 482 190 478 190 465 196 b 500 193 488 192 496 192 b 531 193 508 196 522 190 b 550 193 538 196 542 193 b 583 189 550 193 558 193 l 617 186 b 544 171 575 176 544 171 b 550 169 546 169 547 169 m 249 246 b 251 297 246 282 253 272 b 238 242 250 279 238 242 b 235 229 236 236 235 232 l 236 229 b 249 226 243 225 249 226 b 249 246 249 228 250 231 m 272 361 b 279 382 278 372 279 382 b 263 436 281 392 260 421 l 260 403 b 258 382 260 389 258 382 b 258 363 258 382 258 374 m 275 226 b 279 225 276 226 279 225 l 279 228 b 276 235 276 232 276 235 b 272 242 276 235 275 238 l 268 239 b 269 231 268 233 269 231 b 272 226 269 229 271 228 b 275 226 272 226 274 226 m 297 460 b 317 614 300 474 319 603 b 300 614 317 614 314 625 b 300 574 303 592 300 574 b 293 536 297 554 303 557 b 293 501 283 514 294 519 b 297 460 290 482 296 451 m 325 163 b 346 167 335 160 351 165 b 324 174 344 168 335 171 b 324 172 324 172 324 172 b 325 163 324 169 324 165 b 325 163 325 163 325 163 m 400 142 b 389 149 393 147 389 149 b 360 132 383 150 368 129 l 376 129 b 389 128 385 128 389 128 b 399 128 389 128 392 128 m 469 139 b 476 153 471 139 474 151 l 471 149 b 467 146 468 146 467 146 b 464 142 467 146 465 144 l 464 138 b 469 139 467 138 469 139 m 519 167 b 535 175 522 165 531 175 l 525 175 b 519 176 522 176 519 176 b 515 176 519 176 518 176 l 514 169 b 519 167 518 167 519 167 m 461 203 b 447 206 461 203 456 200 b 413 213 421 213 413 213 b 454 217 419 214 443 217 b 472 210 467 217 472 217 b 461 203 472 203 467 206 m 410 213 b 413 213 410 213 411 213 b 410 213 413 213 411 213 m 639 136 b 644 136 639 136 642 136 l 654 135 b 639 126 650 136 642 125 b 633 129 639 126 636 128 l 633 136 b 639 136 638 136 639 136 m 592 118 b 607 111 599 118 610 113 b 550 110 601 111 554 107 b 551 121 550 110 546 111 b 565 118 558 118 565 118 b 579 121 572 118 571 115 b 592 118 588 125 585 118 m 738 179 b 718 164 746 176 722 167 b 681 174 714 163 686 174 b 658 176 675 174 667 176 b 638 176 649 176 632 176 b 738 179 679 179 731 181 "},"&":{"ha":739,"x_min":0,"x_max":0,"o":"m 307 -125 b 307 -86 307 -108 307 -75 b 310 -275 310 -165 311 -261 b 294 -237 307 -289 297 -246 b 304 -168 293 -229 304 -178 b 307 -125 304 -157 307 -140 m 257 -89 b 260 -79 257 -89 258 -85 l 267 -79 b 267 -89 267 -86 267 -89 b 267 -100 267 -89 267 -93 l 265 -117 b 257 -89 267 -108 256 -94 m 249 49 b 251 22 249 36 246 38 b 249 -1 256 7 249 11 b 243 -28 249 -14 243 -35 b 240 78 242 -19 238 71 b 251 76 240 78 242 85 b 249 49 249 61 249 49 m 333 244 b 336 272 333 244 331 256 b 343 338 343 321 343 338 b 347 258 344 322 347 278 b 340 224 347 233 347 224 b 333 244 333 224 336 233 m 343 338 b 343 342 343 338 343 340 b 343 338 343 340 343 339 m 550 169 b 611 163 550 169 563 169 l 654 156 l 611 149 b 550 142 563 140 550 142 b 528 132 539 140 539 136 b 486 121 518 128 508 128 b 460 118 464 114 479 121 b 433 121 442 115 447 122 b 463 107 443 119 463 107 b 476 106 483 96 472 107 b 496 97 476 106 482 103 l 490 93 l 471 96 b 444 97 451 100 444 97 b 419 103 444 97 438 96 l 350 103 l 350 104 b 340 107 347 106 346 107 b 325 107 333 106 328 106 b 324 78 325 97 325 90 b 319 15 324 78 321 61 l 317 -46 b 301 89 307 29 301 89 b 300 78 300 86 300 82 b 293 -37 300 78 300 54 l 286 -117 l 279 -37 b 272 78 271 54 272 78 b 269 96 271 86 269 92 b 267 94 268 96 268 94 b 251 104 258 93 257 101 b 231 107 246 107 242 108 b 236 97 231 107 221 104 b 214 83 226 93 214 83 b 210 81 203 74 214 83 b 176 81 204 79 194 83 b 153 90 160 79 161 90 b 138 93 153 90 144 90 b 111 94 121 94 111 94 b 103 93 100 96 111 94 b 92 93 103 93 93 90 l 82 93 l 72 104 l 58 88 l 51 88 b 39 88 44 90 39 88 b 21 100 35 86 26 100 b 4 128 21 100 15 100 b 0 156 4 128 -1 136 b 4 182 -1 174 4 182 b 21 210 15 210 21 210 b 39 222 26 210 35 224 b 51 222 39 222 44 219 l 58 222 l 72 206 l 82 217 l 92 217 b 103 217 93 219 103 217 b 111 215 111 215 100 214 b 138 217 111 215 121 215 b 153 219 144 219 153 219 b 176 229 161 219 160 231 b 185 228 179 228 182 228 l 182 231 l 197 229 b 210 229 203 229 207 231 b 214 226 214 226 203 236 l 226 228 b 228 278 228 235 231 265 b 233 322 228 278 226 290 l 233 456 l 235 453 b 238 472 236 458 239 461 b 238 514 235 494 239 504 b 225 578 238 514 235 524 b 225 610 228 594 225 610 b 235 639 224 626 232 629 b 238 676 238 649 239 658 b 228 667 238 676 235 696 b 214 708 224 686 214 708 b 211 718 207 732 214 708 b 211 779 210 728 214 747 b 221 824 210 811 219 807 b 224 853 221 824 221 839 b 225 903 225 885 225 903 b 224 919 226 922 225 903 b 224 939 224 919 221 935 l 224 957 l 235 976 l 218 1001 l 218 1015 b 218 1038 221 1028 218 1038 b 231 1072 217 1047 231 1063 b 258 1104 231 1072 231 1082 b 286 1111 258 1104 267 1115 b 314 1104 304 1115 314 1104 b 340 1072 340 1082 340 1072 b 353 1038 340 1063 354 1047 b 353 1015 353 1038 350 1028 l 353 1001 l 336 976 l 347 957 l 347 939 b 347 919 350 935 347 919 b 346 903 346 903 344 922 b 347 853 346 903 346 885 b 350 824 350 839 350 824 b 360 779 351 807 361 811 b 358 765 360 774 358 769 l 361 769 l 360 740 b 360 718 360 731 361 724 b 357 708 357 708 367 731 l 360 668 b 357 638 354 649 357 638 b 357 594 357 638 360 628 b 357 571 356 579 357 571 b 353 539 357 571 358 563 l 347 519 l 335 492 b 335 472 335 486 335 481 b 335 425 332 450 340 457 b 325 381 335 425 325 393 b 321 297 322 322 321 297 b 322 246 319 272 325 282 b 322 211 321 215 325 233 l 329 204 b 340 203 332 204 336 204 b 365 203 351 201 349 213 b 389 194 365 203 382 194 b 433 189 419 192 433 189 b 460 192 447 188 442 194 b 482 190 478 190 465 196 b 500 193 488 192 496 192 b 531 193 508 196 522 190 b 550 193 538 196 542 193 b 583 189 550 193 558 193 l 617 186 b 544 171 575 176 544 171 b 550 169 546 169 547 169 m 249 246 b 251 297 246 282 253 272 b 238 242 250 279 238 242 b 235 229 236 236 235 232 l 236 229 b 249 226 243 225 249 226 b 249 246 249 228 250 231 m 272 361 b 279 382 278 372 279 382 b 263 436 281 392 260 421 l 260 403 b 258 382 260 389 258 382 b 258 363 258 382 258 374 m 275 226 b 279 225 276 226 279 225 l 279 228 b 276 235 276 232 276 235 b 272 242 276 235 275 238 l 268 239 b 269 231 268 233 269 231 b 272 226 269 229 271 228 b 275 226 272 226 274 226 m 297 460 b 317 614 300 474 319 603 b 300 614 317 614 314 625 b 300 574 303 592 300 574 b 293 536 297 554 303 557 b 293 501 283 514 294 519 b 297 460 290 482 296 451 m 325 163 b 346 167 335 160 351 165 b 324 174 344 168 335 171 b 324 172 324 172 324 172 b 325 163 324 169 324 165 b 325 163 325 163 325 163 m 400 142 b 389 149 393 147 389 149 b 360 132 383 150 368 129 l 376 129 b 389 128 385 128 389 128 b 399 128 389 128 392 128 m 469 139 b 476 153 471 139 474 151 l 471 149 b 467 146 468 146 467 146 b 464 142 467 146 465 144 l 464 138 b 469 139 467 138 469 139 m 519 167 b 535 175 522 165 531 175 l 525 175 b 519 176 522 176 519 176 b 515 176 519 176 518 176 l 514 169 b 519 167 518 167 519 167 m 461 203 b 447 206 461 203 456 200 b 413 213 421 213 413 213 b 454 217 419 214 443 217 b 472 210 467 217 472 217 b 461 203 472 203 467 206 m 410 213 b 413 213 410 213 411 213 b 410 213 413 213 411 213 m 639 136 b 644 136 639 136 642 136 l 654 135 b 639 126 650 136 642 125 b 633 129 639 126 636 128 l 633 136 b 639 136 638 136 639 136 m 592 118 b 607 111 599 118 610 113 b 550 110 601 111 554 107 b 551 121 550 110 546 111 b 565 118 558 118 565 118 b 579 121 572 118 571 115 b 592 118 588 125 585 118 m 738 179 b 718 164 746 176 722 167 b 681 174 714 163 686 174 b 658 176 675 174 667 176 b 638 176 649 176 632 176 b 738 179 679 179 731 181 "},"(":{"ha":739,"x_min":0,"x_max":0,"o":"m 307 -125 b 307 -86 307 -108 307 -75 b 310 -275 310 -165 311 -261 b 294 -237 307 -289 297 -246 b 304 -168 293 -229 304 -178 b 307 -125 304 -157 307 -140 m 257 -89 b 260 -79 257 -89 258 -85 l 267 -79 b 267 -89 267 -86 267 -89 b 267 -100 267 -89 267 -93 l 265 -117 b 257 -89 267 -108 256 -94 m 249 49 b 251 22 249 36 246 38 b 249 -1 256 7 249 11 b 243 -28 249 -14 243 -35 b 240 78 242 -19 238 71 b 251 76 240 78 242 85 b 249 49 249 61 249 49 m 333 244 b 336 272 333 244 331 256 b 343 338 343 321 343 338 b 347 258 344 322 347 278 b 340 224 347 233 347 224 b 333 244 333 224 336 233 m 343 338 b 343 342 343 338 343 340 b 343 338 343 340 343 339 m 550 169 b 611 163 550 169 563 169 l 654 156 l 611 149 b 550 142 563 140 550 142 b 528 132 539 140 539 136 b 486 121 518 128 508 128 b 460 118 464 114 479 121 b 433 121 442 115 447 122 b 463 107 443 119 463 107 b 476 106 483 96 472 107 b 496 97 476 106 482 103 l 490 93 l 471 96 b 444 97 451 100 444 97 b 419 103 444 97 438 96 l 350 103 l 350 104 b 340 107 347 106 346 107 b 325 107 333 106 328 106 b 324 78 325 97 325 90 b 319 15 324 78 321 61 l 317 -46 b 301 89 307 29 301 89 b 300 78 300 86 300 82 b 293 -37 300 78 300 54 l 286 -117 l 279 -37 b 272 78 271 54 272 78 b 269 96 271 86 269 92 b 267 94 268 96 268 94 b 251 104 258 93 257 101 b 231 107 246 107 242 108 b 236 97 231 107 221 104 b 214 83 226 93 214 83 b 210 81 203 74 214 83 b 176 81 204 79 194 83 b 153 90 160 79 161 90 b 138 93 153 90 144 90 b 111 94 121 94 111 94 b 103 93 100 96 111 94 b 92 93 103 93 93 90 l 82 93 l 72 104 l 58 88 l 51 88 b 39 88 44 90 39 88 b 21 100 35 86 26 100 b 4 128 21 100 15 100 b 0 156 4 128 -1 136 b 4 182 -1 174 4 182 b 21 210 15 210 21 210 b 39 222 26 210 35 224 b 51 222 39 222 44 219 l 58 222 l 72 206 l 82 217 l 92 217 b 103 217 93 219 103 217 b 111 215 111 215 100 214 b 138 217 111 215 121 215 b 153 219 144 219 153 219 b 176 229 161 219 160 231 b 185 228 179 228 182 228 l 182 231 l 197 229 b 210 229 203 229 207 231 b 214 226 214 226 203 236 l 226 228 b 228 278 228 235 231 265 b 233 322 228 278 226 290 l 233 456 l 235 453 b 238 472 236 458 239 461 b 238 514 235 494 239 504 b 225 578 238 514 235 524 b 225 610 228 594 225 610 b 235 639 224 626 232 629 b 238 676 238 649 239 658 b 228 667 238 676 235 696 b 214 708 224 686 214 708 b 211 718 207 732 214 708 b 211 779 210 728 214 747 b 221 824 210 811 219 807 b 224 853 221 824 221 839 b 225 903 225 885 225 903 b 224 919 226 922 225 903 b 224 939 224 919 221 935 l 224 957 l 235 976 l 218 1001 l 218 1015 b 218 1038 221 1028 218 1038 b 231 1072 217 1047 231 1063 b 258 1104 231 1072 231 1082 b 286 1111 258 1104 267 1115 b 314 1104 304 1115 314 1104 b 340 1072 340 1082 340 1072 b 353 1038 340 1063 354 1047 b 353 1015 353 1038 350 1028 l 353 1001 l 336 976 l 347 957 l 347 939 b 347 919 350 935 347 919 b 346 903 346 903 344 922 b 347 853 346 903 346 885 b 350 824 350 839 350 824 b 360 779 351 807 361 811 b 358 765 360 774 358 769 l 361 769 l 360 740 b 360 718 360 731 361 724 b 357 708 357 708 367 731 l 360 668 b 357 638 354 649 357 638 b 357 594 357 638 360 628 b 357 571 356 579 357 571 b 353 539 357 571 358 563 l 347 519 l 335 492 b 335 472 335 486 335 481 b 335 425 332 450 340 457 b 325 381 335 425 325 393 b 321 297 322 322 321 297 b 322 246 319 272 325 282 b 322 211 321 215 325 233 l 329 204 b 340 203 332 204 336 204 b 365 203 351 201 349 213 b 389 194 365 203 382 194 b 433 189 419 192 433 189 b 460 192 447 188 442 194 b 482 190 478 190 465 196 b 500 193 488 192 496 192 b 531 193 508 196 522 190 b 550 193 538 196 542 193 b 583 189 550 193 558 193 l 617 186 b 544 171 575 176 544 171 b 550 169 546 169 547 169 m 249 246 b 251 297 246 282 253 272 b 238 242 250 279 238 242 b 235 229 236 236 235 232 l 236 229 b 249 226 243 225 249 226 b 249 246 249 228 250 231 m 272 361 b 279 382 278 372 279 382 b 263 436 281 392 260 421 l 260 403 b 258 382 260 389 258 382 b 258 363 258 382 258 374 m 275 226 b 279 225 276 226 279 225 l 279 228 b 276 235 276 232 276 235 b 272 242 276 235 275 238 l 268 239 b 269 231 268 233 269 231 b 272 226 269 229 271 228 b 275 226 272 226 274 226 m 297 460 b 317 614 300 474 319 603 b 300 614 317 614 314 625 b 300 574 303 592 300 574 b 293 536 297 554 303 557 b 293 501 283 514 294 519 b 297 460 290 482 296 451 m 325 163 b 346 167 335 160 351 165 b 324 174 344 168 335 171 b 324 172 324 172 324 172 b 325 163 324 169 324 165 b 325 163 325 163 325 163 m 400 142 b 389 149 393 147 389 149 b 360 132 383 150 368 129 l 376 129 b 389 128 385 128 389 128 b 399 128 389 128 392 128 m 469 139 b 476 153 471 139 474 151 l 471 149 b 467 146 468 146 467 146 b 464 142 467 146 465 144 l 464 138 b 469 139 467 138 469 139 m 519 167 b 535 175 522 165 531 175 l 525 175 b 519 176 522 176 519 176 b 515 176 519 176 518 176 l 514 169 b 519 167 518 167 519 167 m 461 203 b 447 206 461 203 456 200 b 413 213 421 213 413 213 b 454 217 419 214 443 217 b 472 210 467 217 472 217 b 461 203 472 203 467 206 m 410 213 b 413 213 410 213 411 213 b 410 213 413 213 411 213 m 639 136 b 644 136 639 136 642 136 l 654 135 b 639 126 650 136 642 125 b 633 129 639 126 636 128 l 633 136 b 639 136 638 136 639 136 m 592 118 b 607 111 599 118 610 113 b 550 110 601 111 554 107 b 551 121 550 110 546 111 b 565 118 558 118 565 118 b 579 121 572 118 571 115 b 592 118 588 125 585 118 m 738 179 b 718 164 746 176 722 167 b 681 174 714 163 686 174 b 658 176 675 174 667 176 b 638 176 649 176 632 176 b 738 179 679 179 731 181 "},")":{"ha":739,"x_min":0,"x_max":0,"o":"m 307 -125 b 307 -86 307 -108 307 -75 b 310 -275 310 -165 311 -261 b 294 -237 307 -289 297 -246 b 304 -168 293 -229 304 -178 b 307 -125 304 -157 307 -140 m 257 -89 b 260 -79 257 -89 258 -85 l 267 -79 b 267 -89 267 -86 267 -89 b 267 -100 267 -89 267 -93 l 265 -117 b 257 -89 267 -108 256 -94 m 249 49 b 251 22 249 36 246 38 b 249 -1 256 7 249 11 b 243 -28 249 -14 243 -35 b 240 78 242 -19 238 71 b 251 76 240 78 242 85 b 249 49 249 61 249 49 m 333 244 b 336 272 333 244 331 256 b 343 338 343 321 343 338 b 347 258 344 322 347 278 b 340 224 347 233 347 224 b 333 244 333 224 336 233 m 343 338 b 343 342 343 338 343 340 b 343 338 343 340 343 339 m 550 169 b 611 163 550 169 563 169 l 654 156 l 611 149 b 550 142 563 140 550 142 b 528 132 539 140 539 136 b 486 121 518 128 508 128 b 460 118 464 114 479 121 b 433 121 442 115 447 122 b 463 107 443 119 463 107 b 476 106 483 96 472 107 b 496 97 476 106 482 103 l 490 93 l 471 96 b 444 97 451 100 444 97 b 419 103 444 97 438 96 l 350 103 l 350 104 b 340 107 347 106 346 107 b 325 107 333 106 328 106 b 324 78 325 97 325 90 b 319 15 324 78 321 61 l 317 -46 b 301 89 307 29 301 89 b 300 78 300 86 300 82 b 293 -37 300 78 300 54 l 286 -117 l 279 -37 b 272 78 271 54 272 78 b 269 96 271 86 269 92 b 267 94 268 96 268 94 b 251 104 258 93 257 101 b 231 107 246 107 242 108 b 236 97 231 107 221 104 b 214 83 226 93 214 83 b 210 81 203 74 214 83 b 176 81 204 79 194 83 b 153 90 160 79 161 90 b 138 93 153 90 144 90 b 111 94 121 94 111 94 b 103 93 100 96 111 94 b 92 93 103 93 93 90 l 82 93 l 72 104 l 58 88 l 51 88 b 39 88 44 90 39 88 b 21 100 35 86 26 100 b 4 128 21 100 15 100 b 0 156 4 128 -1 136 b 4 182 -1 174 4 182 b 21 210 15 210 21 210 b 39 222 26 210 35 224 b 51 222 39 222 44 219 l 58 222 l 72 206 l 82 217 l 92 217 b 103 217 93 219 103 217 b 111 215 111 215 100 214 b 138 217 111 215 121 215 b 153 219 144 219 153 219 b 176 229 161 219 160 231 b 185 228 179 228 182 228 l 182 231 l 197 229 b 210 229 203 229 207 231 b 214 226 214 226 203 236 l 226 228 b 228 278 228 235 231 265 b 233 322 228 278 226 290 l 233 456 l 235 453 b 238 472 236 458 239 461 b 238 514 235 494 239 504 b 225 578 238 514 235 524 b 225 610 228 594 225 610 b 235 639 224 626 232 629 b 238 676 238 649 239 658 b 228 667 238 676 235 696 b 214 708 224 686 214 708 b 211 718 207 732 214 708 b 211 779 210 728 214 747 b 221 824 210 811 219 807 b 224 853 221 824 221 839 b 225 903 225 885 225 903 b 224 919 226 922 225 903 b 224 939 224 919 221 935 l 224 957 l 235 976 l 218 1001 l 218 1015 b 218 1038 221 1028 218 1038 b 231 1072 217 1047 231 1063 b 258 1104 231 1072 231 1082 b 286 1111 258 1104 267 1115 b 314 1104 304 1115 314 1104 b 340 1072 340 1082 340 1072 b 353 1038 340 1063 354 1047 b 353 1015 353 1038 350 1028 l 353 1001 l 336 976 l 347 957 l 347 939 b 347 919 350 935 347 919 b 346 903 346 903 344 922 b 347 853 346 903 346 885 b 350 824 350 839 350 824 b 360 779 351 807 361 811 b 358 765 360 774 358 769 l 361 769 l 360 740 b 360 718 360 731 361 724 b 357 708 357 708 367 731 l 360 668 b 357 638 354 649 357 638 b 357 594 357 638 360 628 b 357 571 356 579 357 571 b 353 539 357 571 358 563 l 347 519 l 335 492 b 335 472 335 486 335 481 b 335 425 332 450 340 457 b 325 381 335 425 325 393 b 321 297 322 322 321 297 b 322 246 319 272 325 282 b 322 211 321 215 325 233 l 329 204 b 340 203 332 204 336 204 b 365 203 351 201 349 213 b 389 194 365 203 382 194 b 433 189 419 192 433 189 b 460 192 447 188 442 194 b 482 190 478 190 465 196 b 500 193 488 192 496 192 b 531 193 508 196 522 190 b 550 193 538 196 542 193 b 583 189 550 193 558 193 l 617 186 b 544 171 575 176 544 171 b 550 169 546 169 547 169 m 249 246 b 251 297 246 282 253 272 b 238 242 250 279 238 242 b 235 229 236 236 235 232 l 236 229 b 249 226 243 225 249 226 b 249 246 249 228 250 231 m 272 361 b 279 382 278 372 279 382 b 263 436 281 392 260 421 l 260 403 b 258 382 260 389 258 382 b 258 363 258 382 258 374 m 275 226 b 279 225 276 226 279 225 l 279 228 b 276 235 276 232 276 235 b 272 242 276 235 275 238 l 268 239 b 269 231 268 233 269 231 b 272 226 269 229 271 228 b 275 226 272 226 274 226 m 297 460 b 317 614 300 474 319 603 b 300 614 317 614 314 625 b 300 574 303 592 300 574 b 293 536 297 554 303 557 b 293 501 283 514 294 519 b 297 460 290 482 296 451 m 325 163 b 346 167 335 160 351 165 b 324 174 344 168 335 171 b 324 172 324 172 324 172 b 325 163 324 169 324 165 b 325 163 325 163 325 163 m 400 142 b 389 149 393 147 389 149 b 360 132 383 150 368 129 l 376 129 b 389 128 385 128 389 128 b 399 128 389 128 392 128 m 469 139 b 476 153 471 139 474 151 l 471 149 b 467 146 468 146 467 146 b 464 142 467 146 465 144 l 464 138 b 469 139 467 138 469 139 m 519 167 b 535 175 522 165 531 175 l 525 175 b 519 176 522 176 519 176 b 515 176 519 176 518 176 l 514 169 b 519 167 518 167 519 167 m 461 203 b 447 206 461 203 456 200 b 413 213 421 213 413 213 b 454 217 419 214 443 217 b 472 210 467 217 472 217 b 461 203 472 203 467 206 m 410 213 b 413 213 410 213 411 213 b 410 213 413 213 411 213 m 639 136 b 644 136 639 136 642 136 l 654 135 b 639 126 650 136 642 125 b 633 129 639 126 636 128 l 633 136 b 639 136 638 136 639 136 m 592 118 b 607 111 599 118 610 113 b 550 110 601 111 554 107 b 551 121 550 110 546 111 b 565 118 558 118 565 118 b 579 121 572 118 571 115 b 592 118 588 125 585 118 m 738 179 b 718 164 746 176 722 167 b 681 174 714 163 686 174 b 658 176 675 174 667 176 b 638 176 649 176 632 176 b 738 179 679 179 731 181 "},"*":{"ha":739,"x_min":0,"x_max":0,"o":"m 307 -125 b 307 -86 307 -108 307 -75 b 310 -275 310 -165 311 -261 b 294 -237 307 -289 297 -246 b 304 -168 293 -229 304 -178 b 307 -125 304 -157 307 -140 m 257 -89 b 260 -79 257 -89 258 -85 l 267 -79 b 267 -89 267 -86 267 -89 b 267 -100 267 -89 267 -93 l 265 -117 b 257 -89 267 -108 256 -94 m 249 49 b 251 22 249 36 246 38 b 249 -1 256 7 249 11 b 243 -28 249 -14 243 -35 b 240 78 242 -19 238 71 b 251 76 240 78 242 85 b 249 49 249 61 249 49 m 333 244 b 336 272 333 244 331 256 b 343 338 343 321 343 338 b 347 258 344 322 347 278 b 340 224 347 233 347 224 b 333 244 333 224 336 233 m 343 338 b 343 342 343 338 343 340 b 343 338 343 340 343 339 m 550 169 b 611 163 550 169 563 169 l 654 156 l 611 149 b 550 142 563 140 550 142 b 528 132 539 140 539 136 b 486 121 518 128 508 128 b 460 118 464 114 479 121 b 433 121 442 115 447 122 b 463 107 443 119 463 107 b 476 106 483 96 472 107 b 496 97 476 106 482 103 l 490 93 l 471 96 b 444 97 451 100 444 97 b 419 103 444 97 438 96 l 350 103 l 350 104 b 340 107 347 106 346 107 b 325 107 333 106 328 106 b 324 78 325 97 325 90 b 319 15 324 78 321 61 l 317 -46 b 301 89 307 29 301 89 b 300 78 300 86 300 82 b 293 -37 300 78 300 54 l 286 -117 l 279 -37 b 272 78 271 54 272 78 b 269 96 271 86 269 92 b 267 94 268 96 268 94 b 251 104 258 93 257 101 b 231 107 246 107 242 108 b 236 97 231 107 221 104 b 214 83 226 93 214 83 b 210 81 203 74 214 83 b 176 81 204 79 194 83 b 153 90 160 79 161 90 b 138 93 153 90 144 90 b 111 94 121 94 111 94 b 103 93 100 96 111 94 b 92 93 103 93 93 90 l 82 93 l 72 104 l 58 88 l 51 88 b 39 88 44 90 39 88 b 21 100 35 86 26 100 b 4 128 21 100 15 100 b 0 156 4 128 -1 136 b 4 182 -1 174 4 182 b 21 210 15 210 21 210 b 39 222 26 210 35 224 b 51 222 39 222 44 219 l 58 222 l 72 206 l 82 217 l 92 217 b 103 217 93 219 103 217 b 111 215 111 215 100 214 b 138 217 111 215 121 215 b 153 219 144 219 153 219 b 176 229 161 219 160 231 b 185 228 179 228 182 228 l 182 231 l 197 229 b 210 229 203 229 207 231 b 214 226 214 226 203 236 l 226 228 b 228 278 228 235 231 265 b 233 322 228 278 226 290 l 233 456 l 235 453 b 238 472 236 458 239 461 b 238 514 235 494 239 504 b 225 578 238 514 235 524 b 225 610 228 594 225 610 b 235 639 224 626 232 629 b 238 676 238 649 239 658 b 228 667 238 676 235 696 b 214 708 224 686 214 708 b 211 718 207 732 214 708 b 211 779 210 728 214 747 b 221 824 210 811 219 807 b 224 853 221 824 221 839 b 225 903 225 885 225 903 b 224 919 226 922 225 903 b 224 939 224 919 221 935 l 224 957 l 235 976 l 218 1001 l 218 1015 b 218 1038 221 1028 218 1038 b 231 1072 217 1047 231 1063 b 258 1104 231 1072 231 1082 b 286 1111 258 1104 267 1115 b 314 1104 304 1115 314 1104 b 340 1072 340 1082 340 1072 b 353 1038 340 1063 354 1047 b 353 1015 353 1038 350 1028 l 353 1001 l 336 976 l 347 957 l 347 939 b 347 919 350 935 347 919 b 346 903 346 903 344 922 b 347 853 346 903 346 885 b 350 824 350 839 350 824 b 360 779 351 807 361 811 b 358 765 360 774 358 769 l 361 769 l 360 740 b 360 718 360 731 361 724 b 357 708 357 708 367 731 l 360 668 b 357 638 354 649 357 638 b 357 594 357 638 360 628 b 357 571 356 579 357 571 b 353 539 357 571 358 563 l 347 519 l 335 492 b 335 472 335 486 335 481 b 335 425 332 450 340 457 b 325 381 335 425 325 393 b 321 297 322 322 321 297 b 322 246 319 272 325 282 b 322 211 321 215 325 233 l 329 204 b 340 203 332 204 336 204 b 365 203 351 201 349 213 b 389 194 365 203 382 194 b 433 189 419 192 433 189 b 460 192 447 188 442 194 b 482 190 478 190 465 196 b 500 193 488 192 496 192 b 531 193 508 196 522 190 b 550 193 538 196 542 193 b 583 189 550 193 558 193 l 617 186 b 544 171 575 176 544 171 b 550 169 546 169 547 169 m 249 246 b 251 297 246 282 253 272 b 238 242 250 279 238 242 b 235 229 236 236 235 232 l 236 229 b 249 226 243 225 249 226 b 249 246 249 228 250 231 m 272 361 b 279 382 278 372 279 382 b 263 436 281 392 260 421 l 260 403 b 258 382 260 389 258 382 b 258 363 258 382 258 374 m 275 226 b 279 225 276 226 279 225 l 279 228 b 276 235 276 232 276 235 b 272 242 276 235 275 238 l 268 239 b 269 231 268 233 269 231 b 272 226 269 229 271 228 b 275 226 272 226 274 226 m 297 460 b 317 614 300 474 319 603 b 300 614 317 614 314 625 b 300 574 303 592 300 574 b 293 536 297 554 303 557 b 293 501 283 514 294 519 b 297 460 290 482 296 451 m 325 163 b 346 167 335 160 351 165 b 324 174 344 168 335 171 b 324 172 324 172 324 172 b 325 163 324 169 324 165 b 325 163 325 163 325 163 m 400 142 b 389 149 393 147 389 149 b 360 132 383 150 368 129 l 376 129 b 389 128 385 128 389 128 b 399 128 389 128 392 128 m 469 139 b 476 153 471 139 474 151 l 471 149 b 467 146 468 146 467 146 b 464 142 467 146 465 144 l 464 138 b 469 139 467 138 469 139 m 519 167 b 535 175 522 165 531 175 l 525 175 b 519 176 522 176 519 176 b 515 176 519 176 518 176 l 514 169 b 519 167 518 167 519 167 m 461 203 b 447 206 461 203 456 200 b 413 213 421 213 413 213 b 454 217 419 214 443 217 b 472 210 467 217 472 217 b 461 203 472 203 467 206 m 410 213 b 413 213 410 213 411 213 b 410 213 413 213 411 213 m 639 136 b 644 136 639 136 642 136 l 654 135 b 639 126 650 136 642 125 b 633 129 639 126 636 128 l 633 136 b 639 136 638 136 639 136 m 592 118 b 607 111 599 118 610 113 b 550 110 601 111 554 107 b 551 121 550 110 546 111 b 565 118 558 118 565 118 b 579 121 572 118 571 115 b 592 118 588 125 585 118 m 738 179 b 718 164 746 176 722 167 b 681 174 714 163 686 174 b 658 176 675 174 667 176 b 638 176 649 176 632 176 b 738 179 679 179 731 181 "},"+":{"ha":739,"x_min":0,"x_max":0,"o":"m 307 -125 b 307 -86 307 -108 307 -75 b 310 -275 310 -165 311 -261 b 294 -237 307 -289 297 -246 b 304 -168 293 -229 304 -178 b 307 -125 304 -157 307 -140 m 257 -89 b 260 -79 257 -89 258 -85 l 267 -79 b 267 -89 267 -86 267 -89 b 267 -100 267 -89 267 -93 l 265 -117 b 257 -89 267 -108 256 -94 m 249 49 b 251 22 249 36 246 38 b 249 -1 256 7 249 11 b 243 -28 249 -14 243 -35 b 240 78 242 -19 238 71 b 251 76 240 78 242 85 b 249 49 249 61 249 49 m 333 244 b 336 272 333 244 331 256 b 343 338 343 321 343 338 b 347 258 344 322 347 278 b 340 224 347 233 347 224 b 333 244 333 224 336 233 m 343 338 b 343 342 343 338 343 340 b 343 338 343 340 343 339 m 550 169 b 611 163 550 169 563 169 l 654 156 l 611 149 b 550 142 563 140 550 142 b 528 132 539 140 539 136 b 486 121 518 128 508 128 b 460 118 464 114 479 121 b 433 121 442 115 447 122 b 463 107 443 119 463 107 b 476 106 483 96 472 107 b 496 97 476 106 482 103 l 490 93 l 471 96 b 444 97 451 100 444 97 b 419 103 444 97 438 96 l 350 103 l 350 104 b 340 107 347 106 346 107 b 325 107 333 106 328 106 b 324 78 325 97 325 90 b 319 15 324 78 321 61 l 317 -46 b 301 89 307 29 301 89 b 300 78 300 86 300 82 b 293 -37 300 78 300 54 l 286 -117 l 279 -37 b 272 78 271 54 272 78 b 269 96 271 86 269 92 b 267 94 268 96 268 94 b 251 104 258 93 257 101 b 231 107 246 107 242 108 b 236 97 231 107 221 104 b 214 83 226 93 214 83 b 210 81 203 74 214 83 b 176 81 204 79 194 83 b 153 90 160 79 161 90 b 138 93 153 90 144 90 b 111 94 121 94 111 94 b 103 93 100 96 111 94 b 92 93 103 93 93 90 l 82 93 l 72 104 l 58 88 l 51 88 b 39 88 44 90 39 88 b 21 100 35 86 26 100 b 4 128 21 100 15 100 b 0 156 4 128 -1 136 b 4 182 -1 174 4 182 b 21 210 15 210 21 210 b 39 222 26 210 35 224 b 51 222 39 222 44 219 l 58 222 l 72 206 l 82 217 l 92 217 b 103 217 93 219 103 217 b 111 215 111 215 100 214 b 138 217 111 215 121 215 b 153 219 144 219 153 219 b 176 229 161 219 160 231 b 185 228 179 228 182 228 l 182 231 l 197 229 b 210 229 203 229 207 231 b 214 226 214 226 203 236 l 226 228 b 228 278 228 235 231 265 b 233 322 228 278 226 290 l 233 456 l 235 453 b 238 472 236 458 239 461 b 238 514 235 494 239 504 b 225 578 238 514 235 524 b 225 610 228 594 225 610 b 235 639 224 626 232 629 b 238 676 238 649 239 658 b 228 667 238 676 235 696 b 214 708 224 686 214 708 b 211 718 207 732 214 708 b 211 779 210 728 214 747 b 221 824 210 811 219 807 b 224 853 221 824 221 839 b 225 903 225 885 225 903 b 224 919 226 922 225 903 b 224 939 224 919 221 935 l 224 957 l 235 976 l 218 1001 l 218 1015 b 218 1038 221 1028 218 1038 b 231 1072 217 1047 231 1063 b 258 1104 231 1072 231 1082 b 286 1111 258 1104 267 1115 b 314 1104 304 1115 314 1104 b 340 1072 340 1082 340 1072 b 353 1038 340 1063 354 1047 b 353 1015 353 1038 350 1028 l 353 1001 l 336 976 l 347 957 l 347 939 b 347 919 350 935 347 919 b 346 903 346 903 344 922 b 347 853 346 903 346 885 b 350 824 350 839 350 824 b 360 779 351 807 361 811 b 358 765 360 774 358 769 l 361 769 l 360 740 b 360 718 360 731 361 724 b 357 708 357 708 367 731 l 360 668 b 357 638 354 649 357 638 b 357 594 357 638 360 628 b 357 571 356 579 357 571 b 353 539 357 571 358 563 l 347 519 l 335 492 b 335 472 335 486 335 481 b 335 425 332 450 340 457 b 325 381 335 425 325 393 b 321 297 322 322 321 297 b 322 246 319 272 325 282 b 322 211 321 215 325 233 l 329 204 b 340 203 332 204 336 204 b 365 203 351 201 349 213 b 389 194 365 203 382 194 b 433 189 419 192 433 189 b 460 192 447 188 442 194 b 482 190 478 190 465 196 b 500 193 488 192 496 192 b 531 193 508 196 522 190 b 550 193 538 196 542 193 b 583 189 550 193 558 193 l 617 186 b 544 171 575 176 544 171 b 550 169 546 169 547 169 m 249 246 b 251 297 246 282 253 272 b 238 242 250 279 238 242 b 235 229 236 236 235 232 l 236 229 b 249 226 243 225 249 226 b 249 246 249 228 250 231 m 272 361 b 279 382 278 372 279 382 b 263 436 281 392 260 421 l 260 403 b 258 382 260 389 258 382 b 258 363 258 382 258 374 m 275 226 b 279 225 276 226 279 225 l 279 228 b 276 235 276 232 276 235 b 272 242 276 235 275 238 l 268 239 b 269 231 268 233 269 231 b 272 226 269 229 271 228 b 275 226 272 226 274 226 m 297 460 b 317 614 300 474 319 603 b 300 614 317 614 314 625 b 300 574 303 592 300 574 b 293 536 297 554 303 557 b 293 501 283 514 294 519 b 297 460 290 482 296 451 m 325 163 b 346 167 335 160 351 165 b 324 174 344 168 335 171 b 324 172 324 172 324 172 b 325 163 324 169 324 165 b 325 163 325 163 325 163 m 400 142 b 389 149 393 147 389 149 b 360 132 383 150 368 129 l 376 129 b 389 128 385 128 389 128 b 399 128 389 128 392 128 m 469 139 b 476 153 471 139 474 151 l 471 149 b 467 146 468 146 467 146 b 464 142 467 146 465 144 l 464 138 b 469 139 467 138 469 139 m 519 167 b 535 175 522 165 531 175 l 525 175 b 519 176 522 176 519 176 b 515 176 519 176 518 176 l 514 169 b 519 167 518 167 519 167 m 461 203 b 447 206 461 203 456 200 b 413 213 421 213 413 213 b 454 217 419 214 443 217 b 472 210 467 217 472 217 b 461 203 472 203 467 206 m 410 213 b 413 213 410 213 411 213 b 410 213 413 213 411 213 m 639 136 b 644 136 639 136 642 136 l 654 135 b 639 126 650 136 642 125 b 633 129 639 126 636 128 l 633 136 b 639 136 638 136 639 136 m 592 118 b 607 111 599 118 610 113 b 550 110 601 111 554 107 b 551 121 550 110 546 111 b 565 118 558 118 565 118 b 579 121 572 118 571 115 b 592 118 588 125 585 118 m 738 179 b 718 164 746 176 722 167 b 681 174 714 163 686 174 b 658 176 675 174 667 176 b 638 176 649 176 632 176 b 738 179 679 179 731 181 "},",":{"ha":739,"x_min":0,"x_max":0,"o":"m 307 -125 b 307 -86 307 -108 307 -75 b 310 -275 310 -165 311 -261 b 294 -237 307 -289 297 -246 b 304 -168 293 -229 304 -178 b 307 -125 304 -157 307 -140 m 257 -89 b 260 -79 257 -89 258 -85 l 267 -79 b 267 -89 267 -86 267 -89 b 267 -100 267 -89 267 -93 l 265 -117 b 257 -89 267 -108 256 -94 m 249 49 b 251 22 249 36 246 38 b 249 -1 256 7 249 11 b 243 -28 249 -14 243 -35 b 240 78 242 -19 238 71 b 251 76 240 78 242 85 b 249 49 249 61 249 49 m 333 244 b 336 272 333 244 331 256 b 343 338 343 321 343 338 b 347 258 344 322 347 278 b 340 224 347 233 347 224 b 333 244 333 224 336 233 m 343 338 b 343 342 343 338 343 340 b 343 338 343 340 343 339 m 550 169 b 611 163 550 169 563 169 l 654 156 l 611 149 b 550 142 563 140 550 142 b 528 132 539 140 539 136 b 486 121 518 128 508 128 b 460 118 464 114 479 121 b 433 121 442 115 447 122 b 463 107 443 119 463 107 b 476 106 483 96 472 107 b 496 97 476 106 482 103 l 490 93 l 471 96 b 444 97 451 100 444 97 b 419 103 444 97 438 96 l 350 103 l 350 104 b 340 107 347 106 346 107 b 325 107 333 106 328 106 b 324 78 325 97 325 90 b 319 15 324 78 321 61 l 317 -46 b 301 89 307 29 301 89 b 300 78 300 86 300 82 b 293 -37 300 78 300 54 l 286 -117 l 279 -37 b 272 78 271 54 272 78 b 269 96 271 86 269 92 b 267 94 268 96 268 94 b 251 104 258 93 257 101 b 231 107 246 107 242 108 b 236 97 231 107 221 104 b 214 83 226 93 214 83 b 210 81 203 74 214 83 b 176 81 204 79 194 83 b 153 90 160 79 161 90 b 138 93 153 90 144 90 b 111 94 121 94 111 94 b 103 93 100 96 111 94 b 92 93 103 93 93 90 l 82 93 l 72 104 l 58 88 l 51 88 b 39 88 44 90 39 88 b 21 100 35 86 26 100 b 4 128 21 100 15 100 b 0 156 4 128 -1 136 b 4 182 -1 174 4 182 b 21 210 15 210 21 210 b 39 222 26 210 35 224 b 51 222 39 222 44 219 l 58 222 l 72 206 l 82 217 l 92 217 b 103 217 93 219 103 217 b 111 215 111 215 100 214 b 138 217 111 215 121 215 b 153 219 144 219 153 219 b 176 229 161 219 160 231 b 185 228 179 228 182 228 l 182 231 l 197 229 b 210 229 203 229 207 231 b 214 226 214 226 203 236 l 226 228 b 228 278 228 235 231 265 b 233 322 228 278 226 290 l 233 456 l 235 453 b 238 472 236 458 239 461 b 238 514 235 494 239 504 b 225 578 238 514 235 524 b 225 610 228 594 225 610 b 235 639 224 626 232 629 b 238 676 238 649 239 658 b 228 667 238 676 235 696 b 214 708 224 686 214 708 b 211 718 207 732 214 708 b 211 779 210 728 214 747 b 221 824 210 811 219 807 b 224 853 221 824 221 839 b 225 903 225 885 225 903 b 224 919 226 922 225 903 b 224 939 224 919 221 935 l 224 957 l 235 976 l 218 1001 l 218 1015 b 218 1038 221 1028 218 1038 b 231 1072 217 1047 231 1063 b 258 1104 231 1072 231 1082 b 286 1111 258 1104 267 1115 b 314 1104 304 1115 314 1104 b 340 1072 340 1082 340 1072 b 353 1038 340 1063 354 1047 b 353 1015 353 1038 350 1028 l 353 1001 l 336 976 l 347 957 l 347 939 b 347 919 350 935 347 919 b 346 903 346 903 344 922 b 347 853 346 903 346 885 b 350 824 350 839 350 824 b 360 779 351 807 361 811 b 358 765 360 774 358 769 l 361 769 l 360 740 b 360 718 360 731 361 724 b 357 708 357 708 367 731 l 360 668 b 357 638 354 649 357 638 b 357 594 357 638 360 628 b 357 571 356 579 357 571 b 353 539 357 571 358 563 l 347 519 l 335 492 b 335 472 335 486 335 481 b 335 425 332 450 340 457 b 325 381 335 425 325 393 b 321 297 322 322 321 297 b 322 246 319 272 325 282 b 322 211 321 215 325 233 l 329 204 b 340 203 332 204 336 204 b 365 203 351 201 349 213 b 389 194 365 203 382 194 b 433 189 419 192 433 189 b 460 192 447 188 442 194 b 482 190 478 190 465 196 b 500 193 488 192 496 192 b 531 193 508 196 522 190 b 550 193 538 196 542 193 b 583 189 550 193 558 193 l 617 186 b 544 171 575 176 544 171 b 550 169 546 169 547 169 m 249 246 b 251 297 246 282 253 272 b 238 242 250 279 238 242 b 235 229 236 236 235 232 l 236 229 b 249 226 243 225 249 226 b 249 246 249 228 250 231 m 272 361 b 279 382 278 372 279 382 b 263 436 281 392 260 421 l 260 403 b 258 382 260 389 258 382 b 258 363 258 382 258 374 m 275 226 b 279 225 276 226 279 225 l 279 228 b 276 235 276 232 276 235 b 272 242 276 235 275 238 l 268 239 b 269 231 268 233 269 231 b 272 226 269 229 271 228 b 275 226 272 226 274 226 m 297 460 b 317 614 300 474 319 603 b 300 614 317 614 314 625 b 300 574 303 592 300 574 b 293 536 297 554 303 557 b 293 501 283 514 294 519 b 297 460 290 482 296 451 m 325 163 b 346 167 335 160 351 165 b 324 174 344 168 335 171 b 324 172 324 172 324 172 b 325 163 324 169 324 165 b 325 163 325 163 325 163 m 400 142 b 389 149 393 147 389 149 b 360 132 383 150 368 129 l 376 129 b 389 128 385 128 389 128 b 399 128 389 128 392 128 m 469 139 b 476 153 471 139 474 151 l 471 149 b 467 146 468 146 467 146 b 464 142 467 146 465 144 l 464 138 b 469 139 467 138 469 139 m 519 167 b 535 175 522 165 531 175 l 525 175 b 519 176 522 176 519 176 b 515 176 519 176 518 176 l 514 169 b 519 167 518 167 519 167 m 461 203 b 447 206 461 203 456 200 b 413 213 421 213 413 213 b 454 217 419 214 443 217 b 472 210 467 217 472 217 b 461 203 472 203 467 206 m 410 213 b 413 213 410 213 411 213 b 410 213 413 213 411 213 m 639 136 b 644 136 639 136 642 136 l 654 135 b 639 126 650 136 642 125 b 633 129 639 126 636 128 l 633 136 b 639 136 638 136 639 136 m 592 118 b 607 111 599 118 610 113 b 550 110 601 111 554 107 b 551 121 550 110 546 111 b 565 118 558 118 565 118 b 579 121 572 118 571 115 b 592 118 588 125 585 118 m 738 179 b 718 164 746 176 722 167 b 681 174 714 163 686 174 b 658 176 675 174 667 176 b 638 176 649 176 632 176 b 738 179 679 179 731 181 "},"-":{"ha":739,"x_min":0,"x_max":0,"o":"m 307 -125 b 307 -86 307 -108 307 -75 b 310 -275 310 -165 311 -261 b 294 -237 307 -289 297 -246 b 304 -168 293 -229 304 -178 b 307 -125 304 -157 307 -140 m 257 -89 b 260 -79 257 -89 258 -85 l 267 -79 b 267 -89 267 -86 267 -89 b 267 -100 267 -89 267 -93 l 265 -117 b 257 -89 267 -108 256 -94 m 249 49 b 251 22 249 36 246 38 b 249 -1 256 7 249 11 b 243 -28 249 -14 243 -35 b 240 78 242 -19 238 71 b 251 76 240 78 242 85 b 249 49 249 61 249 49 m 333 244 b 336 272 333 244 331 256 b 343 338 343 321 343 338 b 347 258 344 322 347 278 b 340 224 347 233 347 224 b 333 244 333 224 336 233 m 343 338 b 343 342 343 338 343 340 b 343 338 343 340 343 339 m 550 169 b 611 163 550 169 563 169 l 654 156 l 611 149 b 550 142 563 140 550 142 b 528 132 539 140 539 136 b 486 121 518 128 508 128 b 460 118 464 114 479 121 b 433 121 442 115 447 122 b 463 107 443 119 463 107 b 476 106 483 96 472 107 b 496 97 476 106 482 103 l 490 93 l 471 96 b 444 97 451 100 444 97 b 419 103 444 97 438 96 l 350 103 l 350 104 b 340 107 347 106 346 107 b 325 107 333 106 328 106 b 324 78 325 97 325 90 b 319 15 324 78 321 61 l 317 -46 b 301 89 307 29 301 89 b 300 78 300 86 300 82 b 293 -37 300 78 300 54 l 286 -117 l 279 -37 b 272 78 271 54 272 78 b 269 96 271 86 269 92 b 267 94 268 96 268 94 b 251 104 258 93 257 101 b 231 107 246 107 242 108 b 236 97 231 107 221 104 b 214 83 226 93 214 83 b 210 81 203 74 214 83 b 176 81 204 79 194 83 b 153 90 160 79 161 90 b 138 93 153 90 144 90 b 111 94 121 94 111 94 b 103 93 100 96 111 94 b 92 93 103 93 93 90 l 82 93 l 72 104 l 58 88 l 51 88 b 39 88 44 90 39 88 b 21 100 35 86 26 100 b 4 128 21 100 15 100 b 0 156 4 128 -1 136 b 4 182 -1 174 4 182 b 21 210 15 210 21 210 b 39 222 26 210 35 224 b 51 222 39 222 44 219 l 58 222 l 72 206 l 82 217 l 92 217 b 103 217 93 219 103 217 b 111 215 111 215 100 214 b 138 217 111 215 121 215 b 153 219 144 219 153 219 b 176 229 161 219 160 231 b 185 228 179 228 182 228 l 182 231 l 197 229 b 210 229 203 229 207 231 b 214 226 214 226 203 236 l 226 228 b 228 278 228 235 231 265 b 233 322 228 278 226 290 l 233 456 l 235 453 b 238 472 236 458 239 461 b 238 514 235 494 239 504 b 225 578 238 514 235 524 b 225 610 228 594 225 610 b 235 639 224 626 232 629 b 238 676 238 649 239 658 b 228 667 238 676 235 696 b 214 708 224 686 214 708 b 211 718 207 732 214 708 b 211 779 210 728 214 747 b 221 824 210 811 219 807 b 224 853 221 824 221 839 b 225 903 225 885 225 903 b 224 919 226 922 225 903 b 224 939 224 919 221 935 l 224 957 l 235 976 l 218 1001 l 218 1015 b 218 1038 221 1028 218 1038 b 231 1072 217 1047 231 1063 b 258 1104 231 1072 231 1082 b 286 1111 258 1104 267 1115 b 314 1104 304 1115 314 1104 b 340 1072 340 1082 340 1072 b 353 1038 340 1063 354 1047 b 353 1015 353 1038 350 1028 l 353 1001 l 336 976 l 347 957 l 347 939 b 347 919 350 935 347 919 b 346 903 346 903 344 922 b 347 853 346 903 346 885 b 350 824 350 839 350 824 b 360 779 351 807 361 811 b 358 765 360 774 358 769 l 361 769 l 360 740 b 360 718 360 731 361 724 b 357 708 357 708 367 731 l 360 668 b 357 638 354 649 357 638 b 357 594 357 638 360 628 b 357 571 356 579 357 571 b 353 539 357 571 358 563 l 347 519 l 335 492 b 335 472 335 486 335 481 b 335 425 332 450 340 457 b 325 381 335 425 325 393 b 321 297 322 322 321 297 b 322 246 319 272 325 282 b 322 211 321 215 325 233 l 329 204 b 340 203 332 204 336 204 b 365 203 351 201 349 213 b 389 194 365 203 382 194 b 433 189 419 192 433 189 b 460 192 447 188 442 194 b 482 190 478 190 465 196 b 500 193 488 192 496 192 b 531 193 508 196 522 190 b 550 193 538 196 542 193 b 583 189 550 193 558 193 l 617 186 b 544 171 575 176 544 171 b 550 169 546 169 547 169 m 249 246 b 251 297 246 282 253 272 b 238 242 250 279 238 242 b 235 229 236 236 235 232 l 236 229 b 249 226 243 225 249 226 b 249 246 249 228 250 231 m 272 361 b 279 382 278 372 279 382 b 263 436 281 392 260 421 l 260 403 b 258 382 260 389 258 382 b 258 363 258 382 258 374 m 275 226 b 279 225 276 226 279 225 l 279 228 b 276 235 276 232 276 235 b 272 242 276 235 275 238 l 268 239 b 269 231 268 233 269 231 b 272 226 269 229 271 228 b 275 226 272 226 274 226 m 297 460 b 317 614 300 474 319 603 b 300 614 317 614 314 625 b 300 574 303 592 300 574 b 293 536 297 554 303 557 b 293 501 283 514 294 519 b 297 460 290 482 296 451 m 325 163 b 346 167 335 160 351 165 b 324 174 344 168 335 171 b 324 172 324 172 324 172 b 325 163 324 169 324 165 b 325 163 325 163 325 163 m 400 142 b 389 149 393 147 389 149 b 360 132 383 150 368 129 l 376 129 b 389 128 385 128 389 128 b 399 128 389 128 392 128 m 469 139 b 476 153 471 139 474 151 l 471 149 b 467 146 468 146 467 146 b 464 142 467 146 465 144 l 464 138 b 469 139 467 138 469 139 m 519 167 b 535 175 522 165 531 175 l 525 175 b 519 176 522 176 519 176 b 515 176 519 176 518 176 l 514 169 b 519 167 518 167 519 167 m 461 203 b 447 206 461 203 456 200 b 413 213 421 213 413 213 b 454 217 419 214 443 217 b 472 210 467 217 472 217 b 461 203 472 203 467 206 m 410 213 b 413 213 410 213 411 213 b 410 213 413 213 411 213 m 639 136 b 644 136 639 136 642 136 l 654 135 b 639 126 650 136 642 125 b 633 129 639 126 636 128 l 633 136 b 639 136 638 136 639 136 m 592 118 b 607 111 599 118 610 113 b 550 110 601 111 554 107 b 551 121 550 110 546 111 b 565 118 558 118 565 118 b 579 121 572 118 571 115 b 592 118 588 125 585 118 m 738 179 b 718 164 746 176 722 167 b 681 174 714 163 686 174 b 658 176 675 174 667 176 b 638 176 649 176 632 176 b 738 179 679 179 731 181 "},".":{"ha":479,"x_min":0,"x_max":0,"o":"m 439 365 b 449 369 442 368 449 371 b 424 343 446 367 426 344 b 419 350 424 343 421 343 b 426 354 424 351 426 354 b 432 361 431 357 431 356 b 439 365 433 367 436 363 m 478 456 b 475 440 482 457 475 443 b 454 429 474 438 457 432 b 443 421 451 426 446 424 b 433 413 439 417 431 410 b 478 456 451 431 474 454 m 451 394 b 454 396 451 394 453 394 l 458 400 b 456 389 457 399 458 390 b 453 389 456 389 454 389 l 450 392 b 451 394 451 393 451 394 m 90 51 b 92 54 90 51 90 53 l 96 50 b 94 47 94 49 94 47 b 83 44 93 46 86 47 l 88 49 b 90 51 89 50 90 51 m 136 82 b 142 76 142 79 142 76 b 115 54 140 74 118 56 b 119 63 114 53 115 60 b 124 69 122 65 118 68 b 131 74 129 71 128 71 b 136 82 131 74 135 76 m 360 276 l 358 276 l 358 268 l 354 263 b 350 258 354 261 350 258 b 344 257 344 257 349 261 b 333 243 344 257 340 251 b 328 236 332 240 328 236 b 321 222 324 232 329 228 b 307 208 313 215 310 210 b 303 207 303 207 313 208 b 299 207 301 207 300 207 b 299 206 299 207 299 206 b 303 204 303 201 299 206 b 308 199 303 204 308 201 l 313 194 l 313 185 l 325 188 l 328 185 b 333 179 331 181 333 179 b 336 172 335 179 336 175 b 342 167 338 171 340 168 b 347 156 347 161 350 160 b 339 157 343 153 342 156 b 336 158 338 158 338 158 b 335 151 336 157 335 154 b 343 143 340 146 338 151 b 351 136 346 140 349 138 b 365 124 357 133 361 126 b 374 115 369 122 371 119 b 388 99 374 115 378 111 l 400 83 b 361 107 378 97 361 107 b 364 104 363 106 363 106 b 388 75 364 104 369 99 l 404 54 l 382 68 b 351 92 357 85 351 92 b 338 96 346 96 344 94 b 314 108 331 99 326 103 b 303 118 301 115 310 113 b 297 115 300 117 299 117 b 297 113 297 115 297 114 b 303 106 301 99 301 108 b 308 94 303 106 304 103 l 303 94 l 296 104 b 286 115 290 113 286 115 b 275 117 282 115 276 114 b 269 122 275 117 274 121 l 267 125 l 268 138 l 267 138 l 258 138 l 253 142 b 249 146 251 142 249 146 b 246 150 246 150 250 146 b 239 156 244 153 242 154 b 233 150 238 154 235 153 b 231 146 229 146 233 150 b 226 142 231 146 228 142 l 221 138 l 213 138 l 211 138 l 213 125 l 210 122 b 204 117 206 121 204 117 b 193 115 203 114 196 115 b 183 104 193 115 189 113 l 175 94 l 171 94 b 176 106 175 103 176 106 b 182 113 178 108 178 99 b 182 115 182 114 182 115 b 176 118 181 117 179 117 b 165 108 169 113 178 115 b 142 96 153 103 149 99 b 128 92 135 94 133 96 b 97 68 128 92 122 85 l 75 54 l 92 75 b 115 104 110 99 115 104 b 118 107 117 106 117 106 b 78 83 118 107 100 97 l 92 99 b 104 115 101 111 104 115 b 114 124 108 119 110 122 b 128 136 118 126 122 133 b 136 143 131 138 133 140 b 144 151 142 151 139 146 b 143 158 144 154 143 157 b 140 157 142 158 142 158 b 132 156 138 156 135 153 b 138 167 129 160 132 161 b 143 172 139 168 142 171 b 146 179 143 175 143 179 b 151 185 146 179 149 181 l 154 188 l 167 185 l 167 194 l 171 199 b 176 204 171 201 176 204 b 181 206 181 206 176 201 b 181 207 181 206 181 207 b 175 207 179 207 178 207 b 172 208 167 208 175 207 b 158 222 169 210 167 215 b 151 236 149 228 156 232 b 146 243 151 236 147 240 b 135 257 139 251 135 257 b 129 258 131 261 135 257 b 125 263 129 258 125 261 l 121 268 l 121 276 l 119 276 l 108 275 l 104 278 b 99 283 103 282 99 283 b 97 294 97 285 97 292 b 85 304 97 294 93 299 l 75 311 l 75 315 b 86 311 83 311 86 311 b 93 306 89 310 79 308 b 97 306 94 306 96 306 b 99 311 97 307 97 308 b 89 321 92 318 96 310 b 75 344 82 335 78 339 b 69 358 72 351 74 353 b 44 388 69 358 63 364 l 29 408 l 51 394 b 81 371 76 376 81 371 b 85 369 82 371 83 369 b 60 407 85 369 74 386 l 75 394 b 92 382 88 386 92 382 b 101 374 96 379 99 378 b 114 361 103 369 111 365 b 122 353 115 358 119 356 b 131 344 131 349 124 350 b 138 347 133 346 135 346 b 136 349 138 347 136 349 b 133 357 135 353 131 354 b 146 353 138 361 140 358 b 151 347 147 351 149 349 b 158 346 154 347 157 347 b 164 340 158 346 160 342 l 167 338 l 165 324 l 175 325 l 179 321 b 185 317 182 321 185 317 b 188 313 188 313 182 317 b 200 301 188 313 192 307 b 208 296 204 300 208 296 b 222 290 211 293 217 299 b 225 286 224 289 225 288 l 226 289 l 232 282 b 238 276 235 279 236 278 b 239 274 239 274 238 282 b 239 272 239 274 239 274 b 240 274 240 274 240 274 b 242 276 242 282 240 274 b 247 282 243 278 244 279 l 253 289 l 253 286 b 257 290 254 288 256 289 b 271 296 263 299 267 293 b 279 301 271 296 275 300 b 292 313 288 307 292 313 b 294 317 297 317 292 313 b 300 321 294 317 297 321 l 304 325 l 314 324 l 313 338 l 315 340 b 321 346 319 342 321 346 b 328 347 322 347 325 347 b 333 353 331 349 332 351 b 344 357 339 358 342 361 b 343 349 349 354 344 353 b 342 347 343 349 342 347 b 349 344 344 346 346 346 b 357 353 356 350 349 349 b 364 361 360 356 363 358 b 378 374 368 365 376 369 b 388 382 381 378 383 379 b 404 394 388 382 390 386 l 419 407 b 394 369 406 386 394 369 b 397 371 396 369 397 371 b 428 394 397 371 403 376 l 450 408 l 435 388 b 410 358 415 364 410 358 b 404 344 406 353 407 351 b 390 321 401 339 397 335 b 381 311 383 310 386 318 b 382 306 381 308 382 307 b 386 306 383 306 385 306 b 393 311 400 308 390 310 b 404 315 393 311 396 311 l 404 311 l 394 304 b 382 294 386 299 382 294 b 379 283 382 292 382 285 b 375 278 379 283 376 282 l 371 275 m 381 363 b 379 360 381 363 381 361 l 382 357 b 385 357 383 357 385 357 b 388 367 388 358 386 365 l 383 364 b 381 363 382 363 381 363 m 371 328 b 371 328 371 328 371 328 b 375 324 372 326 374 325 b 372 332 374 326 371 331 l 371 328 m 100 360 b 99 363 99 361 99 363 b 96 364 99 363 97 363 l 90 367 b 93 357 93 365 92 358 b 97 357 93 357 96 357 m 104 324 b 108 328 106 325 107 326 b 108 328 108 328 108 328 l 107 332 b 104 324 108 331 106 326 m 131 115 b 131 119 131 115 131 117 l 128 122 b 125 121 126 121 125 121 b 124 118 125 121 125 119 l 119 114 b 131 115 121 115 129 114 m 156 128 b 164 125 157 128 161 125 b 160 128 163 126 161 128 b 160 128 160 128 160 128 l 156 128 m 347 119 b 349 115 349 117 349 115 b 360 114 350 114 358 115 l 356 118 b 353 121 354 119 353 121 b 351 122 353 121 353 121 m 319 128 b 315 125 318 128 317 126 b 324 128 318 125 322 128 l 319 128 b 319 128 319 128 319 128 m 26 29 b 72 71 29 33 53 54 b 64 63 76 72 68 65 b 54 51 60 58 57 54 b 42 31 53 49 44 32 b 26 29 39 31 25 25 m 36 421 b 25 429 32 424 28 426 b 4 440 22 432 6 438 b 1 456 3 443 -3 457 b 46 413 6 454 28 431 b 36 421 49 410 40 417 m 26 389 b 22 389 25 389 22 389 b 21 400 21 390 22 399 l 25 396 b 28 394 26 394 28 394 b 29 392 28 394 28 393 m 56 343 b 31 369 53 344 33 367 b 40 365 29 371 38 368 b 47 361 43 363 46 367 b 53 354 49 356 49 357 b 60 350 53 354 56 351 b 56 343 58 343 56 343 m 389 51 b 392 49 389 51 390 50 l 394 44 b 385 47 393 47 386 46 b 383 50 385 47 385 49 l 388 54 b 389 51 389 53 389 51 m 406 71 b 453 29 426 54 450 33 b 438 31 454 25 440 31 b 425 51 433 32 426 49 b 415 63 422 54 419 58 b 406 71 411 65 403 72 m 360 63 b 364 54 364 60 365 53 b 338 76 361 56 339 74 b 343 82 338 76 338 79 b 349 74 344 76 349 74 b 356 69 351 71 350 71 b 360 63 361 68 357 65 "},"/":{"ha":739,"x_min":0,"x_max":0,"o":"m 307 -125 b 307 -86 307 -108 307 -75 b 310 -275 310 -165 311 -261 b 294 -237 307 -289 297 -246 b 304 -168 293 -229 304 -178 b 307 -125 304 -157 307 -140 m 257 -89 b 260 -79 257 -89 258 -85 l 267 -79 b 267 -89 267 -86 267 -89 b 267 -100 267 -89 267 -93 l 265 -117 b 257 -89 267 -108 256 -94 m 249 49 b 251 22 249 36 246 38 b 249 -1 256 7 249 11 b 243 -28 249 -14 243 -35 b 240 78 242 -19 238 71 b 251 76 240 78 242 85 b 249 49 249 61 249 49 m 333 244 b 336 272 333 244 331 256 b 343 338 343 321 343 338 b 347 258 344 322 347 278 b 340 224 347 233 347 224 b 333 244 333 224 336 233 m 343 338 b 343 342 343 338 343 340 b 343 338 343 340 343 339 m 550 169 b 611 163 550 169 563 169 l 654 156 l 611 149 b 550 142 563 140 550 142 b 528 132 539 140 539 136 b 486 121 518 128 508 128 b 460 118 464 114 479 121 b 433 121 442 115 447 122 b 463 107 443 119 463 107 b 476 106 483 96 472 107 b 496 97 476 106 482 103 l 490 93 l 471 96 b 444 97 451 100 444 97 b 419 103 444 97 438 96 l 350 103 l 350 104 b 340 107 347 106 346 107 b 325 107 333 106 328 106 b 324 78 325 97 325 90 b 319 15 324 78 321 61 l 317 -46 b 301 89 307 29 301 89 b 300 78 300 86 300 82 b 293 -37 300 78 300 54 l 286 -117 l 279 -37 b 272 78 271 54 272 78 b 269 96 271 86 269 92 b 267 94 268 96 268 94 b 251 104 258 93 257 101 b 231 107 246 107 242 108 b 236 97 231 107 221 104 b 214 83 226 93 214 83 b 210 81 203 74 214 83 b 176 81 204 79 194 83 b 153 90 160 79 161 90 b 138 93 153 90 144 90 b 111 94 121 94 111 94 b 103 93 100 96 111 94 b 92 93 103 93 93 90 l 82 93 l 72 104 l 58 88 l 51 88 b 39 88 44 90 39 88 b 21 100 35 86 26 100 b 4 128 21 100 15 100 b 0 156 4 128 -1 136 b 4 182 -1 174 4 182 b 21 210 15 210 21 210 b 39 222 26 210 35 224 b 51 222 39 222 44 219 l 58 222 l 72 206 l 82 217 l 92 217 b 103 217 93 219 103 217 b 111 215 111 215 100 214 b 138 217 111 215 121 215 b 153 219 144 219 153 219 b 176 229 161 219 160 231 b 185 228 179 228 182 228 l 182 231 l 197 229 b 210 229 203 229 207 231 b 214 226 214 226 203 236 l 226 228 b 228 278 228 235 231 265 b 233 322 228 278 226 290 l 233 456 l 235 453 b 238 472 236 458 239 461 b 238 514 235 494 239 504 b 225 578 238 514 235 524 b 225 610 228 594 225 610 b 235 639 224 626 232 629 b 238 676 238 649 239 658 b 228 667 238 676 235 696 b 214 708 224 686 214 708 b 211 718 207 732 214 708 b 211 779 210 728 214 747 b 221 824 210 811 219 807 b 224 853 221 824 221 839 b 225 903 225 885 225 903 b 224 919 226 922 225 903 b 224 939 224 919 221 935 l 224 957 l 235 976 l 218 1001 l 218 1015 b 218 1038 221 1028 218 1038 b 231 1072 217 1047 231 1063 b 258 1104 231 1072 231 1082 b 286 1111 258 1104 267 1115 b 314 1104 304 1115 314 1104 b 340 1072 340 1082 340 1072 b 353 1038 340 1063 354 1047 b 353 1015 353 1038 350 1028 l 353 1001 l 336 976 l 347 957 l 347 939 b 347 919 350 935 347 919 b 346 903 346 903 344 922 b 347 853 346 903 346 885 b 350 824 350 839 350 824 b 360 779 351 807 361 811 b 358 765 360 774 358 769 l 361 769 l 360 740 b 360 718 360 731 361 724 b 357 708 357 708 367 731 l 360 668 b 357 638 354 649 357 638 b 357 594 357 638 360 628 b 357 571 356 579 357 571 b 353 539 357 571 358 563 l 347 519 l 335 492 b 335 472 335 486 335 481 b 335 425 332 450 340 457 b 325 381 335 425 325 393 b 321 297 322 322 321 297 b 322 246 319 272 325 282 b 322 211 321 215 325 233 l 329 204 b 340 203 332 204 336 204 b 365 203 351 201 349 213 b 389 194 365 203 382 194 b 433 189 419 192 433 189 b 460 192 447 188 442 194 b 482 190 478 190 465 196 b 500 193 488 192 496 192 b 531 193 508 196 522 190 b 550 193 538 196 542 193 b 583 189 550 193 558 193 l 617 186 b 544 171 575 176 544 171 b 550 169 546 169 547 169 m 249 246 b 251 297 246 282 253 272 b 238 242 250 279 238 242 b 235 229 236 236 235 232 l 236 229 b 249 226 243 225 249 226 b 249 246 249 228 250 231 m 272 361 b 279 382 278 372 279 382 b 263 436 281 392 260 421 l 260 403 b 258 382 260 389 258 382 b 258 363 258 382 258 374 m 275 226 b 279 225 276 226 279 225 l 279 228 b 276 235 276 232 276 235 b 272 242 276 235 275 238 l 268 239 b 269 231 268 233 269 231 b 272 226 269 229 271 228 b 275 226 272 226 274 226 m 297 460 b 317 614 300 474 319 603 b 300 614 317 614 314 625 b 300 574 303 592 300 574 b 293 536 297 554 303 557 b 293 501 283 514 294 519 b 297 460 290 482 296 451 m 325 163 b 346 167 335 160 351 165 b 324 174 344 168 335 171 b 324 172 324 172 324 172 b 325 163 324 169 324 165 b 325 163 325 163 325 163 m 400 142 b 389 149 393 147 389 149 b 360 132 383 150 368 129 l 376 129 b 389 128 385 128 389 128 b 399 128 389 128 392 128 m 469 139 b 476 153 471 139 474 151 l 471 149 b 467 146 468 146 467 146 b 464 142 467 146 465 144 l 464 138 b 469 139 467 138 469 139 m 519 167 b 535 175 522 165 531 175 l 525 175 b 519 176 522 176 519 176 b 515 176 519 176 518 176 l 514 169 b 519 167 518 167 519 167 m 461 203 b 447 206 461 203 456 200 b 413 213 421 213 413 213 b 454 217 419 214 443 217 b 472 210 467 217 472 217 b 461 203 472 203 467 206 m 410 213 b 413 213 410 213 411 213 b 410 213 413 213 411 213 m 639 136 b 644 136 639 136 642 136 l 654 135 b 639 126 650 136 642 125 b 633 129 639 126 636 128 l 633 136 b 639 136 638 136 639 136 m 592 118 b 607 111 599 118 610 113 b 550 110 601 111 554 107 b 551 121 550 110 546 111 b 565 118 558 118 565 118 b 579 121 572 118 571 115 b 592 118 588 125 585 118 m 738 179 b 718 164 746 176 722 167 b 681 174 714 163 686 174 b 658 176 675 174 667 176 b 638 176 649 176 632 176 b 738 179 679 179 731 181 "},":":{"ha":1117,"x_min":0,"x_max":0,"o":"m 500 -254 b 501 -264 500 -254 500 -257 l 504 -278 b 492 -256 503 -271 492 -260 b 493 -246 492 -256 492 -251 l 499 -246 b 500 -254 500 -250 500 -254 m 488 124 b 488 128 488 124 488 126 b 488 124 488 128 488 126 m 251 1089 b 250 1099 251 1089 251 1093 l 249 1111 b 260 1092 249 1106 260 1096 b 258 1082 260 1092 260 1088 l 253 1082 b 251 1089 253 1086 251 1089 m 268 742 b 269 738 268 742 269 739 b 268 742 269 739 268 740 m 260 815 b 263 794 260 815 264 808 b 268 742 265 754 268 742 b 251 803 265 753 254 788 b 250 832 246 822 244 831 b 260 815 256 833 256 824 m 285 1006 b 282 1024 278 1017 285 1014 b 282 1046 279 1035 281 1050 b 303 964 285 1039 303 969 b 293 963 303 964 303 957 b 290 985 293 975 290 985 b 285 1006 289 994 292 993 m 481 -246 b 481 -256 482 -251 481 -256 b 468 -278 481 -260 469 -271 l 471 -262 b 472 -254 472 -257 472 -254 b 475 -246 472 -254 474 -250 m 496 124 b 497 128 496 126 496 128 b 496 124 496 126 496 124 m 1085 261 b 1115 251 1092 260 1126 254 b 964 247 1104 249 1026 247 b 994 249 954 247 981 247 b 1028 251 1007 249 1019 251 b 1085 261 1038 251 1078 263 m 964 279 b 957 278 964 279 961 279 l 956 283 b 964 288 960 286 964 288 b 986 281 968 288 981 281 l 974 279 b 964 279 968 279 964 279 m 881 233 b 858 231 876 233 868 232 b 863 224 858 231 861 226 l 857 231 b 832 228 847 229 838 228 b 801 226 819 228 813 225 b 757 225 790 228 769 224 b 728 225 750 225 738 225 b 697 224 706 221 722 226 b 656 224 668 219 676 226 b 628 219 649 222 639 221 l 629 218 l 626 208 b 625 203 625 207 625 203 b 676 211 625 203 639 204 b 699 214 689 215 699 214 b 715 210 707 213 715 215 b 688 203 715 204 707 203 b 625 203 672 201 636 203 b 622 190 624 200 622 194 b 607 165 622 183 608 174 b 597 156 607 163 603 158 l 582 92 b 578 51 582 63 578 51 b 569 8 578 51 575 40 l 564 -22 l 558 -31 b 560 0 560 -7 560 0 b 563 24 560 8 563 -11 b 563 74 563 24 560 58 b 554 29 556 51 564 58 b 543 -11 546 0 557 24 b 518 -76 529 -44 525 -61 b 515 -83 517 -79 515 -81 b 518 -100 515 -87 517 -93 b 519 -114 518 -103 519 -108 b 528 -117 522 -114 528 -111 b 524 -140 528 -118 526 -128 b 525 -154 524 -140 524 -149 l 533 -207 b 518 -160 526 -187 518 -160 b 510 -190 515 -171 513 -182 b 513 -204 510 -190 511 -199 l 521 -275 l 500 -207 b 488 -158 493 -183 488 -158 b 474 -207 488 -158 482 -183 l 451 -274 l 463 -204 b 465 -190 463 -199 465 -190 b 457 -160 463 -182 460 -171 b 440 -207 457 -160 449 -186 l 451 -153 b 453 -140 453 -147 453 -140 b 449 -115 450 -128 449 -118 b 457 -114 449 -111 454 -112 b 460 -99 458 -108 458 -103 b 463 -82 461 -93 463 -87 b 460 -76 463 -81 461 -79 b 436 -11 453 -61 450 -44 b 426 29 424 24 435 0 b 419 74 418 58 426 51 b 418 24 422 58 418 24 b 421 0 418 -11 421 8 b 421 -31 421 0 421 -7 l 415 -22 l 411 8 b 404 51 407 40 404 51 b 401 92 404 51 400 63 l 382 182 b 360 179 382 182 374 183 l 326 179 b 318 178 308 171 326 179 b 301 176 315 176 310 176 l 276 174 l 281 176 b 269 175 278 176 274 175 b 233 181 244 172 246 181 b 211 182 233 181 221 181 b 169 182 185 183 169 182 b 157 179 154 182 169 182 b 142 179 157 179 144 178 l 126 178 l 110 188 l 96 176 b 21 93 61 138 28 99 b 33 122 13 86 31 115 b 75 158 36 128 69 153 b 90 174 79 163 85 168 l 81 172 b 63 172 69 174 63 172 b 33 181 54 169 42 181 b 7 201 33 181 26 179 b 1 224 7 201 -1 208 b 6 246 -3 238 6 246 b 29 269 22 268 29 269 b 57 279 38 269 50 281 b 75 281 57 279 65 278 l 86 281 l 107 268 l 113 272 b 165 335 121 282 161 332 b 172 328 165 335 171 338 b 156 314 163 321 156 314 b 143 297 149 306 149 308 b 129 285 138 285 136 292 b 124 279 128 282 126 281 l 138 279 b 153 279 139 281 153 279 b 154 279 153 279 153 279 b 185 319 167 296 179 313 b 201 347 194 333 193 335 b 236 400 208 361 218 372 b 260 431 254 428 243 408 b 288 458 276 451 276 443 b 251 433 278 449 251 433 b 236 418 225 414 240 422 b 213 401 236 418 229 414 l 215 410 l 236 429 b 264 458 257 450 264 458 b 290 483 264 458 269 467 l 307 501 b 307 503 307 501 307 501 b 304 526 307 503 304 515 b 300 553 303 539 300 553 b 299 556 300 554 300 556 b 297 572 297 560 297 567 b 293 581 296 579 297 569 b 290 596 293 581 289 593 l 288 611 l 293 629 l 276 646 l 274 656 b 271 674 274 667 271 674 b 274 704 267 681 275 697 b 288 731 274 710 282 722 b 279 776 285 744 281 765 b 268 817 276 797 272 789 b 263 847 264 842 264 824 b 254 875 260 857 257 868 b 244 919 249 886 249 908 b 238 949 239 929 239 936 b 229 997 238 949 236 961 l 221 1047 b 257 944 242 989 257 944 b 256 953 257 946 257 950 b 240 1044 256 953 251 971 l 232 1108 l 251 1047 b 278 958 275 976 278 958 b 290 931 282 942 285 942 b 293 931 292 931 292 931 b 326 925 321 931 326 925 b 351 911 331 919 347 917 b 363 897 351 911 356 904 l 369 890 l 374 867 l 390 861 l 400 850 b 411 839 404 849 411 839 b 418 828 418 828 407 839 b 446 800 418 828 428 817 b 463 783 454 793 463 783 b 492 763 471 775 475 782 b 504 746 496 756 500 750 b 518 763 508 750 513 756 b 546 783 533 782 538 775 b 563 800 546 783 554 793 b 592 828 581 817 592 828 b 599 839 601 839 592 828 b 608 850 599 839 606 849 l 618 861 l 635 867 l 639 890 l 646 897 b 657 911 654 904 657 911 b 682 925 661 917 678 919 b 715 931 682 925 688 931 b 718 931 717 931 717 931 b 731 958 724 942 726 942 b 757 1047 731 958 733 976 l 776 1108 l 768 1044 b 753 953 757 971 753 953 b 751 944 751 950 751 946 b 788 1047 751 944 767 989 l 779 997 b 771 949 772 961 771 949 b 765 919 769 936 769 929 b 754 875 761 908 760 886 b 747 847 753 868 749 857 b 740 817 744 824 744 842 b 729 776 736 789 732 797 b 722 731 728 765 725 746 b 729 714 726 725 729 717 b 732 683 728 706 735 690 b 728 664 732 683 728 675 l 725 654 l 710 638 b 708 638 710 638 708 638 b 708 632 708 635 708 633 l 713 618 l 710 604 l 711 597 l 711 582 b 710 556 713 561 710 556 b 706 538 710 556 707 550 b 699 504 703 514 699 504 l 718 483 b 744 458 739 467 744 458 b 774 429 744 458 751 450 l 793 410 l 796 401 b 774 418 779 414 774 418 b 757 433 768 422 783 414 b 721 458 757 433 731 449 b 749 431 733 443 732 451 b 772 400 767 408 756 428 b 808 347 790 372 800 361 b 824 319 815 335 814 333 b 842 296 828 314 835 306 b 865 297 849 296 857 297 b 865 297 865 297 865 297 b 853 314 860 308 860 306 b 838 328 853 314 846 321 b 843 335 838 338 843 335 b 876 297 846 333 863 314 b 915 297 894 297 911 297 b 893 290 919 297 904 292 b 883 288 888 290 886 289 b 897 271 890 279 896 274 b 879 285 900 268 886 276 b 875 288 878 286 876 288 b 874 289 874 288 874 288 b 853 289 861 292 864 289 b 847 289 851 289 850 289 b 864 268 853 282 858 275 b 924 268 864 268 890 269 l 988 265 l 924 257 b 876 253 900 254 876 253 b 881 247 876 253 879 250 l 885 242 b 932 238 885 242 911 239 l 890 235 l 918 197 m 751 929 b 743 914 751 925 746 918 b 749 906 746 913 747 908 b 749 907 749 906 749 907 b 750 915 749 907 749 910 l 751 929 m 261 906 b 265 914 261 908 264 913 b 257 929 263 918 257 925 l 260 915 b 260 907 260 910 260 907 b 261 906 260 907 261 906 m 768 340 b 774 335 771 338 774 335 b 779 329 774 335 776 333 l 789 319 b 779 340 785 324 782 338 b 772 344 779 340 776 343 m 738 415 b 739 410 739 411 739 410 b 742 404 739 410 740 407 l 744 394 b 746 410 743 399 746 408 b 742 415 746 410 744 413 m 264 410 b 264 394 263 408 265 399 l 267 404 b 269 410 268 407 269 410 b 271 415 269 410 269 411 l 267 415 b 264 410 265 413 264 410 m 229 340 b 219 319 226 338 225 324 l 229 329 b 235 335 233 333 235 335 b 240 340 235 335 238 338 l 236 344 b 229 340 232 343 229 340 m 185 281 b 207 311 193 290 200 301 b 201 306 206 310 203 308 b 174 279 196 300 185 290 b 185 281 178 279 182 279 m 347 276 b 361 276 353 276 357 276 b 351 301 361 276 357 289 b 346 328 351 315 346 328 b 349 354 342 342 349 346 b 349 361 349 356 349 358 b 339 376 347 368 342 369 b 339 376 339 376 339 376 b 329 393 335 383 329 393 b 324 388 328 392 325 389 b 301 371 311 374 306 367 b 308 388 297 375 304 379 b 324 401 308 388 313 396 l 324 401 b 321 407 324 404 322 406 b 318 411 319 408 318 410 b 303 393 315 407 314 403 b 282 371 285 375 300 385 b 265 349 276 364 268 354 b 235 315 258 339 240 325 b 215 293 229 307 224 303 b 204 282 213 290 208 286 b 207 282 204 282 206 282 b 229 285 217 285 229 285 b 265 294 242 286 239 294 b 314 296 290 293 306 297 b 321 294 321 294 303 300 b 356 285 321 294 339 288 b 347 276 332 278 347 276 m 394 596 b 421 636 394 596 400 606 b 435 653 428 643 435 653 b 435 653 433 653 435 653 b 435 653 435 653 435 653 b 425 665 432 656 429 660 l 407 682 l 411 681 b 404 689 410 683 407 686 b 386 719 386 707 393 710 b 372 738 386 719 378 729 b 356 760 364 749 356 760 l 364 722 b 376 700 367 715 376 707 b 381 682 376 700 376 693 l 382 672 l 376 654 b 379 644 376 650 378 647 l 386 636 l 389 619 b 393 604 392 618 393 604 b 393 600 393 601 393 600 b 394 596 393 599 394 597 m 419 558 b 410 547 417 556 413 551 b 411 540 411 544 411 542 b 482 603 429 556 465 586 b 479 607 481 604 481 606 b 475 611 478 608 476 610 b 461 597 472 607 467 601 b 438 579 450 588 454 586 b 419 558 421 571 431 568 m 426 131 b 428 146 428 138 428 146 b 410 157 425 147 417 151 b 411 146 410 153 411 149 b 415 129 411 146 413 139 l 426 131 m 446 19 b 460 11 447 17 458 15 l 454 19 b 451 25 451 22 451 25 b 447 29 451 25 450 26 l 443 26 b 446 19 444 22 446 19 m 469 -165 b 478 -119 472 -150 475 -132 b 475 -111 476 -115 475 -112 b 463 -147 471 -124 467 -136 b 467 -161 463 -151 463 -153 b 469 -165 468 -162 469 -164 m 493 -57 b 493 -50 493 -54 493 -51 b 492 -47 493 -49 492 -47 l 489 -46 l 486 -47 b 486 -50 486 -47 486 -49 b 485 -57 486 -51 485 -54 b 489 -64 485 -58 488 -61 b 493 -57 492 -61 493 -58 m 494 43 b 494 47 494 44 494 46 b 493 68 494 47 492 56 b 492 94 493 81 492 94 b 489 68 492 94 490 81 b 486 47 489 56 486 47 b 488 43 486 46 486 44 b 490 28 489 32 489 29 b 494 43 492 29 493 32 m 508 -161 b 514 -147 513 -154 514 -151 b 501 -111 510 -136 506 -124 b 499 -119 501 -112 500 -115 b 506 -165 501 -132 504 -150 b 508 -161 507 -164 507 -162 m 507 86 b 519 157 507 86 510 108 b 521 182 521 164 521 182 b 521 185 519 183 519 185 b 521 186 521 186 521 186 b 521 190 521 188 521 189 b 517 206 519 194 518 201 b 515 206 517 206 515 206 b 500 206 508 206 504 206 l 490 200 b 489 185 489 194 488 189 b 472 156 489 185 490 178 b 467 150 471 153 469 151 b 476 86 469 136 474 103 b 479 71 478 78 478 74 b 490 107 483 82 486 96 b 488 124 489 114 489 119 b 492 111 489 121 490 117 b 496 124 493 117 494 121 b 493 107 494 119 493 114 b 503 71 496 96 500 82 b 507 86 504 74 504 78 m 488 232 b 488 229 488 231 488 229 b 522 236 504 232 517 235 l 522 238 b 492 239 517 239 501 240 b 486 238 489 238 488 238 m 535 19 b 538 26 535 19 536 22 l 533 29 b 531 25 532 26 531 25 b 526 19 531 25 529 22 l 521 11 b 535 19 522 15 533 17 m 569 129 b 572 143 571 136 572 143 b 557 146 572 143 565 142 b 556 146 557 146 556 146 b 558 131 556 146 557 138 l 569 129 m 568 494 b 579 521 571 513 576 517 b 579 521 579 521 579 521 b 569 532 575 525 572 529 l 547 542 l 535 550 b 515 567 518 563 515 567 b 504 579 513 571 507 576 b 494 567 501 576 496 571 b 474 550 494 567 490 563 l 461 542 l 439 532 b 429 521 436 529 433 525 b 421 510 424 517 422 513 b 425 493 422 507 425 501 b 426 488 426 492 426 490 b 428 485 426 488 428 486 l 429 486 l 429 483 b 436 474 432 481 433 476 b 439 467 447 457 436 474 b 450 418 443 460 443 443 b 451 382 458 394 449 394 b 454 360 451 382 454 369 b 461 318 458 333 461 318 b 467 307 464 304 461 318 b 469 292 467 307 471 294 l 472 283 b 478 282 475 283 476 283 b 511 283 486 281 493 285 b 528 286 521 283 524 285 l 528 286 l 526 288 l 528 288 l 528 294 b 531 322 528 317 531 322 b 535 343 531 322 533 329 b 543 378 539 369 543 378 b 547 403 543 378 547 386 l 557 436 b 557 444 554 457 557 436 b 561 463 557 449 558 454 l 565 489 l 567 483 b 568 494 567 488 568 490 m 592 553 b 593 554 592 554 593 554 b 589 558 592 556 590 557 b 571 579 578 568 588 571 b 547 597 554 586 558 588 b 533 611 542 601 536 607 b 529 607 532 610 531 608 b 526 603 529 606 528 604 b 590 547 542 588 571 563 b 592 553 590 547 592 551 m 624 706 b 640 732 624 714 638 724 b 650 742 640 735 644 739 l 654 758 b 636 738 654 758 644 749 b 622 719 631 729 622 719 b 604 689 615 710 622 707 b 597 681 601 686 600 683 l 601 682 l 585 665 b 574 653 579 660 576 656 b 574 653 574 653 574 653 b 574 653 575 653 575 653 b 589 636 574 653 581 643 b 606 610 597 622 606 610 b 608 624 606 610 607 622 l 613 639 l 625 653 l 617 676 l 619 688 b 624 706 624 697 624 706 m 719 256 b 707 267 715 257 710 265 b 700 267 707 267 704 267 l 699 263 b 704 261 703 261 704 261 b 710 258 704 261 707 260 m 808 242 b 786 247 801 240 789 249 b 778 244 786 247 782 247 l 778 239 b 786 239 783 239 786 239 b 794 240 786 239 789 240 m 797 275 b 815 271 807 274 810 272 b 793 293 808 279 797 289 b 774 315 785 303 779 307 b 744 349 768 325 751 339 b 726 371 740 354 733 364 b 706 393 708 385 724 375 b 681 424 686 413 694 411 b 681 424 681 424 681 424 l 679 407 b 685 401 679 407 682 404 b 700 388 696 394 700 388 b 707 371 704 379 711 375 b 685 388 703 367 697 374 b 675 399 682 390 679 394 b 674 392 675 397 675 394 b 658 358 671 367 663 371 b 651 336 658 358 656 346 b 642 297 644 313 642 297 b 640 294 640 296 640 294 b 668 297 649 296 661 299 b 710 301 668 297 679 297 l 738 304 l 747 301 b 718 294 725 296 718 294 b 697 292 713 292 728 300 b 653 279 697 292 667 281 b 694 282 674 278 665 283 b 732 282 722 282 699 286 b 797 275 767 278 782 279 m 822 246 b 843 244 829 246 836 244 l 839 249 b 832 247 836 247 833 247 b 822 246 828 247 825 246 m 831 269 b 844 269 833 269 839 269 b 808 306 831 283 814 299 b 801 311 806 308 803 310 b 831 269 811 297 821 283 l 831 269 m 849 244 b 871 242 856 243 864 243 b 863 251 869 244 867 247 b 846 249 857 250 850 250 b 849 244 846 247 847 246 m 933 158 b 976 122 939 153 974 128 b 988 93 979 115 996 86 b 889 206 979 100 929 158 b 910 183 883 211 901 192 b 933 158 918 174 928 165 m 913 232 b 921 228 918 231 921 228 b 929 208 924 225 925 213 l 921 217 b 914 224 917 221 914 224 b 910 229 914 224 913 225 m 750 1082 b 749 1092 749 1088 749 1092 b 761 1111 749 1096 760 1106 l 758 1099 b 757 1089 757 1093 757 1089 b 756 1082 757 1089 757 1086 m 715 963 b 706 964 707 957 706 964 b 726 1046 706 969 725 1039 b 726 1024 728 1050 729 1035 b 724 1006 724 1014 731 1017 b 718 985 718 993 721 994 b 715 963 718 985 715 975 m 758 803 b 740 742 754 788 744 753 b 746 794 740 742 743 754 b 749 815 746 808 749 815 b 758 832 753 824 753 833 b 758 803 764 831 763 822 m 740 742 b 739 738 740 740 740 739 b 740 742 740 739 740 742 "},";":{"ha":1117,"x_min":0,"x_max":0,"o":"m 500 -254 b 501 -264 500 -254 500 -257 l 504 -278 b 492 -256 503 -271 492 -260 b 493 -246 492 -256 492 -251 l 499 -246 b 500 -254 500 -250 500 -254 m 488 124 b 488 128 488 124 488 126 b 488 124 488 128 488 126 m 251 1089 b 250 1099 251 1089 251 1093 l 249 1111 b 260 1092 249 1106 260 1096 b 258 1082 260 1092 260 1088 l 253 1082 b 251 1089 253 1086 251 1089 m 268 742 b 269 738 268 742 269 739 b 268 742 269 739 268 740 m 260 815 b 263 794 260 815 264 808 b 268 742 265 754 268 742 b 251 803 265 753 254 788 b 250 832 246 822 244 831 b 260 815 256 833 256 824 m 285 1006 b 282 1024 278 1017 285 1014 b 282 1046 279 1035 281 1050 b 303 964 285 1039 303 969 b 293 963 303 964 303 957 b 290 985 293 975 290 985 b 285 1006 289 994 292 993 m 481 -246 b 481 -256 482 -251 481 -256 b 468 -278 481 -260 469 -271 l 471 -262 b 472 -254 472 -257 472 -254 b 475 -246 472 -254 474 -250 m 496 124 b 497 128 496 126 496 128 b 496 124 496 126 496 124 m 1085 261 b 1115 251 1092 260 1126 254 b 964 247 1104 249 1026 247 b 994 249 954 247 981 247 b 1028 251 1007 249 1019 251 b 1085 261 1038 251 1078 263 m 964 279 b 957 278 964 279 961 279 l 956 283 b 964 288 960 286 964 288 b 986 281 968 288 981 281 l 974 279 b 964 279 968 279 964 279 m 881 233 b 858 231 876 233 868 232 b 863 224 858 231 861 226 l 857 231 b 832 228 847 229 838 228 b 801 226 819 228 813 225 b 757 225 790 228 769 224 b 728 225 750 225 738 225 b 697 224 706 221 722 226 b 656 224 668 219 676 226 b 628 219 649 222 639 221 l 629 218 l 626 208 b 625 203 625 207 625 203 b 676 211 625 203 639 204 b 699 214 689 215 699 214 b 715 210 707 213 715 215 b 688 203 715 204 707 203 b 625 203 672 201 636 203 b 622 190 624 200 622 194 b 607 165 622 183 608 174 b 597 156 607 163 603 158 l 582 92 b 578 51 582 63 578 51 b 569 8 578 51 575 40 l 564 -22 l 558 -31 b 560 0 560 -7 560 0 b 563 24 560 8 563 -11 b 563 74 563 24 560 58 b 554 29 556 51 564 58 b 543 -11 546 0 557 24 b 518 -76 529 -44 525 -61 b 515 -83 517 -79 515 -81 b 518 -100 515 -87 517 -93 b 519 -114 518 -103 519 -108 b 528 -117 522 -114 528 -111 b 524 -140 528 -118 526 -128 b 525 -154 524 -140 524 -149 l 533 -207 b 518 -160 526 -187 518 -160 b 510 -190 515 -171 513 -182 b 513 -204 510 -190 511 -199 l 521 -275 l 500 -207 b 488 -158 493 -183 488 -158 b 474 -207 488 -158 482 -183 l 451 -274 l 463 -204 b 465 -190 463 -199 465 -190 b 457 -160 463 -182 460 -171 b 440 -207 457 -160 449 -186 l 451 -153 b 453 -140 453 -147 453 -140 b 449 -115 450 -128 449 -118 b 457 -114 449 -111 454 -112 b 460 -99 458 -108 458 -103 b 463 -82 461 -93 463 -87 b 460 -76 463 -81 461 -79 b 436 -11 453 -61 450 -44 b 426 29 424 24 435 0 b 419 74 418 58 426 51 b 418 24 422 58 418 24 b 421 0 418 -11 421 8 b 421 -31 421 0 421 -7 l 415 -22 l 411 8 b 404 51 407 40 404 51 b 401 92 404 51 400 63 l 382 182 b 360 179 382 182 374 183 l 326 179 b 318 178 308 171 326 179 b 301 176 315 176 310 176 l 276 174 l 281 176 b 269 175 278 176 274 175 b 233 181 244 172 246 181 b 211 182 233 181 221 181 b 169 182 185 183 169 182 b 157 179 154 182 169 182 b 142 179 157 179 144 178 l 126 178 l 110 188 l 96 176 b 21 93 61 138 28 99 b 33 122 13 86 31 115 b 75 158 36 128 69 153 b 90 174 79 163 85 168 l 81 172 b 63 172 69 174 63 172 b 33 181 54 169 42 181 b 7 201 33 181 26 179 b 1 224 7 201 -1 208 b 6 246 -3 238 6 246 b 29 269 22 268 29 269 b 57 279 38 269 50 281 b 75 281 57 279 65 278 l 86 281 l 107 268 l 113 272 b 165 335 121 282 161 332 b 172 328 165 335 171 338 b 156 314 163 321 156 314 b 143 297 149 306 149 308 b 129 285 138 285 136 292 b 124 279 128 282 126 281 l 138 279 b 153 279 139 281 153 279 b 154 279 153 279 153 279 b 185 319 167 296 179 313 b 201 347 194 333 193 335 b 236 400 208 361 218 372 b 260 431 254 428 243 408 b 288 458 276 451 276 443 b 251 433 278 449 251 433 b 236 418 225 414 240 422 b 213 401 236 418 229 414 l 215 410 l 236 429 b 264 458 257 450 264 458 b 290 483 264 458 269 467 l 307 501 b 307 503 307 501 307 501 b 304 526 307 503 304 515 b 300 553 303 539 300 553 b 299 556 300 554 300 556 b 297 572 297 560 297 567 b 293 581 296 579 297 569 b 290 596 293 581 289 593 l 288 611 l 293 629 l 276 646 l 274 656 b 271 674 274 667 271 674 b 274 704 267 681 275 697 b 288 731 274 710 282 722 b 279 776 285 744 281 765 b 268 817 276 797 272 789 b 263 847 264 842 264 824 b 254 875 260 857 257 868 b 244 919 249 886 249 908 b 238 949 239 929 239 936 b 229 997 238 949 236 961 l 221 1047 b 257 944 242 989 257 944 b 256 953 257 946 257 950 b 240 1044 256 953 251 971 l 232 1108 l 251 1047 b 278 958 275 976 278 958 b 290 931 282 942 285 942 b 293 931 292 931 292 931 b 326 925 321 931 326 925 b 351 911 331 919 347 917 b 363 897 351 911 356 904 l 369 890 l 374 867 l 390 861 l 400 850 b 411 839 404 849 411 839 b 418 828 418 828 407 839 b 446 800 418 828 428 817 b 463 783 454 793 463 783 b 492 763 471 775 475 782 b 504 746 496 756 500 750 b 518 763 508 750 513 756 b 546 783 533 782 538 775 b 563 800 546 783 554 793 b 592 828 581 817 592 828 b 599 839 601 839 592 828 b 608 850 599 839 606 849 l 618 861 l 635 867 l 639 890 l 646 897 b 657 911 654 904 657 911 b 682 925 661 917 678 919 b 715 931 682 925 688 931 b 718 931 717 931 717 931 b 731 958 724 942 726 942 b 757 1047 731 958 733 976 l 776 1108 l 768 1044 b 753 953 757 971 753 953 b 751 944 751 950 751 946 b 788 1047 751 944 767 989 l 779 997 b 771 949 772 961 771 949 b 765 919 769 936 769 929 b 754 875 761 908 760 886 b 747 847 753 868 749 857 b 740 817 744 824 744 842 b 729 776 736 789 732 797 b 722 731 728 765 725 746 b 729 714 726 725 729 717 b 732 683 728 706 735 690 b 728 664 732 683 728 675 l 725 654 l 710 638 b 708 638 710 638 708 638 b 708 632 708 635 708 633 l 713 618 l 710 604 l 711 597 l 711 582 b 710 556 713 561 710 556 b 706 538 710 556 707 550 b 699 504 703 514 699 504 l 718 483 b 744 458 739 467 744 458 b 774 429 744 458 751 450 l 793 410 l 796 401 b 774 418 779 414 774 418 b 757 433 768 422 783 414 b 721 458 757 433 731 449 b 749 431 733 443 732 451 b 772 400 767 408 756 428 b 808 347 790 372 800 361 b 824 319 815 335 814 333 b 842 296 828 314 835 306 b 865 297 849 296 857 297 b 865 297 865 297 865 297 b 853 314 860 308 860 306 b 838 328 853 314 846 321 b 843 335 838 338 843 335 b 876 297 846 333 863 314 b 915 297 894 297 911 297 b 893 290 919 297 904 292 b 883 288 888 290 886 289 b 897 271 890 279 896 274 b 879 285 900 268 886 276 b 875 288 878 286 876 288 b 874 289 874 288 874 288 b 853 289 861 292 864 289 b 847 289 851 289 850 289 b 864 268 853 282 858 275 b 924 268 864 268 890 269 l 988 265 l 924 257 b 876 253 900 254 876 253 b 881 247 876 253 879 250 l 885 242 b 932 238 885 242 911 239 l 890 235 l 918 197 m 751 929 b 743 914 751 925 746 918 b 749 906 746 913 747 908 b 749 907 749 906 749 907 b 750 915 749 907 749 910 l 751 929 m 261 906 b 265 914 261 908 264 913 b 257 929 263 918 257 925 l 260 915 b 260 907 260 910 260 907 b 261 906 260 907 261 906 m 768 340 b 774 335 771 338 774 335 b 779 329 774 335 776 333 l 789 319 b 779 340 785 324 782 338 b 772 344 779 340 776 343 m 738 415 b 739 410 739 411 739 410 b 742 404 739 410 740 407 l 744 394 b 746 410 743 399 746 408 b 742 415 746 410 744 413 m 264 410 b 264 394 263 408 265 399 l 267 404 b 269 410 268 407 269 410 b 271 415 269 410 269 411 l 267 415 b 264 410 265 413 264 410 m 229 340 b 219 319 226 338 225 324 l 229 329 b 235 335 233 333 235 335 b 240 340 235 335 238 338 l 236 344 b 229 340 232 343 229 340 m 185 281 b 207 311 193 290 200 301 b 201 306 206 310 203 308 b 174 279 196 300 185 290 b 185 281 178 279 182 279 m 347 276 b 361 276 353 276 357 276 b 351 301 361 276 357 289 b 346 328 351 315 346 328 b 349 354 342 342 349 346 b 349 361 349 356 349 358 b 339 376 347 368 342 369 b 339 376 339 376 339 376 b 329 393 335 383 329 393 b 324 388 328 392 325 389 b 301 371 311 374 306 367 b 308 388 297 375 304 379 b 324 401 308 388 313 396 l 324 401 b 321 407 324 404 322 406 b 318 411 319 408 318 410 b 303 393 315 407 314 403 b 282 371 285 375 300 385 b 265 349 276 364 268 354 b 235 315 258 339 240 325 b 215 293 229 307 224 303 b 204 282 213 290 208 286 b 207 282 204 282 206 282 b 229 285 217 285 229 285 b 265 294 242 286 239 294 b 314 296 290 293 306 297 b 321 294 321 294 303 300 b 356 285 321 294 339 288 b 347 276 332 278 347 276 m 394 596 b 421 636 394 596 400 606 b 435 653 428 643 435 653 b 435 653 433 653 435 653 b 435 653 435 653 435 653 b 425 665 432 656 429 660 l 407 682 l 411 681 b 404 689 410 683 407 686 b 386 719 386 707 393 710 b 372 738 386 719 378 729 b 356 760 364 749 356 760 l 364 722 b 376 700 367 715 376 707 b 381 682 376 700 376 693 l 382 672 l 376 654 b 379 644 376 650 378 647 l 386 636 l 389 619 b 393 604 392 618 393 604 b 393 600 393 601 393 600 b 394 596 393 599 394 597 m 419 558 b 410 547 417 556 413 551 b 411 540 411 544 411 542 b 482 603 429 556 465 586 b 479 607 481 604 481 606 b 475 611 478 608 476 610 b 461 597 472 607 467 601 b 438 579 450 588 454 586 b 419 558 421 571 431 568 m 426 131 b 428 146 428 138 428 146 b 410 157 425 147 417 151 b 411 146 410 153 411 149 b 415 129 411 146 413 139 l 426 131 m 446 19 b 460 11 447 17 458 15 l 454 19 b 451 25 451 22 451 25 b 447 29 451 25 450 26 l 443 26 b 446 19 444 22 446 19 m 469 -165 b 478 -119 472 -150 475 -132 b 475 -111 476 -115 475 -112 b 463 -147 471 -124 467 -136 b 467 -161 463 -151 463 -153 b 469 -165 468 -162 469 -164 m 493 -57 b 493 -50 493 -54 493 -51 b 492 -47 493 -49 492 -47 l 489 -46 l 486 -47 b 486 -50 486 -47 486 -49 b 485 -57 486 -51 485 -54 b 489 -64 485 -58 488 -61 b 493 -57 492 -61 493 -58 m 494 43 b 494 47 494 44 494 46 b 493 68 494 47 492 56 b 492 94 493 81 492 94 b 489 68 492 94 490 81 b 486 47 489 56 486 47 b 488 43 486 46 486 44 b 490 28 489 32 489 29 b 494 43 492 29 493 32 m 508 -161 b 514 -147 513 -154 514 -151 b 501 -111 510 -136 506 -124 b 499 -119 501 -112 500 -115 b 506 -165 501 -132 504 -150 b 508 -161 507 -164 507 -162 m 507 86 b 519 157 507 86 510 108 b 521 182 521 164 521 182 b 521 185 519 183 519 185 b 521 186 521 186 521 186 b 521 190 521 188 521 189 b 517 206 519 194 518 201 b 515 206 517 206 515 206 b 500 206 508 206 504 206 l 490 200 b 489 185 489 194 488 189 b 472 156 489 185 490 178 b 467 150 471 153 469 151 b 476 86 469 136 474 103 b 479 71 478 78 478 74 b 490 107 483 82 486 96 b 488 124 489 114 489 119 b 492 111 489 121 490 117 b 496 124 493 117 494 121 b 493 107 494 119 493 114 b 503 71 496 96 500 82 b 507 86 504 74 504 78 m 488 232 b 488 229 488 231 488 229 b 522 236 504 232 517 235 l 522 238 b 492 239 517 239 501 240 b 486 238 489 238 488 238 m 535 19 b 538 26 535 19 536 22 l 533 29 b 531 25 532 26 531 25 b 526 19 531 25 529 22 l 521 11 b 535 19 522 15 533 17 m 569 129 b 572 143 571 136 572 143 b 557 146 572 143 565 142 b 556 146 557 146 556 146 b 558 131 556 146 557 138 l 569 129 m 568 494 b 579 521 571 513 576 517 b 579 521 579 521 579 521 b 569 532 575 525 572 529 l 547 542 l 535 550 b 515 567 518 563 515 567 b 504 579 513 571 507 576 b 494 567 501 576 496 571 b 474 550 494 567 490 563 l 461 542 l 439 532 b 429 521 436 529 433 525 b 421 510 424 517 422 513 b 425 493 422 507 425 501 b 426 488 426 492 426 490 b 428 485 426 488 428 486 l 429 486 l 429 483 b 436 474 432 481 433 476 b 439 467 447 457 436 474 b 450 418 443 460 443 443 b 451 382 458 394 449 394 b 454 360 451 382 454 369 b 461 318 458 333 461 318 b 467 307 464 304 461 318 b 469 292 467 307 471 294 l 472 283 b 478 282 475 283 476 283 b 511 283 486 281 493 285 b 528 286 521 283 524 285 l 528 286 l 526 288 l 528 288 l 528 294 b 531 322 528 317 531 322 b 535 343 531 322 533 329 b 543 378 539 369 543 378 b 547 403 543 378 547 386 l 557 436 b 557 444 554 457 557 436 b 561 463 557 449 558 454 l 565 489 l 567 483 b 568 494 567 488 568 490 m 592 553 b 593 554 592 554 593 554 b 589 558 592 556 590 557 b 571 579 578 568 588 571 b 547 597 554 586 558 588 b 533 611 542 601 536 607 b 529 607 532 610 531 608 b 526 603 529 606 528 604 b 590 547 542 588 571 563 b 592 553 590 547 592 551 m 624 706 b 640 732 624 714 638 724 b 650 742 640 735 644 739 l 654 758 b 636 738 654 758 644 749 b 622 719 631 729 622 719 b 604 689 615 710 622 707 b 597 681 601 686 600 683 l 601 682 l 585 665 b 574 653 579 660 576 656 b 574 653 574 653 574 653 b 574 653 575 653 575 653 b 589 636 574 653 581 643 b 606 610 597 622 606 610 b 608 624 606 610 607 622 l 613 639 l 625 653 l 617 676 l 619 688 b 624 706 624 697 624 706 m 719 256 b 707 267 715 257 710 265 b 700 267 707 267 704 267 l 699 263 b 704 261 703 261 704 261 b 710 258 704 261 707 260 m 808 242 b 786 247 801 240 789 249 b 778 244 786 247 782 247 l 778 239 b 786 239 783 239 786 239 b 794 240 786 239 789 240 m 797 275 b 815 271 807 274 810 272 b 793 293 808 279 797 289 b 774 315 785 303 779 307 b 744 349 768 325 751 339 b 726 371 740 354 733 364 b 706 393 708 385 724 375 b 681 424 686 413 694 411 b 681 424 681 424 681 424 l 679 407 b 685 401 679 407 682 404 b 700 388 696 394 700 388 b 707 371 704 379 711 375 b 685 388 703 367 697 374 b 675 399 682 390 679 394 b 674 392 675 397 675 394 b 658 358 671 367 663 371 b 651 336 658 358 656 346 b 642 297 644 313 642 297 b 640 294 640 296 640 294 b 668 297 649 296 661 299 b 710 301 668 297 679 297 l 738 304 l 747 301 b 718 294 725 296 718 294 b 697 292 713 292 728 300 b 653 279 697 292 667 281 b 694 282 674 278 665 283 b 732 282 722 282 699 286 b 797 275 767 278 782 279 m 822 246 b 843 244 829 246 836 244 l 839 249 b 832 247 836 247 833 247 b 822 246 828 247 825 246 m 831 269 b 844 269 833 269 839 269 b 808 306 831 283 814 299 b 801 311 806 308 803 310 b 831 269 811 297 821 283 l 831 269 m 849 244 b 871 242 856 243 864 243 b 863 251 869 244 867 247 b 846 249 857 250 850 250 b 849 244 846 247 847 246 m 933 158 b 976 122 939 153 974 128 b 988 93 979 115 996 86 b 889 206 979 100 929 158 b 910 183 883 211 901 192 b 933 158 918 174 928 165 m 913 232 b 921 228 918 231 921 228 b 929 208 924 225 925 213 l 921 217 b 914 224 917 221 914 224 b 910 229 914 224 913 225 m 750 1082 b 749 1092 749 1088 749 1092 b 761 1111 749 1096 760 1106 l 758 1099 b 757 1089 757 1093 757 1089 b 756 1082 757 1089 757 1086 m 715 963 b 706 964 707 957 706 964 b 726 1046 706 969 725 1039 b 726 1024 728 1050 729 1035 b 724 1006 724 1014 731 1017 b 718 985 718 993 721 994 b 715 963 718 985 715 975 m 758 803 b 740 742 754 788 744 753 b 746 794 740 742 743 754 b 749 815 746 808 749 815 b 758 832 753 824 753 833 b 758 803 764 831 763 822 m 740 742 b 739 738 740 740 740 739 b 740 742 740 739 740 742 "}}}
